<?xml version="1.0" encoding="utf-8"?>
<!-- Generator: Adobe Illustrator 23.0.1, SVG Export Plug-In . SVG Version: 6.00 Build 0)  -->
<svg version="1.1" id="Layer_1" xmlns="http://www.w3.org/2000/svg" xmlns:xlink="http://www.w3.org/1999/xlink" x="0px" y="0px"
	 viewBox="0 0 815.79 123.43" style="enable-background:new 0 0 815.79 123.43;" xml:space="preserve">
<style type="text/css">
	.st0{fill:#C59A6B;}
</style>
<g>
	<path class="st0" d="M99.69,98.71c0.28,0.28,0.41,0.5,0.41,0.67c0,0.17-0.16,0.26-0.47,0.26c-1.08,0-1.97-1.62-2.66-4.88
		c-0.4-1.69-0.62-3.46-0.67-5.31v-1.15c-3.54-0.37-6.41-1.52-8.6-3.45c-2.11-1.85-3.2-4.15-3.25-6.9c-0.11-3.33,0.91-6.53,3.05-9.59
		c3.17-4.57,7.93-7.61,14.27-9.12c2.06-0.48,4.23-0.72,6.5-0.72h0.24c-0.71-0.98-1.23-2.1-1.55-3.37c-4.15-0.9-7.53-2.3-10.13-4.22
		c-2.6-1.92-4.47-4.15-5.61-6.72c-0.16-0.29-0.24-0.61-0.24-0.95c0-0.34,0.13-0.52,0.38-0.52c0.25,0,0.51,0.32,0.77,0.95
		c2.41,5.39,7.28,8.85,14.63,10.39c-0.03-0.13-0.04-0.28-0.04-0.44v-0.47c-0.05-3.94,1.19-7.54,3.73-10.78
		c3.54-4.52,8.47-7.49,14.79-8.92c1.9-0.45,3.78-0.67,5.63-0.67c4.28,0,7.61,0.76,9.99,2.28c2.38,1.52,3.57,3.64,3.57,6.37
		c0,2.04-0.74,3.94-2.22,5.73c-1.48,1.79-3.48,3.34-5.99,4.66c-5.47,2.86-11.95,4.28-19.43,4.28c-2.32,0-4.49-0.13-6.5-0.4
		c0.26,1.03,0.7,2.02,1.31,2.98c2.59,0.29,4.55,0.81,5.89,1.57c1.33,0.75,2.01,1.54,2.04,2.36c0,0.85-0.65,1.27-1.94,1.27
		c-2.83,0-5.47-1.31-7.93-3.92c-5.13,0.55-9.95,2.88-14.47,6.98c-2.78,2.56-4.72,5.26-5.83,8.09c-0.56,1.45-0.81,3.05-0.77,4.8
		c0.04,1.75,0.71,3.32,2.02,4.74c1.31,1.41,3.23,2.32,5.77,2.72c0.42-4.86,2.35-9.21,5.79-13.04c3.52-3.94,7.4-5.91,11.66-5.91
		c1.66,0,3.11,0.54,4.34,1.62c1.23,1.08,1.84,2.51,1.84,4.28c0,1.77-0.54,3.55-1.63,5.33c-1.08,1.78-2.58,3.34-4.48,4.66
		c-4.1,2.8-9.09,4.2-14.99,4.2l-1.43-0.04c-0.03,0.21-0.04,0.41-0.04,0.6v0.59c0,2.7,0.45,5.18,1.35,7.45
		C99.12,97.87,99.41,98.44,99.69,98.71 M97.53,87.4c0.53,0.05,1.28,0.08,2.26,0.08c0.98,0,2.21-0.24,3.69-0.72
		c1.48-0.47,2.93-1.1,4.34-1.88c1.41-0.78,2.75-1.68,4-2.69c1.25-1.02,2.36-2.08,3.31-3.19c2.03-2.38,3.05-4.47,3.05-6.26
		c0-1.11-0.41-1.96-1.23-2.54c-0.82-0.58-1.94-0.87-3.37-0.87c-1.43,0-3.05,0.43-4.86,1.29c-1.81,0.86-3.51,2.08-5.1,3.67
		C100.07,77.89,98.03,82.27,97.53,87.4 M110.14,54.65c1.48,0.21,3.34,0.32,5.57,0.32c2.23,0,4.39-0.15,6.48-0.46
		c2.09-0.3,4.13-0.75,6.12-1.33c2-0.58,3.88-1.29,5.65-2.14c1.77-0.84,3.32-1.81,4.64-2.89c2.91-2.38,4.36-5.01,4.36-7.89
		c0-1.88-0.95-3.41-2.86-4.6c-1.98-1.24-4.23-1.86-6.76-1.86c-2.52,0-4.69,0.32-6.48,0.95c-1.8,0.63-3.52,1.48-5.17,2.54
		c-1.65,1.06-3.18,2.27-4.58,3.65c-1.4,1.37-2.62,2.81-3.65,4.32c-2.22,3.17-3.33,6.12-3.33,8.84V54.65z M112.48,59.88
		c1.82,2.06,3.69,3.09,5.59,3.09c0.42,0,0.64-0.13,0.64-0.4c0-0.26-0.17-0.54-0.5-0.81c-0.33-0.28-0.77-0.55-1.33-0.81
		C115.58,60.35,114.12,59.99,112.48,59.88"/>
	<path class="st0" d="M126.91,88.43c-2.25,0-3.37-0.7-3.37-2.1c0-0.45,0.24-0.87,0.71-1.27c0.48-0.4,0.97-0.59,1.47-0.59
		c0.69,0,1.26,0.16,1.71,0.47c0.71,0.53,1.5,0.79,2.36,0.79c0.86,0,1.98-0.35,3.35-1.05c1.37-0.7,2.76-1.7,4.16-3
		c2.83-2.62,5.42-6.14,7.77-10.58c1.77-2.56,2.66-4.65,2.66-6.26c0-1.61-0.62-2.42-1.86-2.42c-1.53,0-2.96,0.47-4.28,1.43
		c-2.35,1.75-5.44,4.77-9.28,9.08c-0.21,0.05-0.41-0.01-0.61-0.2c-0.2-0.19-0.27-0.34-0.22-0.48c4.23-4.71,7.12-7.6,8.68-8.68
		c1.56-1.08,2.76-1.75,3.61-2c0.85-0.25,1.86-0.38,3.03-0.38c1.18,0,2.2,0.47,3.07,1.43c0.87,0.95,1.31,2.09,1.31,3.41
		c0,1.32-0.24,2.79-0.71,4.4c3.01-4.09,6.36-6.92,10.03-8.48c1.21-0.5,2.29-0.75,3.21-0.75s1.63,0.09,2.1,0.28
		c0.48,0.19,0.86,0.42,1.15,0.72c0.53,0.5,0.79,1.14,0.79,1.92c0,0.78-0.25,1.36-0.75,1.75c-0.5,0.38-1.1,0.58-1.81,0.58
		c-0.7,0-1.29-0.29-1.78-0.87c-0.49-0.58-0.76-1.38-0.81-2.38c-0.13-0.03-0.27-0.04-0.4-0.04h-0.28c-1.67,0-3.82,1.19-6.46,3.57
		c-2.62,2.38-4.98,5.39-7.1,9.04l-1.35,2.54c-1.32,2.88-1.98,5.16-1.98,6.82c0,1.48,0.77,2.22,2.32,2.22c1.55,0,3.05-0.36,4.52-1.09
		c1.47-0.72,2.92-1.63,4.36-2.72c1.44-1.08,2.81-2.27,4.12-3.55c1.31-1.28,2.48-2.48,3.51-3.59c1.56-1.69,2.74-3.08,3.53-4.17
		l0.83,0.72c-0.1,0.11-0.49,0.56-1.17,1.35c-0.67,0.79-1.55,1.76-2.63,2.92c-1.08,1.15-2.32,2.38-3.71,3.69
		c-1.39,1.31-2.85,2.53-4.38,3.67c-3.54,2.59-6.61,3.89-9.2,3.89s-4.34-1.07-5.23-3.21c-0.32-0.77-0.47-1.7-0.47-2.8
		c0-1.1,0.32-2.66,0.95-4.7c-3.67,5.08-7.77,8.43-12.29,10.07C128.86,88.22,127.81,88.43,126.91,88.43"/>
	<path class="st0" d="M187.53,64.52c-0.05-1.53-1.02-2.3-2.89-2.3c-3.83,0-8.79,3.99-14.87,11.97c-2.51,3.33-3.77,6.34-3.77,9.04
		c0,1.16,0.32,2.05,0.95,2.66c1.11,1.03,2.53,1.55,4.26,1.55s3.57-0.36,5.51-1.07c1.94-0.72,3.75-1.61,5.41-2.7
		c1.66-1.08,3.18-2.27,4.56-3.55c1.37-1.28,2.56-2.48,3.57-3.61c1.01-1.12,1.8-2.08,2.38-2.87c0.58-0.79,0.92-1.26,1.03-1.39
		l0.87,0.67l-1.07,1.43c-4.97,6.53-10.52,10.9-16.65,13.12c-2.06,0.74-4,1.11-5.83,1.11c-1.82,0-3.25-0.18-4.28-0.55
		c-1.03-0.37-1.89-0.87-2.58-1.51c-1.32-1.29-1.98-2.91-1.98-4.84c0-3.78,1.64-7.63,4.92-11.54c2.56-3.06,5.6-5.42,9.12-7.06
		c2.86-1.32,5.63-1.96,8.33-1.9c2.38,0.08,3.89,0.89,4.52,2.42c0.64,1.56,0.29,2.99-1.03,4.28c-0.87,0.9-1.72,1.35-2.54,1.35
		c-1.9,0-2.88-0.78-2.93-2.34c-0.03-0.74,0.26-1.35,0.85-1.84c0.59-0.49,1.18-0.76,1.76-0.81c0.85-0.05,1.64,0.09,2.38,0.44V64.52z"
		/>
	<path class="st0" d="M208.76,84.92c-1.68,1.07-3.49,1.95-5.43,2.63c-1.94,0.69-3.79,1.03-5.53,1.03c-1.74,0-3.07-0.18-3.98-0.53
		c-0.91-0.36-1.66-0.85-2.24-1.49c-2.49-2.7-2.47-6.67,0.04-11.93c1.08-2.32,2.72-4.45,4.92-6.36c2.19-1.92,4.12-3.35,5.79-4.3
		c3.22-1.85,6.25-2.78,9.08-2.78c2.8,0,4.27,0.87,4.4,2.62c0.18,2.83-3.25,5.91-10.31,9.24c-2.59,1.22-5.85,2.47-9.79,3.77
		c-1.56,2.54-2.34,4.61-2.34,6.2c0,1.6,0.42,2.74,1.25,3.41c0.83,0.67,2.05,1.01,3.65,1.01c1.6,0,3.33-0.34,5.2-1.03
		c1.86-0.69,3.61-1.56,5.23-2.62c1.63-1.06,3.1-2.21,4.42-3.45c1.32-1.24,2.49-2.43,3.51-3.57c1.02-1.14,1.85-2.12,2.5-2.95
		c0.65-0.83,1.09-1.35,1.33-1.57l0.83,0.67c-0.34,0.29-0.87,0.89-1.57,1.78c-0.7,0.9-1.59,1.92-2.66,3.07
		c-1.07,1.15-2.3,2.36-3.69,3.63C211.97,82.68,210.44,83.85,208.76,84.92 M196.6,75.42c7.98-2.8,13.12-5.59,15.42-8.37
		c0.77-0.92,1.15-1.82,1.15-2.69c0-1.48-0.69-2.22-2.06-2.22c-2.43,0-5.47,2.13-9.12,6.38C199.46,71.48,197.66,73.79,196.6,75.42"/>
	<path class="st0" d="M216.31,86.01c0,0.87,0.64,1.31,1.9,1.31c1.27,0,2.62-0.34,4.07-1.01c1.44-0.67,2.87-1.53,4.28-2.56
		c1.41-1.03,2.78-2.16,4.1-3.39s2.52-2.4,3.61-3.51l2.74-2.93c0.74-0.84,1.24-1.4,1.51-1.66l0.79,0.67
		c-0.29,0.29-0.83,0.87-1.61,1.75c-0.78,0.87-1.73,1.88-2.85,3.01c-1.13,1.13-2.38,2.34-3.77,3.61c-1.39,1.27-2.83,2.43-4.34,3.49
		c-3.52,2.43-6.59,3.65-9.24,3.65c-1.11,0-2.03-0.3-2.76-0.91c-0.72-0.6-1.09-1.26-1.09-1.96c0-0.7,0.03-1.26,0.1-1.68
		c0.07-0.42,0.21-0.91,0.42-1.45c0.21-0.54,0.51-1.18,0.91-1.9c0.4-0.73,0.92-1.61,1.58-2.64l6.07-8.96l30.65-43.81
		c1.9,0.26,3.74,0.26,5.51,0c-25.21,35.05-38.27,53.24-39.17,54.57c-0.9,1.33-1.56,2.34-1.98,3.01s-0.74,1.22-0.95,1.64
		C216.47,84.98,216.31,85.53,216.31,86.01"/>
	<path class="st0" d="M234.39,86.01c0,0.87,0.64,1.31,1.9,1.31c1.27,0,2.62-0.34,4.06-1.01c1.44-0.67,2.87-1.53,4.28-2.56
		c1.41-1.03,2.78-2.16,4.1-3.39s2.52-2.4,3.61-3.51l2.73-2.93c0.74-0.84,1.24-1.4,1.51-1.66l0.79,0.67
		c-0.29,0.29-0.83,0.87-1.61,1.75c-0.78,0.87-1.73,1.88-2.86,3.01c-1.12,1.13-2.38,2.34-3.77,3.61c-1.39,1.27-2.83,2.43-4.34,3.49
		c-3.51,2.43-6.59,3.65-9.23,3.65c-1.11,0-2.03-0.3-2.76-0.91c-0.73-0.6-1.09-1.26-1.09-1.96c0-0.7,0.03-1.26,0.1-1.68
		c0.07-0.42,0.21-0.91,0.42-1.45c0.21-0.54,0.51-1.18,0.91-1.9c0.4-0.73,0.92-1.61,1.59-2.64l6.07-8.96l30.65-43.81
		c1.9,0.26,3.74,0.26,5.51,0c-25.21,35.05-38.27,53.24-39.17,54.57c-0.9,1.33-1.56,2.34-1.98,3.01s-0.74,1.22-0.95,1.64
		C234.55,84.98,234.39,85.53,234.39,86.01"/>
	<path class="st0" d="M271.64,84.92c-1.68,1.07-3.49,1.95-5.43,2.63c-1.94,0.69-3.79,1.03-5.53,1.03c-1.75,0-3.07-0.18-3.99-0.53
		c-0.91-0.36-1.66-0.85-2.24-1.49c-2.49-2.7-2.47-6.67,0.04-11.93c1.08-2.32,2.72-4.45,4.92-6.36c2.19-1.92,4.12-3.35,5.79-4.3
		c3.23-1.85,6.25-2.78,9.08-2.78c2.8,0,4.27,0.87,4.4,2.62c0.18,2.83-3.25,5.91-10.31,9.24c-2.59,1.22-5.85,2.47-9.79,3.77
		c-1.56,2.54-2.34,4.61-2.34,6.2c0,1.6,0.42,2.74,1.25,3.41c0.83,0.67,2.05,1.01,3.65,1.01c1.6,0,3.33-0.34,5.19-1.03
		c1.86-0.69,3.61-1.56,5.23-2.62c1.63-1.06,3.1-2.21,4.42-3.45c1.32-1.24,2.49-2.43,3.51-3.57c1.02-1.14,1.85-2.12,2.5-2.95
		c0.65-0.83,1.09-1.35,1.33-1.57l0.83,0.67c-0.34,0.29-0.87,0.89-1.57,1.78c-0.7,0.9-1.59,1.92-2.66,3.07
		c-1.07,1.15-2.3,2.36-3.69,3.63C274.85,82.68,273.31,83.85,271.64,84.92 M259.48,75.42c7.98-2.8,13.12-5.59,15.42-8.37
		c0.77-0.92,1.15-1.82,1.15-2.69c0-1.48-0.69-2.22-2.06-2.22c-2.43,0-5.47,2.13-9.12,6.38C262.34,71.48,260.54,73.79,259.48,75.42"
		/>
	<path class="st0" d="M284.46,87.6c-0.71-0.13-1.51-0.2-2.38-0.2c-1.4,0-2.63,0.13-3.69,0.39l13.76-19.66
		c1.72-2.41,2.6-3.83,2.66-4.28c0.1-0.87-0.17-1.31-0.83-1.31c-0.98,0-3.41,2.42-7.3,7.25l-2.54,3.13
		c-0.21,0.11-0.43,0.05-0.65-0.18c-0.22-0.22-0.28-0.39-0.18-0.5c0.77-0.82,1.63-1.86,2.6-3.11c0.96-1.25,1.97-2.46,3.03-3.63
		c2.59-2.88,4.74-4.32,6.46-4.32c2.91,0,3.83,1.49,2.78,4.48c-0.21,0.63-0.67,1.45-1.39,2.46l-8.33,11.58l0.2,0.44
		c6.66-7.3,11.39-12.12,14.19-14.47c2.67-2.22,4.66-3.52,5.97-3.91c1.31-0.38,2.38-0.58,3.21-0.58c0.83,0,1.55,0.12,2.14,0.36
		c0.59,0.24,1.08,0.54,1.45,0.91c0.69,0.69,1.02,1.51,1.01,2.48c-0.01,0.96-0.2,1.95-0.56,2.95c-0.35,1-0.96,2.19-1.8,3.57
		c-1.77,2.83-4.76,6.52-8.96,11.06c-1.74,1.82-2.66,2.89-2.73,3.19c-0.08,0.3-0.12,0.53-0.12,0.69c0,0.61,0.81,0.91,2.44,0.91
		c1.63,0,3.15-0.34,4.56-1.01c1.41-0.67,2.8-1.53,4.16-2.56c1.36-1.03,2.66-2.16,3.89-3.39c1.23-1.23,2.33-2.41,3.31-3.53
		c0.98-1.12,1.8-2.1,2.46-2.93c0.66-0.83,1.11-1.38,1.35-1.65l0.83,0.67c-0.27,0.29-0.74,0.87-1.43,1.75
		c-0.69,0.87-1.54,1.88-2.56,3.01c-1.02,1.14-2.17,2.34-3.45,3.61c-1.28,1.27-2.64,2.43-4.06,3.49c-3.33,2.43-6.34,3.65-9.04,3.65
		c-2.38,0-4.03-0.59-4.96-1.78c-0.29-0.37-0.44-0.81-0.44-1.31c0-0.51,0.07-1.08,0.22-1.72c0.14-0.65,0.5-1.47,1.05-2.48
		c1.24-2.14,3-4.49,5.29-7.06c2.29-2.57,3.79-4.3,4.5-5.2c0.71-0.9,1.28-1.68,1.71-2.34c0.79-1.27,1.19-2.24,1.19-2.93
		c0-0.95-0.64-1.43-1.9-1.43c-2.62,0-6.94,2.96-12.97,8.88c-3.04,2.96-6.53,6.86-10.47,11.7L284.46,87.6z"/>
	<path class="st0" d="M344.8,64.52c-0.05-1.53-1.02-2.3-2.89-2.3c-3.84,0-8.79,3.99-14.87,11.97c-2.51,3.33-3.77,6.34-3.77,9.04
		c0,1.16,0.32,2.05,0.95,2.66c1.11,1.03,2.53,1.55,4.26,1.55c1.73,0,3.57-0.36,5.51-1.07c1.94-0.72,3.75-1.61,5.41-2.7
		c1.66-1.08,3.18-2.27,4.56-3.55c1.37-1.28,2.56-2.48,3.57-3.61c1.01-1.12,1.8-2.08,2.38-2.87c0.58-0.79,0.93-1.26,1.03-1.39
		l0.87,0.67l-1.07,1.43c-4.97,6.53-10.52,10.9-16.65,13.12c-2.06,0.74-4,1.11-5.83,1.11c-1.82,0-3.25-0.18-4.28-0.55
		c-1.03-0.37-1.89-0.87-2.58-1.51c-1.32-1.29-1.98-2.91-1.98-4.84c0-3.78,1.64-7.63,4.92-11.54c2.56-3.06,5.6-5.42,9.12-7.06
		c2.86-1.32,5.63-1.96,8.33-1.9c2.38,0.08,3.89,0.89,4.52,2.42c0.64,1.56,0.29,2.99-1.03,4.28c-0.87,0.9-1.72,1.35-2.54,1.35
		c-1.9,0-2.88-0.78-2.93-2.34c-0.03-0.74,0.26-1.35,0.85-1.84c0.6-0.49,1.18-0.76,1.76-0.81c0.85-0.05,1.64,0.09,2.38,0.44V64.52z"
		/>
	<path class="st0" d="M366.03,84.92c-1.68,1.07-3.49,1.95-5.43,2.63c-1.94,0.69-3.79,1.03-5.53,1.03c-1.75,0-3.07-0.18-3.98-0.53
		c-0.91-0.36-1.66-0.85-2.24-1.49c-2.48-2.7-2.47-6.67,0.04-11.93c1.08-2.32,2.72-4.45,4.92-6.36c2.19-1.92,4.12-3.35,5.79-4.3
		c3.23-1.85,6.25-2.78,9.08-2.78c2.8,0,4.27,0.87,4.4,2.62c0.19,2.83-3.25,5.91-10.31,9.24c-2.59,1.22-5.85,2.47-9.79,3.77
		c-1.56,2.54-2.34,4.61-2.34,6.2c0,1.6,0.42,2.74,1.25,3.41c0.83,0.67,2.05,1.01,3.65,1.01c1.6,0,3.33-0.34,5.2-1.03
		c1.86-0.69,3.61-1.56,5.23-2.62c1.63-1.06,3.1-2.21,4.42-3.45c1.32-1.24,2.49-2.43,3.51-3.57c1.02-1.14,1.85-2.12,2.5-2.95
		c0.65-0.83,1.09-1.35,1.33-1.57l0.83,0.67c-0.34,0.29-0.87,0.89-1.57,1.78c-0.7,0.9-1.59,1.92-2.66,3.07
		c-1.07,1.15-2.3,2.36-3.69,3.63C369.24,82.68,367.71,83.85,366.03,84.92 M353.88,75.42c7.98-2.8,13.12-5.59,15.42-8.37
		c0.77-0.92,1.15-1.82,1.15-2.69c0-1.48-0.69-2.22-2.06-2.22c-2.43,0-5.47,2.13-9.12,6.38C356.73,71.48,354.94,73.79,353.88,75.42"
		/>
	<path class="st0" d="M401.1,86.07c0,0.83,0.78,1.25,2.34,1.25c1.56,0,3.03-0.35,4.42-1.07c1.39-0.71,2.79-1.61,4.2-2.67
		c1.41-1.07,2.78-2.24,4.1-3.51l3.57-3.57c1.06-1.11,1.93-2.07,2.62-2.87c0.69-0.81,1.1-1.28,1.23-1.41l0.79,0.71
		c-0.27,0.26-0.76,0.83-1.49,1.68c-0.73,0.86-1.63,1.86-2.72,3.01c-1.08,1.15-2.3,2.36-3.65,3.63c-1.35,1.27-2.76,2.43-4.24,3.49
		c-3.41,2.46-6.4,3.69-8.96,3.69c-1.64,0-2.95-0.3-3.92-0.89c-0.98-0.59-1.47-1.27-1.47-2.04c0-0.77,0.08-1.45,0.24-2.06
		c0.16-0.61,0.45-1.34,0.87-2.18c0.42-0.84,1.01-1.84,1.76-2.97c0.75-1.14,1.73-2.5,2.93-4.09c1.2-1.58,2.66-3.42,4.38-5.51
		l6.11-7.22c0.32,0.08,0.96,0.12,1.94,0.12h1.86c0.69,0,1.24-0.02,1.67-0.08c-8.75,10.44-13.67,16.38-14.77,17.82
		c-1.09,1.44-1.91,2.57-2.44,3.39C401.56,84.12,401.1,85.24,401.1,86.07 M426.29,52.51c-0.38,0.34-0.81,0.61-1.29,0.81
		c-0.48,0.2-1.02,0.3-1.63,0.3c-0.61,0-1.13-0.23-1.57-0.69c-0.44-0.46-0.65-0.98-0.65-1.57c0-0.58,0.1-1.1,0.32-1.55
		c0.21-0.45,0.5-0.84,0.87-1.19c0.77-0.79,1.61-1.19,2.52-1.19c0.91,0,1.59,0.24,2.02,0.73c0.44,0.49,0.65,1.03,0.65,1.61
		c0,0.58-0.11,1.1-0.33,1.55C426.98,51.77,426.67,52.16,426.29,52.51"/>
	<path class="st0" d="M435.47,81.05c0.32,0.05,0.72,0.08,1.21,0.08c0.49,0,1.08-0.18,1.77-0.56c0.69-0.37,1.39-0.84,2.12-1.43
		c0.73-0.58,1.45-1.22,2.16-1.93c0.71-0.7,1.37-1.37,1.96-2.02c0.6-0.65,1.12-1.24,1.57-1.77l0.91-1.19l0.87,0.67
		c-0.32,0.32-0.72,0.75-1.23,1.31l-1.67,1.9c-3.67,3.97-6.58,5.95-8.72,5.95h-0.67c-0.21,0-0.42-0.03-0.63-0.08
		c-2.22,4.84-6.94,7.25-14.15,7.25c-3.15,0-5.43-0.75-6.86-2.26c-0.61-0.66-0.91-1.51-0.91-2.54c0-1.03,0.24-1.91,0.73-2.64
		c0.49-0.73,1.07-1.33,1.73-1.81c1.35-0.98,2.56-1.46,3.63-1.46c1.07,0,1.61,0.5,1.61,1.51c-0.08,0.69-0.66,1.2-1.75,1.55
		c-0.34,0.11-0.68,0.16-1.01,0.16c-0.33,0-0.65-0.11-0.95-0.33c-0.31-0.22-0.55-0.39-0.73-0.5c-0.16,0.16-0.36,0.34-0.61,0.56
		c-0.25,0.21-0.5,0.46-0.73,0.75c-0.58,0.71-0.87,1.45-0.87,2.2s0.25,1.35,0.75,1.8c0.5,0.45,1.1,0.79,1.78,1.03
		c1.03,0.37,2.11,0.56,3.23,0.56c1.12,0,2.29-0.24,3.49-0.71c1.2-0.47,2.38-1.27,3.55-2.38c3.19-3.04,4.93-7.55,5.19-13.52
		c0.16-4.02,0.65-7.16,1.46-9.44c0.03-0.08,0.04-0.2,0.04-0.35l-9.36,11.5c-0.53,0.63-1.04,1.13-1.55,1.51
		c-0.32,0.03-0.53-0.05-0.63-0.24c-0.05-0.13,0.07-0.38,0.36-0.75c6.82-8.14,10.65-12.76,11.5-13.88c0.42-2.06,1.11-3.09,2.06-3.09
		c0.45,0,0.83,0.12,1.13,0.36c0.3,0.24,0.46,0.54,0.46,0.91c-0.03,0.5-0.43,1.21-1.21,2.12c-0.78,0.91-1.26,1.49-1.43,1.75
		c-0.17,0.25-0.29,0.46-0.34,0.63c-0.05,0.17-0.08,0.34-0.08,0.5v0.47c-0.03,0.71,0.04,1.56,0.2,2.54l0.99,6.58
		C436.41,75.93,436.29,78.83,435.47,81.05"/>
	<path class="st0" d="M486.1,85.69c-4.17,1.82-8.74,2.73-13.72,2.73c-4.23,0-6.96-0.69-8.21-2.06c-0.34-0.4-0.51-0.85-0.51-1.35
		c0-0.5,0.21-1.01,0.63-1.51c0.42-0.5,1.03-0.93,1.82-1.27c1.59-0.74,3.91-1.11,6.96-1.11c3.05,0,7.2,0.92,12.43,2.78
		c3.75-2.46,8.35-7.4,13.8-14.83c-5.39-0.16-9.79-1.35-13.21-3.57c-3.33-2.19-4.99-5.02-4.99-8.48s1.58-6.66,4.76-9.59
		c3.23-2.99,6.83-4.48,10.83-4.48c0.58,0,0.87,0.16,0.87,0.48c0,0.24-0.73,0.43-2.18,0.58c-1.45,0.14-2.94,0.61-4.46,1.41
		c-1.52,0.79-2.79,1.76-3.79,2.89c-2.04,2.3-3.05,4.68-3.05,7.14c0,2.46,0.38,4.43,1.13,5.91c0.75,1.48,1.83,2.71,3.23,3.69
		c2.75,1.88,6.64,2.84,11.69,2.89l5.39-7.81c6.56-9.78,12.58-16.81,18.08-21.09c5.36-4.15,10.93-6.22,16.69-6.22
		c3.07,0,5.1,0.94,6.11,2.82c0.32,0.61,0.47,1.44,0.47,2.5c0,1.06-0.35,2.36-1.05,3.91c-0.7,1.55-1.68,3.12-2.93,4.74
		c-1.26,1.61-2.74,3.23-4.46,4.84c-1.72,1.61-3.6,3.17-5.63,4.68c-2.04,1.51-4.2,2.93-6.48,4.28c-2.29,1.35-4.62,2.57-7,3.69
		c-4.99,2.3-9.69,3.78-14.07,4.44c-5.82,7.77-11.59,13.15-17.33,16.14c4.81,1.72,10.56,2.58,17.25,2.58
		c5.92,0,10.24-1.36,12.97-4.08c0.39-0.4,0.65-0.48,0.75-0.24c0.18,0.42-0.02,0.92-0.59,1.51c-3.62,3.17-7.86,4.76-12.73,4.76
		C500.7,89.34,494.21,88.12,486.1,85.69 M472.86,83.15c-5.39,0-8.09,0.66-8.09,1.98c0,0.9,1.36,1.6,4.08,2.1
		c0.87,0.16,2.15,0.24,3.85,0.24c4.28,0,7.96-0.83,11.02-2.5C479.12,83.76,475.5,83.15,472.86,83.15 M506.2,67.41
		c5.55-0.95,11.43-3.22,17.64-6.82c5.71-3.28,10.51-7.08,14.39-11.42c3.99-4.41,5.99-8.35,5.99-11.81c0-1.53-0.84-2.64-2.54-3.33
		c-0.5-0.21-1.04-0.32-1.63-0.32c-8.4,0-16.61,6.58-24.62,19.75l-4.76,7.45C509.17,63.24,507.68,65.4,506.2,67.41"/>
	<path class="st0" d="M523.96,86.07c0,0.83,0.78,1.25,2.34,1.25c1.56,0,3.03-0.35,4.42-1.07c1.39-0.71,2.79-1.61,4.2-2.67
		c1.41-1.07,2.78-2.24,4.1-3.51l3.57-3.57c1.06-1.11,1.93-2.07,2.62-2.87c0.69-0.81,1.1-1.28,1.23-1.41l0.79,0.71
		c-0.27,0.26-0.76,0.83-1.49,1.68c-0.72,0.86-1.63,1.86-2.72,3.01c-1.08,1.15-2.3,2.36-3.65,3.63s-2.76,2.43-4.24,3.49
		c-3.41,2.46-6.39,3.69-8.96,3.69c-1.64,0-2.94-0.3-3.92-0.89c-0.98-0.59-1.47-1.27-1.47-2.04c0-0.77,0.08-1.45,0.24-2.06
		c0.16-0.61,0.45-1.34,0.87-2.18c0.42-0.84,1.01-1.84,1.76-2.97c0.75-1.14,1.73-2.5,2.93-4.09c1.2-1.58,2.66-3.42,4.38-5.51
		l6.11-7.22c0.32,0.08,0.96,0.12,1.94,0.12h1.87c0.69,0,1.24-0.02,1.66-0.08c-8.75,10.44-13.67,16.38-14.77,17.82
		c-1.1,1.44-1.91,2.57-2.44,3.39C524.42,84.12,523.96,85.24,523.96,86.07 M549.16,52.51c-0.38,0.34-0.81,0.61-1.29,0.81
		c-0.48,0.2-1.02,0.3-1.63,0.3c-0.61,0-1.13-0.23-1.57-0.69c-0.44-0.46-0.65-0.98-0.65-1.57c0-0.58,0.1-1.1,0.32-1.55
		c0.21-0.45,0.5-0.84,0.87-1.19c0.77-0.79,1.61-1.19,2.52-1.19c0.91,0,1.59,0.24,2.02,0.73c0.44,0.49,0.65,1.03,0.65,1.61
		c0,0.58-0.11,1.1-0.34,1.55C549.84,51.77,549.54,52.16,549.16,52.51"/>
	<path class="st0" d="M547.51,87.6c-0.61-0.13-1.37-0.2-2.3-0.2c-1.61,0-2.85,0.13-3.73,0.39l13.76-19.66
		c1.72-2.41,2.6-3.83,2.66-4.28c0.1-0.87-0.17-1.31-0.83-1.31c-0.98,0-3.41,2.42-7.3,7.25l-2.54,3.13
		c-0.21,0.11-0.43,0.05-0.65-0.18c-0.23-0.22-0.29-0.39-0.18-0.5c0.77-0.82,1.63-1.86,2.6-3.11c0.96-1.25,1.98-2.46,3.03-3.63
		c2.59-2.88,4.74-4.32,6.46-4.32c2.91,0,3.83,1.49,2.77,4.48c-0.21,0.63-0.67,1.45-1.39,2.46l-8.33,11.58l0.2,0.44
		c7.11-8.22,12.33-13.53,15.66-15.94c2.64-2.01,5.09-3.01,7.33-3.01c1.53,0,2.75,0.42,3.65,1.27c0.71,0.71,1.05,1.46,1.01,2.26
		c-0.04,0.79-0.09,1.39-0.16,1.8c-0.07,0.41-0.17,0.82-0.3,1.25c-0.32,0.87-0.87,1.93-1.66,3.17c5.65-5.76,9.94-8.95,12.84-9.55
		c0.58-0.13,1.22-0.2,1.93-0.2c0.7,0,1.34,0.12,1.94,0.36c0.59,0.24,1.08,0.54,1.45,0.91c0.68,0.69,1.02,1.51,1.01,2.48
		c-0.01,0.96-0.2,1.95-0.56,2.95c-0.35,1-0.96,2.19-1.8,3.57c-1.77,2.83-4.76,6.52-8.96,11.06c-1.74,1.82-2.66,2.89-2.73,3.19
		c-0.08,0.3-0.12,0.53-0.12,0.69L582,86.45c0,0.63,0.75,0.95,2.26,0.95c1.51,0,2.89-0.34,4.14-1.01c1.26-0.67,2.53-1.53,3.83-2.57
		c1.29-1.04,2.56-2.19,3.79-3.43c1.23-1.24,2.35-2.42,3.35-3.53l2.54-2.93c0.69-0.84,1.15-1.4,1.39-1.67l0.84,0.67
		c-0.27,0.27-0.76,0.84-1.49,1.72c-0.72,0.89-1.61,1.91-2.65,3.07c-1.05,1.16-2.22,2.38-3.51,3.65c-1.3,1.27-2.63,2.44-4,3.49
		c-3.2,2.46-5.88,3.68-8.05,3.68c-2.3,0-3.92-0.6-4.88-1.82c-0.29-0.37-0.44-0.81-0.44-1.31s0.09-1.08,0.26-1.75
		c0.17-0.66,0.56-1.49,1.17-2.5c1.22-2.06,2.99-4.4,5.31-7.02c2.32-2.62,3.84-4.37,4.54-5.27c0.7-0.9,1.27-1.68,1.72-2.34
		c0.82-1.29,1.23-2.27,1.23-2.93c0-0.95-0.67-1.43-2.02-1.43c-2.64,0-7.21,3.3-13.72,9.91c-2.78,2.8-5.87,6.36-9.28,10.66
		l-3.68,4.84c-0.61-0.13-1.38-0.2-2.3-0.2c-1.51,0-2.75,0.13-3.73,0.39c3.91-4.78,6.07-7.42,6.46-7.93
		c5.95-7.85,9.24-12.29,9.87-13.32c0.87-1.51,1.31-2.55,1.31-3.13c0-0.82-0.65-1.23-1.94-1.23c-1.72,0-3.73,0.93-6.02,2.78
		c-4.84,3.86-10.53,9.79-17.09,17.8L547.51,87.6z"/>
	<path class="st0" d="M598.81,86.07c0,0.83,0.78,1.25,2.34,1.25c1.56,0,3.03-0.35,4.42-1.07c1.39-0.71,2.79-1.61,4.2-2.67
		c1.41-1.07,2.78-2.24,4.1-3.51l3.57-3.57c1.06-1.11,1.93-2.07,2.62-2.87c0.69-0.81,1.1-1.28,1.23-1.41l0.79,0.71
		c-0.27,0.26-0.76,0.83-1.49,1.68c-0.72,0.86-1.63,1.86-2.72,3.01c-1.08,1.15-2.3,2.36-3.65,3.63c-1.35,1.27-2.76,2.43-4.24,3.49
		c-3.41,2.46-6.39,3.69-8.96,3.69c-1.64,0-2.95-0.3-3.92-0.89c-0.98-0.59-1.47-1.27-1.47-2.04c0-0.77,0.08-1.45,0.24-2.06
		c0.16-0.61,0.45-1.34,0.87-2.18c0.42-0.84,1.01-1.84,1.76-2.97c0.75-1.14,1.73-2.5,2.93-4.09c1.2-1.58,2.66-3.42,4.38-5.51
		l6.11-7.22c0.32,0.08,0.96,0.12,1.94,0.12h1.87c0.69,0,1.24-0.02,1.67-0.08c-8.75,10.44-13.67,16.38-14.77,17.82
		c-1.1,1.44-1.91,2.57-2.44,3.39C599.27,84.12,598.81,85.24,598.81,86.07 M624.01,52.51c-0.38,0.34-0.81,0.61-1.29,0.81
		c-0.48,0.2-1.02,0.3-1.63,0.3c-0.61,0-1.13-0.23-1.57-0.69c-0.44-0.46-0.65-0.98-0.65-1.57c0-0.58,0.1-1.1,0.32-1.55
		c0.21-0.45,0.5-0.84,0.87-1.19c0.77-0.79,1.61-1.19,2.52-1.19c0.91,0,1.59,0.24,2.02,0.73c0.44,0.49,0.65,1.03,0.65,1.61
		c0,0.58-0.11,1.1-0.33,1.55C624.69,51.77,624.39,52.16,624.01,52.51"/>
	<path class="st0" d="M617.01,86.05c0,0.79,0.64,1.2,1.9,1.23c1.27,0.03,2.55-0.25,3.83-0.83c1.28-0.58,2.56-1.32,3.83-2.22
		c1.27-0.9,2.5-1.91,3.69-3.03c1.19-1.13,2.3-2.24,3.33-3.35c1.03-1.11,1.96-2.16,2.78-3.13l2.06-2.46l0.87,0.67l-2.06,2.38
		c-7.37,8.75-13.57,13.12-18.59,13.12c-1.45,0-2.55-0.29-3.27-0.87c-0.73-0.58-1.09-1.21-1.09-1.9c0-0.69,0.03-1.26,0.1-1.7
		c0.07-0.45,0.21-0.95,0.42-1.49c0.21-0.54,0.52-1.18,0.93-1.92c0.41-0.74,0.96-1.64,1.65-2.7l6.18-8.92l10.23-14.39h-3.13
		c-0.79,0-1.19-0.19-1.19-0.57c0-0.39,0.51-0.58,1.51-0.58h3.61l7.33-10.31c1.85,0.29,3.69,0.29,5.51,0l-7.66,10.31h10.23
		c0.74,0,1.11,0.19,1.11,0.58c0,0.38-0.33,0.57-0.99,0.57h-11.22l-16.41,22.32c-2.83,3.99-4.45,6.45-4.86,7.37
		C617.21,85.15,617.01,85.76,617.01,86.05"/>
	<path class="st0" d="M634.29,86.01c0,0.87,0.64,1.31,1.9,1.31c1.27,0,2.62-0.34,4.06-1.01c1.44-0.67,2.87-1.53,4.28-2.56
		c1.41-1.03,2.78-2.16,4.1-3.39c1.32-1.23,2.52-2.4,3.61-3.51l2.73-2.93c0.74-0.84,1.25-1.4,1.51-1.66l0.79,0.67
		c-0.29,0.29-0.83,0.87-1.61,1.75c-0.78,0.87-1.73,1.88-2.86,3.01c-1.12,1.13-2.38,2.34-3.77,3.61c-1.39,1.27-2.83,2.43-4.34,3.49
		c-3.52,2.43-6.59,3.65-9.24,3.65c-1.11,0-2.03-0.3-2.76-0.91c-0.73-0.6-1.09-1.26-1.09-1.96c0-0.7,0.04-1.26,0.1-1.68
		c0.07-0.42,0.21-0.91,0.42-1.45c0.21-0.54,0.52-1.18,0.91-1.9c0.4-0.73,0.92-1.61,1.58-2.64l6.07-8.96l30.65-43.81
		c1.9,0.26,3.74,0.26,5.51,0c-25.21,35.05-38.27,53.24-39.17,54.57c-0.9,1.33-1.56,2.34-1.98,3.01s-0.74,1.22-0.95,1.64
		C634.45,84.98,634.29,85.53,634.29,86.01"/>
	<path class="st0" d="M671.54,84.92c-1.68,1.07-3.49,1.95-5.43,2.63c-1.94,0.69-3.79,1.03-5.53,1.03c-1.74,0-3.07-0.18-3.98-0.53
		c-0.91-0.36-1.66-0.85-2.24-1.49c-2.48-2.7-2.47-6.67,0.04-11.93c1.08-2.32,2.72-4.45,4.92-6.36c2.19-1.92,4.12-3.35,5.78-4.3
		c3.23-1.85,6.25-2.78,9.08-2.78c2.8,0,4.27,0.87,4.4,2.62c0.18,2.83-3.25,5.91-10.31,9.24c-2.59,1.22-5.85,2.47-9.79,3.77
		c-1.56,2.54-2.34,4.61-2.34,6.2c0,1.6,0.42,2.74,1.25,3.41c0.83,0.67,2.05,1.01,3.65,1.01c1.6,0,3.33-0.34,5.19-1.03
		c1.87-0.69,3.61-1.56,5.23-2.62c1.63-1.06,3.1-2.21,4.42-3.45c1.32-1.24,2.49-2.43,3.51-3.57c1.02-1.14,1.85-2.12,2.5-2.95
		c0.65-0.83,1.09-1.35,1.33-1.57l0.83,0.67c-0.34,0.29-0.87,0.89-1.57,1.78c-0.7,0.9-1.59,1.92-2.66,3.07
		c-1.07,1.15-2.3,2.36-3.69,3.63C674.75,82.68,673.22,83.85,671.54,84.92 M659.39,75.42c7.98-2.8,13.12-5.59,15.42-8.37
		c0.77-0.92,1.15-1.82,1.15-2.69c0-1.48-0.69-2.22-2.06-2.22c-2.43,0-5.47,2.13-9.12,6.38C662.25,71.48,660.45,73.79,659.39,75.42"
		/>
	<path class="st0" d="M695.15,81.05c0.32,0.05,0.72,0.08,1.21,0.08c0.49,0,1.07-0.18,1.76-0.56c0.69-0.37,1.39-0.84,2.12-1.43
		c0.72-0.58,1.45-1.22,2.16-1.93c0.71-0.7,1.37-1.37,1.96-2.02c0.59-0.65,1.12-1.24,1.57-1.77l0.91-1.19l0.87,0.67
		c-0.32,0.32-0.73,0.75-1.23,1.31l-1.67,1.9c-3.67,3.97-6.58,5.95-8.72,5.95h-0.67c-0.21,0-0.42-0.03-0.63-0.08
		c-2.22,4.84-6.94,7.25-14.15,7.25c-3.15,0-5.43-0.75-6.86-2.26c-0.61-0.66-0.91-1.51-0.91-2.54c0-1.03,0.24-1.91,0.73-2.64
		c0.49-0.73,1.07-1.33,1.73-1.81c1.35-0.98,2.56-1.46,3.63-1.46c1.07,0,1.61,0.5,1.61,1.51c-0.08,0.69-0.66,1.2-1.75,1.55
		c-0.34,0.11-0.68,0.16-1.01,0.16c-0.33,0-0.65-0.11-0.95-0.33c-0.3-0.22-0.55-0.39-0.73-0.5c-0.16,0.16-0.36,0.34-0.61,0.56
		c-0.25,0.21-0.5,0.46-0.73,0.75c-0.58,0.71-0.87,1.45-0.87,2.2s0.25,1.35,0.75,1.8c0.5,0.45,1.1,0.79,1.78,1.03
		c1.03,0.37,2.11,0.56,3.23,0.56c1.12,0,2.29-0.24,3.49-0.71c1.2-0.47,2.39-1.27,3.55-2.38c3.19-3.04,4.93-7.55,5.19-13.52
		c0.16-4.02,0.65-7.16,1.46-9.44c0.03-0.08,0.04-0.2,0.04-0.35l-9.36,11.5c-0.53,0.63-1.04,1.13-1.55,1.51
		c-0.32,0.03-0.53-0.05-0.63-0.24c-0.05-0.13,0.07-0.38,0.36-0.75c6.82-8.14,10.65-12.76,11.5-13.88c0.42-2.06,1.11-3.09,2.06-3.09
		c0.45,0,0.83,0.12,1.13,0.36c0.3,0.24,0.46,0.54,0.46,0.91c-0.03,0.5-0.43,1.21-1.21,2.12c-0.78,0.91-1.26,1.49-1.43,1.75
		c-0.17,0.25-0.29,0.46-0.34,0.63c-0.05,0.17-0.08,0.34-0.08,0.5v0.47c-0.03,0.71,0.04,1.56,0.2,2.54l0.99,6.58
		C696.09,75.93,695.97,78.83,695.15,81.05"/>
	<path class="st0" d="M718.78,81.05c0.32,0.05,0.72,0.08,1.21,0.08c0.49,0,1.07-0.18,1.76-0.56c0.69-0.37,1.39-0.84,2.12-1.43
		c0.72-0.58,1.45-1.22,2.16-1.93c0.71-0.7,1.37-1.37,1.96-2.02c0.59-0.65,1.12-1.24,1.57-1.77l0.91-1.19l0.87,0.67
		c-0.32,0.32-0.73,0.75-1.23,1.31l-1.67,1.9c-3.67,3.97-6.58,5.95-8.72,5.95h-0.67c-0.21,0-0.42-0.03-0.63-0.08
		c-2.22,4.84-6.94,7.25-14.15,7.25c-3.15,0-5.43-0.75-6.86-2.26c-0.61-0.66-0.91-1.51-0.91-2.54c0-1.03,0.24-1.91,0.73-2.64
		c0.49-0.73,1.07-1.33,1.73-1.81c1.35-0.98,2.56-1.46,3.63-1.46c1.07,0,1.61,0.5,1.61,1.51c-0.08,0.69-0.66,1.2-1.75,1.55
		c-0.34,0.11-0.68,0.16-1.01,0.16c-0.33,0-0.65-0.11-0.95-0.33c-0.3-0.22-0.55-0.39-0.73-0.5c-0.16,0.16-0.36,0.34-0.61,0.56
		c-0.25,0.21-0.5,0.46-0.73,0.75c-0.58,0.71-0.87,1.45-0.87,2.2s0.25,1.35,0.75,1.8c0.5,0.45,1.1,0.79,1.78,1.03
		c1.03,0.37,2.11,0.56,3.23,0.56s2.29-0.24,3.49-0.71c1.2-0.47,2.39-1.27,3.55-2.38c3.19-3.04,4.93-7.55,5.19-13.52
		c0.16-4.02,0.65-7.16,1.46-9.44c0.03-0.08,0.04-0.2,0.04-0.35l-9.36,11.5c-0.53,0.63-1.04,1.13-1.55,1.51
		c-0.32,0.03-0.53-0.05-0.63-0.24c-0.05-0.13,0.07-0.38,0.36-0.75c6.82-8.14,10.65-12.76,11.5-13.88c0.42-2.06,1.11-3.09,2.06-3.09
		c0.45,0,0.83,0.12,1.13,0.36c0.3,0.24,0.46,0.54,0.46,0.91c-0.03,0.5-0.43,1.21-1.21,2.12c-0.78,0.91-1.26,1.49-1.43,1.75
		c-0.17,0.25-0.29,0.46-0.34,0.63c-0.05,0.17-0.08,0.34-0.08,0.5v0.47c-0.03,0.71,0.04,1.56,0.2,2.54l0.99,6.58
		C719.72,75.93,719.6,78.83,718.78,81.05"/>
	
		<rect x="40.49" y="57.79" transform="matrix(0.7071 -0.7071 0.7071 0.7071 -30.904 50.1485)" class="st0" width="9.18" height="9.18"/>
	
		<rect x="53.47" y="57.79" transform="matrix(0.7071 -0.7071 0.7071 0.7071 -27.1023 59.3266)" class="st0" width="9.18" height="9.18"/>
	
		<rect x="753.13" y="57.79" transform="matrix(0.7073 -0.707 0.707 0.7073 177.7225 553.9423)" class="st0" width="9.18" height="9.18"/>
	
		<rect x="766.11" y="57.79" transform="matrix(0.7073 -0.707 0.707 0.7073 181.5224 563.1187)" class="st0" width="9.18" height="9.18"/>
</g>
</svg>
