<?xml version="1.0" encoding="utf-8"?>
<!-- Generator: Adobe Illustrator 24.3.0, SVG Export Plug-In . SVG Version: 6.00 Build 0)  -->
<svg version="1.1" id="Layer_1" xmlns="http://www.w3.org/2000/svg" xmlns:xlink="http://www.w3.org/1999/xlink" x="0px" y="0px"
	 viewBox="0 0 513.2 303.9" style="enable-background:new 0 0 513.2 303.9;" xml:space="preserve">
<style type="text/css">
	.st0{fill:#856D47;enable-background:new    ;}
</style>
<path class="st0" d="M340.6,53.5V41.7c0.1-3.8,0.5-7.6,1.1-11.3l0.4-2.2l-2.2,0.4c-4.7,0.8-9.4,1.2-14.1,1.2l0,0h-13.4V16.4
	c0-4.7,0.4-9.4,1.2-14.1l0.4-2.2l-2.2,0.4c-3.4,0.6-6.9,0.9-10.3,1.1h-10c-4.7,0-9.5-0.4-14.1-1.2L275.2,0l0.4,2.2
	c0.8,4.7,1.2,9.4,1.2,14.1v6.2c0,4.7-0.4,9.4-1.2,14.1l-0.4,2.2l2.2-0.4c4.7-0.8,9.4-1.2,14.1-1.2h15.1l-10.8,4.3
	c-0.6,0.2-1.2,0.6-1.7,1.1l-1.2,1.2l-0.9-0.9l-0.9-0.9c-0.5-0.5-1.3-0.5-1.8,0l-1.5,1.5c-1,0.9-2,1.8-3.1,2.6l-0.5,0.4l0.5,0.4
	c1,0.7,1.9,1.5,2.8,2.3l-10.9,10.9l-9.8-9.8h0.2c-3.3-3.3-6.4-7-9.1-10.8l-1.3-1.8l-1.3,1.8c-2.7,3.9-5.8,7.5-9.1,10.8l-9.7,9.7
	l-5.5-5.4c-1-0.9-2.2-1.5-3.6-1.5h-5.8l1.3-1.3l2.4-2.4c0.9-0.9,2-1.8,3.1-2.6l0.5-0.4l-0.5-0.4c-1.1-0.8-2.1-1.6-3.1-2.6l-1.5-1.5
	c-0.5-0.5-1.3-0.5-1.8,0l-1.8,1.8l-6.6-6.6h8.1c4.7,0,9.5,0.4,14.1,1.2l2.2,0.4l-0.4-2.2c-0.8-4.7-1.2-9.4-1.2-14.1v-6.2
	c0-4.7,0.4-9.5,1.2-14.1L238,0l-2.2,0.4c-4.7,0.8-9.4,1.2-14.1,1.2h-10c-3.5-0.2-6.9-0.5-10.3-1.1l-2.2-0.4l0.4,2.2
	c0.8,4.7,1.2,9.4,1.2,14.1v13.3h-13.4l0,0c-4.7,0-9.4-0.4-14.1-1.2l-2.2-0.4l0.4,2.2c0.6,3.7,1,7.5,1.1,11.3v11.8
	c-0.1,3.8-0.5,7.6-1.1,11.3l-0.4,2.2l2.2-0.4c4.7-0.8,9.4-1.2,14.1-1.2h10c3.5,0.2,6.9,0.5,10.3,1.1l2.2,0.4l-0.7-4.1
	c-0.6-3.8-0.7-7.6-0.9-11.4c0-0.6-0.1-1.1-0.3-1.6l-4.7-12.1l11.6,11.6l-1.8,1.8c-0.5,0.5-0.5,1.3,0,1.8l1.5,1.5
	c0.9,0.9,1.8,2,2.6,3.1l0.4,0.5l0.4-0.5c0.7-1,1.5-1.9,2.3-2.8l10.9,10.9l-9.3,9.3c-3.4,3.3-7,6.4-10.8,9.1l-1.8,1.3l1.8,1.3
	c2.8,2,5.5,4.2,8.1,6.5l12.4,12.4L224,113l-3.4,3.4l-29,28.9l0,0l-11,11c-0.5,0.5-0.5,1.3,0,1.8l0.1,0.1c1.4,1.4,2.7,2.9,3.8,4.6
	l0.6,0.8l0.6-0.8c1.1-1.6,2.4-3.1,3.8-4.6l2.1-2.1l10.3,10.3c1.1,1.1,2.2,2.4,3.1,3.7l0.4,0.6l0.4-0.6c0.9-1.3,2-2.5,3.1-3.7l0,0
	l0,0c0.5-0.5,0.5-1.3,0-1.8l-8-8h8.5l3.1-3.1V145l8,8c0.5,0.5,1.3,0.5,1.8,0l0,0c1.1-1.1,2.4-2.2,3.7-3.1l0.6-0.4l-0.6-0.4
	c-1.3-0.9-2.5-2-3.7-3.1L212,135.7l0,0l-2.7-2.7h5.3c8.4-8.4,16.8-16.8,16.8-16.8c0.9-0.9,1.5-2.2,1.5-3.6v-5.8l13.2,13.2
	c3.3,3.3,6.4,7,9.1,10.8l1.3,1.8l1.3-1.8c2.7-3.9,5.8-7.5,9.1-10.8l3.9-3.9c1-0.9,1.5-2.2,1.5-3.6v-5.8l11.6,11.6l11.3,11.3l6,6
	L291,145.9c-1.1,1.1-2.4,2.2-3.7,3.1l-0.6,0.4l0.6,0.4c1.3,0.9,2.5,2,3.7,3.1l0,0c0.5,0.5,1.3,0.5,1.8,0l8-8v8.5l3.1,3.1h8.5l-8,8
	c-0.5,0.5-0.5,1.3,0,1.8l0,0c1.1,1.1,2.2,2.4,3.1,3.7l0.4,0.6l0.4-0.6c0.9-1.3,2-2.6,3.1-3.7l10.3-10.3l2.7-2.7v5.4
	c1.2,1.2,2.2,2.5,3.2,3.9l0.5,0.8l0.5-0.8c1.2-1.6,2.4-3.1,3.8-4.6l0.1-0.1c0.5-0.5,0.5-1.3,0-1.8l-43.3-43.3l-7.7-7.7l9.6-9.6
	c3.3-3.3,7-6.4,10.8-9.1l1.8-1.3l-1.8-1.3c-3.9-2.7-7.5-5.8-10.8-9.1l-9.3-9.3l5.5-5.5c0.9-0.9,1.5-2.2,1.5-3.6v-5.8l3.7,3.7
	c1,0.9,1.8,2,2.6,3.1l0.4,0.5l0.4-0.5c0.8-1.1,1.6-2.1,2.6-3.1l1.5-1.5c0.5-0.5,0.5-1.3,0-1.8l-1.8-1.8l6.6-6.6v8
	c0,4.7-0.4,9.4-1.2,14.1l-0.4,2.2l2.2-0.4c3.4-0.6,6.8-0.9,10.3-1.1h10c4.7,0,9.5,0.4,14.1,1.2l2.2,0.4l-0.4-2.2
	C341.1,61.1,340.8,57.3,340.6,53.5 M304.9,29.1c0,0.3-0.3,0.6-0.6,0.6H285c-0.4,0-0.6-0.3-0.6-0.6V9.7c0-0.3,0.3-0.6,0.6-0.6h19.3
	c0.4,0,0.6,0.3,0.6,0.6V29.1L304.9,29.1z M200.1,57.9h-19.4c-0.4,0-0.6-0.3-0.6-0.6V37.9c0-0.3,0.3-0.6,0.6-0.6h19.4
	c0.4,0,0.6,0.3,0.6,0.6v19.3C200.7,57.6,200.5,57.9,200.1,57.9 M208.3,29.1V9.7c0-0.3,0.3-0.6,0.6-0.6h19.4c0.4,0,0.6,0.3,0.6,0.6
	v19.4c0,0.3-0.3,0.6-0.6,0.6h-19.4C208.6,29.7,208.3,29.4,208.3,29.1 M197.2,150.3h-4.9l13.8-8.9v8.9H197.2L197.2,150.3z
	 M307.1,150.3v-8.9v-4.9l8.9,13.8L307.1,150.3L307.1,150.3z M256.1,51.2c0.2-0.2,0.6-0.2,0.9,0l14.3,14.3l-14.7,14.7l-14.8-14.8
	L256.1,51.2z M222.5,85.7c-0.2-0.2-0.2-0.6,0-0.9l8.6-8.6c0.9-0.9,1.5-2.2,1.5-3.6v-5.8l18.7,18.7L236.8,100L222.5,85.7z M257,119.3
	c-0.2,0.2-0.6,0.2-0.9,0l-13.9-13.9l0.1-0.1L260.6,87v5.8c0,1.3,0.5,2.6,1.5,3.6l8.9,8.9L257,119.3z M290.6,84.8
	c0.2,0.2,0.2,0.6,0,0.9L276.3,100L262,85.6l9.3-9.3c0.9-0.9,1.5-2.2,1.5-3.6v-5.8l4,3.9L278,72l1.6,1.6L290.6,84.8z M333.1,57.2
	c0,0.3-0.3,0.6-0.6,0.6h-19.4c-0.3,0-0.6-0.3-0.6-0.6V37.9c0-0.3,0.3-0.6,0.6-0.6h19.4c0.3,0,0.6,0.3,0.6,0.6V57.2z"/>
<path class="st0" d="M28.3,243.8l15.4-34.6h12.9v1.4H55c-2.1,0-3.4,0.2-4.1,0.5c-0.6,0.3-1.1,1-1.3,1.9s-0.3,3.1-0.3,6.6v20.5
	c0,3.3,0.1,5.4,0.2,6.5c0.2,1,0.6,1.8,1.3,2.3s2,0.7,3.9,0.7h1.9v1.4H36.4v-1.4h1.5c1.8,0,3-0.2,3.7-0.7s1.1-1.2,1.3-2.1
	c0.2-1,0.3-3.2,0.3-6.7v-26.6L26.6,251h-1.5L8.3,213.5V238c0,3.3,0.1,5.6,0.3,6.8s0.8,2.3,1.9,3.2s2.6,1.4,4.5,1.5v1.4H0v-1.4
	c1.8-0.1,3.3-0.6,4.4-1.5s1.8-1.9,2.1-3.2c0.2-1.3,0.4-3.6,0.4-7.1v-18.2c0-3.3-0.1-5.5-0.3-6.4s-0.6-1.6-1.2-2s-2-0.6-4.1-0.6H0
	v-1.4h12.8L28.3,243.8z"/>
<path class="st0" d="M109.7,235.6h-16l-1.1,2.6c-1.6,3.8-2.4,6.4-2.4,7.5c0,1.2,0.4,2.2,1.3,2.9c0.9,0.6,2,1,3.3,1v1.4H82.3v-1.4
	c1.9-0.3,3.2-0.9,4.2-2s2-3.2,3.3-6.4c0.1-0.3,0.6-1.5,1.5-3.6l12.2-29h1.2l14.1,33.2l1.9,4.4c0.4,1,1,1.8,1.8,2.3
	c0.7,0.6,1.8,0.9,3.3,1.1v1.4h-16.6v-1.4c2,0,3.4-0.1,4.1-0.5c0.7-0.3,1.1-0.9,1.1-1.8c0-0.5-0.5-1.8-1.4-4L109.7,235.6z
	 M109.2,234.2l-7.5-17.8l-7.4,17.8H109.2z"/>
<path class="st0" d="M190.2,252l-29.8-39.2v29c0,2.4,0.1,4,0.4,4.8c0.2,0.8,0.9,1.5,2,2.1s2.8,1,5,1v1.4h-15.7v-1.4
	c2-0.1,3.5-0.5,4.6-1.1s1.7-1.2,1.9-1.9s0.3-2.3,0.3-4.8v-22.2c0-3.2-0.1-5.4-0.4-6.4s-0.8-1.8-1.4-2.1c-0.6-0.3-2.1-0.5-4.4-0.5
	v-1.4H165l24.9,32.7v-25c0-1.9-0.2-3.1-0.6-3.9s-1.2-1.3-2.4-1.8c-1.2-0.4-2.6-0.6-4.2-0.6v-1.4H198v1.4c-1.8,0.1-3.2,0.5-4.2,1
	s-1.7,1.2-2,1.9c-0.3,0.8-0.4,2-0.4,3.8V252H190.2L190.2,252z"/>
<path class="st0" d="M228,250.6v-13.4h1.5c1.8,8.8,5.9,13.1,12.5,13.1c3,0,5.3-0.8,6.9-2.5c1.6-1.7,2.4-3.5,2.4-5.6
	s-0.7-3.9-2.1-5.3c-1.4-1.4-4-2.9-7.8-4.5c-3.4-1.4-5.9-2.7-7.6-3.8s-3.1-2.5-4-4.2c-1-1.7-1.4-3.6-1.4-5.5c0-3,1-5.5,3.1-7.4
	c2.1-2,4.7-3,7.9-3c1.8,0,3.5,0.3,5,0.9c1.6,0.6,3.2,1.8,4.8,3.6c1-1.1,1.5-2.4,1.6-3.7h1.4v10.9h-1.4c-0.8-3.2-2.2-5.7-4.2-7.5
	s-4.3-2.7-6.9-2.7c-2.5,0-4.3,0.7-5.5,2c-1.2,1.4-1.8,2.8-1.8,4.4c0,1.9,0.7,3.6,2.2,4.9c1.5,1.4,4.1,2.9,7.9,4.6
	c3.6,1.6,6.3,2.9,7.9,3.9c1.6,1,3,2.3,4,4s1.5,3.7,1.5,6c0,3.6-1.2,6.5-3.6,8.7c-2.4,2.2-5.6,3.4-9.6,3.4c-4.6,0-8.5-1.8-11.5-5.3
	c-0.7,1-1.2,2.3-1.5,4.1L228,250.6L228,250.6z"/>
<path class="st0" d="M286.1,210.6v-1.4h19.3v1.4h-0.9c-2.1,0-3.4,0.2-4.1,0.5s-1.1,1-1.3,1.9c-0.2,0.9-0.3,3.1-0.3,6.6v20.5
	c0,3.3,0.1,5.4,0.2,6.5c0.1,1,0.6,1.8,1.2,2.3c0.7,0.5,2,0.7,3.9,0.7h1.2v1.4H286v-1.4h1.2c1.8,0,3-0.2,3.7-0.7s1.1-1.2,1.3-2.1
	c0.2-1,0.3-3.2,0.3-6.7v-20.5c0-3.3-0.1-5.5-0.3-6.4s-0.6-1.6-1.2-2s-2-0.6-4.2-0.6H286.1L286.1,210.6z"/>
<path class="st0" d="M335.9,229.8c0-6.4,2.2-11.6,6.5-15.5s9.8-5.9,16.3-5.9c6.6,0,12,1.9,16.4,5.8c4.4,3.9,6.6,9.1,6.6,15.8
	c0,6.5-2.1,11.7-6.3,15.7c-4.2,4-9.8,6-16.6,6c-6.7,0-12.2-2-16.5-6C338,241.8,335.9,236.4,335.9,229.8 M343,230.1
	c0,6.7,1.4,11.8,4,15.1c2.7,3.4,6.8,5,12.2,5c4.8,0,8.5-1.7,11.2-5s4.1-8.4,4.1-15.1c0-6.5-1.4-11.5-4.1-14.9
	c-2.7-3.5-6.7-5.2-11.8-5.2c-5.1,0-9,1.7-11.7,5.1C344.3,218.4,343,223.4,343,230.1"/>
<path class="st0" d="M448.6,252l-29.8-39.2v29c0,2.4,0.1,4,0.4,4.8c0.2,0.8,0.9,1.5,2,2.1s2.8,1,5,1v1.4h-15.7v-1.4
	c2-0.1,3.5-0.5,4.6-1.1c1-0.6,1.7-1.2,1.9-1.9c0.2-0.7,0.3-2.3,0.3-4.8v-22.2c0-3.2-0.2-5.4-0.5-6.4s-0.8-1.8-1.4-2.1
	c-0.7-0.3-2.1-0.5-4.4-0.5v-1.4h12.4l24.9,32.7v-25c0-1.9-0.2-3.1-0.6-3.9s-1.2-1.3-2.3-1.8c-1.2-0.4-2.6-0.6-4.2-0.6v-1.4h15.3v1.4
	c-1.8,0.1-3.2,0.5-4.2,1s-1.7,1.2-2,1.9c-0.3,0.8-0.4,2-0.4,3.8V252H448.6L448.6,252z"/>
<path class="st0" d="M485.3,250.6v-13.4h1.6c1.8,8.8,5.9,13.1,12.5,13.1c3,0,5.3-0.8,6.9-2.5s2.4-3.5,2.4-5.6s-0.7-3.9-2.1-5.3
	c-1.4-1.4-4-2.9-7.8-4.5c-3.4-1.4-5.9-2.7-7.6-3.8s-3.1-2.5-4-4.2s-1.5-3.6-1.5-5.5c0-3,1-5.5,3.1-7.4s4.7-3,7.9-3
	c1.8,0,3.5,0.3,5,0.9c1.6,0.6,3.2,1.8,4.8,3.6c1-1.1,1.5-2.4,1.6-3.7h1.4v10.9h-1.4c-0.8-3.2-2.2-5.7-4.2-7.5s-4.3-2.7-7-2.7
	c-2.5,0-4.3,0.7-5.5,2c-1.2,1.4-1.8,2.8-1.8,4.4c0,1.9,0.7,3.6,2.2,4.9c1.5,1.4,4.1,2.9,7.9,4.6c3.6,1.6,6.3,2.9,7.9,3.9s3,2.3,4,4
	s1.5,3.7,1.5,6c0,3.6-1.2,6.5-3.6,8.7s-5.6,3.4-9.6,3.4c-4.6,0-8.5-1.8-11.5-5.3c-0.7,1-1.2,2.3-1.5,4.1L485.3,250.6L485.3,250.6z"
	/>
<path class="st0" d="M101.2,295.4h0.7v7.5h-0.7c-0.2-0.9-0.5-1.6-1-2.3c-1.9,2.1-4.3,3.2-7.3,3.2c-3.1,0-5.7-1-7.7-2.9
	c-2-2-3-4.5-3-7.8c0-2.1,0.5-4.1,1.4-6s2.2-3.2,3.8-4.2c1.6-0.9,3.4-1.4,5.4-1.4c1.6,0,3.1,0.3,4.4,1c1.3,0.6,2.3,1.4,2.9,2.2
	c0.4-0.9,0.7-1.8,0.8-2.8h0.7l0.2,8.1h-0.7c-0.5-2.9-1.4-4.9-2.9-6s-3.1-1.7-5-1.7c-2.3,0-4.1,0.9-5.4,2.7c-1.3,1.8-2,4.4-2,7.8
	c0,3.2,0.7,5.7,2.2,7.4c1.5,1.7,3.3,2.6,5.4,2.6c1.2,0,2.3-0.3,3.6-0.8c1.2-0.6,2.2-1.5,2.9-2.8
	C100.7,297.9,101.1,296.7,101.2,295.4"/>
<path class="st0" d="M161.9,303.5h-5.8c-1-0.7-2.6-2.6-4.7-5.6c-0.7-1-1.4-1.9-2.1-2.8c-0.7-0.9-1.2-1.4-1.5-1.6s-0.7-0.3-1.3-0.3
	h-0.9v4.8c0,1.7,0,2.8,0.1,3.3s0.3,0.9,0.6,1.2c0.4,0.2,1,0.4,2,0.4h1v0.7H139v-0.7h0.7c0.9,0,1.6-0.1,1.9-0.4
	c0.4-0.2,0.6-0.6,0.7-1.1c0.1-0.5,0.1-1.6,0.1-3.4v-10.5c0-1.7-0.1-2.8-0.1-3.3c-0.1-0.5-0.3-0.8-0.6-1s-1-0.3-2.1-0.3h-0.4V282
	l3.1-0.2c2.1-0.1,3.7-0.1,4.9-0.1c2.1,0,3.7,0.2,5,0.6s2.3,1,3.1,1.9s1.2,1.9,1.2,3.1c0,1.4-0.5,2.6-1.6,3.6c-1,1-2.6,1.6-4.6,1.9
	c0.9,0.4,2.4,2,4.4,4.7c1.6,2.2,2.9,3.6,3.9,4.3s2,1,3.3,1.1L161.9,303.5L161.9,303.5z M145.5,292.4c0.8,0,1.6,0,2.5-0.1
	s1.6-0.2,2.2-0.4c0.6-0.2,1.1-0.5,1.5-0.8c0.4-0.4,0.7-0.8,0.9-1.4s0.3-1.3,0.3-2.2c0-1.5-0.4-2.7-1.1-3.6c-0.8-0.9-2.4-1.4-5-1.4
	c-0.4,0-0.8,0-1.4,0.1v9.8H145.5z"/>
<path class="st0" d="M195,292.6c0-3.3,1.1-6,3.4-8c2.2-2,5-3,8.3-3c3.4,0,6.2,1,8.4,3c2.3,2,3.4,4.7,3.4,8.1c0,3.3-1.1,6-3.2,8
	s-5,3.1-8.5,3.1c-3.4,0-6.2-1-8.4-3.1S195,296,195,292.6 M198.6,292.7c0,3.4,0.7,6,2.1,7.8c1.4,1.7,3.5,2.6,6.2,2.6
	c2.4,0,4.4-0.9,5.8-2.6c1.4-1.7,2.1-4.3,2.1-7.7c0-3.3-0.7-5.9-2.1-7.6s-3.4-2.7-6.1-2.7c-2.6,0-4.6,0.9-6,2.6
	C199.3,286.8,198.6,289.3,198.6,292.7"/>
<path class="st0" d="M266.5,295.6h-8.2l-0.6,1.4c-0.8,2-1.2,3.2-1.2,3.9c0,0.6,0.2,1.1,0.7,1.5s1,0.5,1.7,0.5v0.7h-6.4v-0.7
	c1-0.1,1.7-0.5,2.1-1c0.5-0.5,1-1.6,1.7-3.3c0-0.2,0.3-0.8,0.8-1.8l6.3-14.9h0.6l7.2,17l1,2.2c0.2,0.5,0.5,0.9,0.9,1.2
	s1,0.5,1.7,0.5v0.7h-8.5v-0.7c1,0,1.7-0.1,2.1-0.2s0.6-0.5,0.6-0.9c0-0.2-0.3-0.9-0.7-2.1L266.5,295.6z M266.2,294.8l-3.8-9.1
	l-3.8,9.1H266.2z"/>
<path class="st0" d="M307.7,287.2H307l0.1-5.1h21l0.1,5.1h-0.7c-0.2-1.4-0.6-2.4-1-3s-0.9-1-1.4-1.1s-1.3-0.2-2.5-0.2h-3.5V298
	c0,1.7,0,2.8,0.1,3.3s0.3,0.9,0.6,1.2c0.4,0.3,1,0.4,2,0.4h1v0.7H312v-0.7h1.1c0.9,0,1.6-0.1,1.9-0.4c0.3-0.2,0.6-0.6,0.7-1.1
	s0.1-1.6,0.1-3.4v-15.1h-3.2c-1.4,0-2.3,0.1-2.8,0.2s-0.9,0.5-1.3,1.2C308.3,284.8,307.9,285.8,307.7,287.2"/>
<path class="st0" d="M363.8,282.8V282h9.9v0.7h-0.5c-1.1,0-1.8,0.1-2.1,0.3c-0.3,0.2-0.5,0.5-0.7,1c-0.1,0.5-0.2,1.6-0.2,3.4v10.5
	c0,1.7,0,2.8,0.1,3.3s0.3,0.9,0.6,1.2c0.3,0.2,1,0.4,2,0.4h0.6v0.7h-9.9v-0.7h0.6c0.9,0,1.6-0.1,1.9-0.4c0.4-0.2,0.6-0.6,0.7-1.1
	s0.1-1.6,0.1-3.4v-10.5c0-1.7,0-2.8-0.1-3.3s-0.3-0.8-0.6-1c-0.3-0.2-1-0.3-2.1-0.3L363.8,282.8L363.8,282.8z"/>
<path class="st0" d="M422.7,295.6h-8.2l-0.6,1.4c-0.8,2-1.2,3.2-1.2,3.9c0,0.6,0.2,1.1,0.7,1.5c0.5,0.3,1,0.5,1.7,0.5v0.7h-6.4v-0.7
	c1-0.1,1.7-0.5,2.1-1c0.5-0.5,1-1.6,1.7-3.3c0-0.2,0.3-0.8,0.8-1.8l6.3-14.9h0.6l7.2,17l1,2.2c0.2,0.5,0.5,0.9,0.9,1.2
	s1,0.5,1.7,0.5v0.7h-8.5v-0.7c1,0,1.7-0.1,2.1-0.2s0.6-0.5,0.6-0.9c0-0.2-0.2-0.9-0.7-2.1L422.7,295.6z M422.4,294.8l-3.8-9.1
	l-3.8,9.1H422.4z"/>
</svg>
