<svg xmlns="http://www.w3.org/2000/svg" viewBox="0 0 171 170.7"><defs><style>.cls-1{opacity:0.2;isolation:isolate;}</style></defs><g id="Layer_2" data-name="Layer 2"><g id="Layer_1-2" data-name="Layer 1"><path class="cls-1" d="M169.5,53.5V41.7a84.78,84.78,0,0,1,1.1-11.3l.4-2.2-2.2.4a83.89,83.89,0,0,1-14.1,1.2H141.3V16.4a83.89,83.89,0,0,1,1.2-14.1l.4-2.2-2.2.4a90,90,0,0,1-10.3,1.1h-10A83,83,0,0,1,106.3.4L104.1,0l.4,2.2a83.89,83.89,0,0,1,1.2,14.1v6.2a83.89,83.89,0,0,1-1.2,14.1l-.4,2.2,2.2-.4a83.89,83.89,0,0,1,14.1-1.2h15.1l-10.8,4.3a4.52,4.52,0,0,0-1.7,1.1l-1.2,1.2-.9-.9L120,42a1.27,1.27,0,0,0-1.8,0l-1.5,1.5a38.76,38.76,0,0,1-3.1,2.6l-.5.4.5.4a31.12,31.12,0,0,1,2.8,2.3L105.5,60.1l-9.8-9.8h.2a85.27,85.27,0,0,1-9.1-10.8l-1.3-1.8-1.3,1.8a78.79,78.79,0,0,1-9.1,10.8L65.4,60l-5.5-5.4a5.33,5.33,0,0,0-3.6-1.5H50.5l1.3-1.3,2.4-2.4a26.63,26.63,0,0,1,3.1-2.6l.5-.4-.5-.4a25.13,25.13,0,0,1-3.1-2.6l-1.5-1.5a1.27,1.27,0,0,0-1.8,0l-1.8,1.8-6.6-6.6h8.1a83,83,0,0,1,14.1,1.2l2.2.4-.4-2.2a83.89,83.89,0,0,1-1.2-14.1V16.2A83,83,0,0,1,66.5,2.1L66.9,0,64.7.4A83.89,83.89,0,0,1,50.6,1.6h-10A87.66,87.66,0,0,1,30.3.5L28.1.1l.4,2.2a83.89,83.89,0,0,1,1.2,14.1V29.7H16.3A83.89,83.89,0,0,1,2.2,28.5L0,28.1l.4,2.2A84.78,84.78,0,0,1,1.5,41.6V53.4A84.78,84.78,0,0,1,.4,64.7L0,66.9l2.2-.4a83.89,83.89,0,0,1,14.1-1.2h10a87.66,87.66,0,0,1,10.3,1.1l2.2.4-.7-4.1a109.39,109.39,0,0,1-.9-11.4,4.15,4.15,0,0,0-.3-1.6L32.2,37.6,43.8,49.2,42,51a1.27,1.27,0,0,0,0,1.8l1.5,1.5a26.63,26.63,0,0,1,2.6,3.1l.4.5.4-.5a31.12,31.12,0,0,1,2.3-2.8L60.1,65.5l-9.3,9.3A92.91,92.91,0,0,1,40,83.9l-1.8,1.3L40,86.5A100.17,100.17,0,0,1,48.1,93l12.4,12.4L52.9,113l-3.4,3.4-29,28.9h0l-11,11a1.27,1.27,0,0,0,0,1.8l.1.1a28.18,28.18,0,0,1,3.8,4.6l.6.8.6-.8a40.28,40.28,0,0,1,3.8-4.6l2.1-2.1,10.3,10.3a27.62,27.62,0,0,1,3.1,3.7l.4.6.4-.6a35.74,35.74,0,0,1,3.1-3.7h0a1.27,1.27,0,0,0,0-1.8l-8-8h8.5l3.1-3.1V145l8,8a1.27,1.27,0,0,0,1.8,0h0a27.62,27.62,0,0,1,3.7-3.1l.6-.4-.6-.4a35.74,35.74,0,0,1-3.7-3.1L40.9,135.7h0L38.2,133h5.3l16.8-16.8a5.15,5.15,0,0,0,1.5-3.6v-5.8L75,120a85.27,85.27,0,0,1,9.1,10.8l1.3,1.8,1.3-1.8A78.79,78.79,0,0,1,95.8,120l3.9-3.9a4.75,4.75,0,0,0,1.5-3.6v-5.8l11.6,11.6,11.3,11.3,6,6-10.2,10.3a27.62,27.62,0,0,1-3.7,3.1l-.6.4.6.4a35.74,35.74,0,0,1,3.7,3.1h0a1.27,1.27,0,0,0,1.8,0l8-8v8.5l3.1,3.1h8.5l-8,8a1.27,1.27,0,0,0,0,1.8h0a27.62,27.62,0,0,1,3.1,3.7l.4.6.4-.6a27.62,27.62,0,0,1,3.1-3.7L150.6,156l2.7-2.7v5.4a30.19,30.19,0,0,1,3.2,3.9l.5.8.5-.8a54.5,54.5,0,0,1,3.8-4.6l.1-.1a1.27,1.27,0,0,0,0-1.8l-43.3-43.3-7.7-7.7,9.6-9.6a85.27,85.27,0,0,1,10.8-9.1l1.8-1.3-1.8-1.3A78.79,78.79,0,0,1,120,74.7l-9.3-9.3,5.5-5.5a5.15,5.15,0,0,0,1.5-3.6V50.5l3.7,3.7a19.42,19.42,0,0,1,2.6,3.1l.4.5.4-.5a25.13,25.13,0,0,1,2.6-3.1l1.5-1.5a1.27,1.27,0,0,0,0-1.8l-1.8-1.8,6.6-6.6v8a83.89,83.89,0,0,1-1.2,14.1l-.4,2.2,2.2-.4a87.66,87.66,0,0,1,10.3-1.1h10a83,83,0,0,1,14.1,1.2l2.2.4-.4-2.2c-.5-3.6-.8-7.4-1-11.2M133.8,29.1a.65.65,0,0,1-.6.6H113.9a.58.58,0,0,1-.6-.6V9.7a.65.65,0,0,1,.6-.6h19.3a.58.58,0,0,1,.6.6V29.1ZM29,57.9H9.6a.58.58,0,0,1-.6-.6V37.9a.65.65,0,0,1,.6-.6H29a.58.58,0,0,1,.6.6V57.2c0,.4-.2.7-.6.7m8.2-28.8V9.7a.65.65,0,0,1,.6-.6H57.2a.58.58,0,0,1,.6.6V29.1a.65.65,0,0,1-.6.6H37.8a.65.65,0,0,1-.6-.6M26.1,150.3H21.2L35,141.4v8.9Zm109.9,0V136.5l8.9,13.8ZM85,51.2a.75.75,0,0,1,.9,0l14.3,14.3L85.5,80.2,70.7,65.4ZM51.4,85.7a.75.75,0,0,1,0-.9L60,76.2a5.15,5.15,0,0,0,1.5-3.6V66.8L80.2,85.5,65.7,100Zm34.5,33.6a.75.75,0,0,1-.9,0L71.1,105.4l.1-.1L89.5,87v5.8A5.08,5.08,0,0,0,91,96.4l8.9,8.9Zm33.6-34.5a.75.75,0,0,1,0,.9L105.2,100,90.9,85.6l9.3-9.3a5.15,5.15,0,0,0,1.5-3.6V66.9l4,3.9,1.2,1.2,1.6,1.6ZM162,57.2a.65.65,0,0,1-.6.6H142a.65.65,0,0,1-.6-.6V37.9a.65.65,0,0,1,.6-.6h19.4a.65.65,0,0,1,.6.6Z"/></g></g></svg>