<?xml version="1.0" encoding="utf-8"?>
<!-- Generator: Adobe Illustrator 24.3.0, SVG Export Plug-In . SVG Version: 6.00 Build 0)  -->
<svg version="1.1" id="Layer_1" xmlns="http://www.w3.org/2000/svg" xmlns:xlink="http://www.w3.org/1999/xlink" x="0px" y="0px"
	 viewBox="0 0 171.1 170.7" style="enable-background:new 0 0 171.1 170.7;" xml:space="preserve">
<style type="text/css">
	.st0{fill:#C59A6B;}
</style>
<path class="st0" d="M169.5,53.5V41.7c0.1-3.8,0.5-7.6,1.1-11.3l0.4-2.2l-2.2,0.4c-4.7,0.8-9.4,1.2-14.1,1.2l0,0h-13.4V16.4
	c0-4.7,0.4-9.4,1.2-14.1l0.4-2.2l-2.2,0.4c-3.4,0.6-6.9,0.9-10.3,1.1h-10c-4.7,0-9.5-0.4-14.1-1.2L104.1,0l0.4,2.2
	c0.8,4.7,1.2,9.4,1.2,14.1v6.2c0,4.7-0.4,9.4-1.2,14.1l-0.4,2.2l2.2-0.4c4.7-0.8,9.4-1.2,14.1-1.2h15.1l-10.8,4.3
	c-0.6,0.2-1.2,0.6-1.7,1.1l-1.2,1.2l-0.9-0.9l-0.9-0.9c-0.5-0.5-1.3-0.5-1.8,0l-1.5,1.5c-1,0.9-2,1.8-3.1,2.6l-0.5,0.4l0.5,0.4
	c1,0.7,1.9,1.5,2.8,2.3l-10.9,10.9l-9.8-9.8l0.2,0c-3.3-3.3-6.4-7-9.1-10.8l-1.3-1.8l-1.3,1.8c-2.7,3.9-5.8,7.5-9.1,10.8l-9.7,9.7
	L60,54.7c-1-0.9-2.2-1.5-3.6-1.5h-5.8l1.3-1.3l2.4-2.4c0.9-0.9,2-1.8,3.1-2.6l0.5-0.4l-0.5-0.4c-1.1-0.8-2.1-1.6-3.1-2.6l-1.5-1.5
	c-0.5-0.5-1.3-0.5-1.8,0l-1.8,1.8l-6.6-6.6h8.1c4.7,0,9.5,0.4,14.1,1.2l2.2,0.4l-0.4-2.2c-0.8-4.7-1.2-9.4-1.2-14.1v-6.2
	c0-4.7,0.4-9.5,1.2-14.1L66.9,0l-2.2,0.4c-4.7,0.8-9.4,1.2-14.1,1.2h-10c-3.5-0.2-6.9-0.5-10.3-1.1l-2.2-0.4l0.4,2.2
	c0.8,4.7,1.2,9.4,1.2,14.1v13.3H16.3l0,0c-4.7,0-9.4-0.4-14.1-1.2L0,28.2l0.4,2.2c0.6,3.7,1,7.5,1.1,11.3v11.8
	C1.4,57.3,1,61,0.4,64.8L0,67l2.2-0.4c4.7-0.8,9.4-1.2,14.1-1.2h10c3.5,0.2,6.9,0.5,10.3,1.1l2.2,0.4l-0.7-4.1
	c-0.6-3.8-0.7-7.6-0.9-11.4c0-0.6-0.1-1.1-0.3-1.6l-4.7-12.1l11.6,11.6L42.1,51c-0.5,0.5-0.5,1.3,0,1.8l1.5,1.5
	c0.9,0.9,1.8,2,2.6,3.1l0.4,0.5l0.4-0.5c0.7-1,1.5-1.9,2.3-2.8l10.9,10.9l-9.3,9.3c-3.4,3.3-7,6.4-10.8,9.1l-1.8,1.3l1.8,1.3
	c2.8,2,5.5,4.2,8.1,6.5l12.4,12.4l-7.6,7.6l-3.4,3.4l-29,28.9l0,0l-11,11c-0.5,0.5-0.5,1.3,0,1.8l0.1,0.1c1.4,1.4,2.7,2.9,3.8,4.6
	l0.6,0.8l0.6-0.8c1.1-1.6,2.4-3.1,3.8-4.6l2.1-2.1l10.3,10.3c1.1,1.1,2.2,2.4,3.1,3.7l0.4,0.6l0.4-0.6c0.9-1.3,2-2.5,3.1-3.7l0,0
	l0,0c0.5-0.5,0.5-1.3,0-1.8l-8-8h8.5l3.1-3.1V145l8,8c0.5,0.5,1.3,0.5,1.8,0l0,0c1.1-1.1,2.4-2.2,3.7-3.1l0.6-0.4l-0.6-0.4
	c-1.3-0.9-2.5-2-3.7-3.1l-10.3-10.3l0,0l-2.7-2.7h5.3c8.4-8.4,16.8-16.8,16.8-16.8c0.9-0.9,1.5-2.2,1.5-3.6v-5.8L75,120
	c3.3,3.3,6.4,7,9.1,10.8l1.3,1.8l1.3-1.8c2.7-3.9,5.8-7.5,9.1-10.8l3.9-3.9c1-0.9,1.5-2.2,1.5-3.6v-5.8l11.6,11.6l11.3,11.3l6,6
	l-10.3,10.3c-1.1,1.1-2.4,2.2-3.7,3.1l-0.6,0.4l0.6,0.4c1.3,0.9,2.5,2,3.7,3.1l0,0c0.5,0.5,1.3,0.5,1.8,0l8-8v8.5l3.1,3.1h8.5l-8,8
	c-0.5,0.5-0.5,1.3,0,1.8l0,0c1.1,1.1,2.2,2.4,3.1,3.7l0.4,0.6l0.4-0.6c0.9-1.3,2-2.6,3.1-3.7l10.3-10.3l2.7-2.7v5.4
	c1.2,1.2,2.2,2.5,3.2,3.9l0.5,0.8l0.5-0.8c1.1-1.6,2.4-3.1,3.8-4.6l0.1-0.1c0.5-0.5,0.5-1.3,0-1.8l-43.3-43.3l-7.7-7.7l9.6-9.6
	c3.3-3.3,7-6.4,10.8-9.1l1.8-1.3l-1.8-1.3c-3.9-2.7-7.5-5.8-10.8-9.1l-9.3-9.3l5.5-5.5c0.9-0.9,1.5-2.2,1.5-3.6v-5.8l3.7,3.7
	c1,0.9,1.8,2,2.6,3.1l0.4,0.5l0.4-0.5c0.8-1.1,1.6-2.1,2.6-3.1l1.5-1.5c0.5-0.5,0.5-1.3,0-1.8l-1.8-1.8l6.6-6.6v8
	c0,4.7-0.4,9.4-1.2,14.1l-0.4,2.2l2.2-0.4c3.4-0.6,6.8-0.9,10.3-1.1h10c4.7,0,9.5,0.4,14.1,1.2L171,67l-0.4-2.2
	C170,61.1,169.7,57.3,169.5,53.5 M133.8,29.1c0,0.3-0.3,0.6-0.6,0.6h-19.3c-0.4,0-0.6-0.3-0.6-0.6V9.7c0-0.3,0.3-0.6,0.6-0.6h19.4
	c0.4,0,0.6,0.3,0.6,0.6L133.8,29.1L133.8,29.1z M29,57.9H9.7c-0.4,0-0.6-0.3-0.6-0.6V37.9c0-0.3,0.3-0.6,0.6-0.6H29
	c0.4,0,0.6,0.3,0.6,0.6v19.3C29.7,57.6,29.4,57.9,29,57.9 M37.2,29.1V9.7c0-0.3,0.3-0.6,0.6-0.6h19.4c0.4,0,0.6,0.3,0.6,0.6v19.4
	c0,0.3-0.3,0.6-0.6,0.6H37.8C37.5,29.7,37.2,29.4,37.2,29.1 M26.1,150.3h-4.9l13.8-8.9v8.9L26.1,150.3L26.1,150.3z M136,150.3v-8.9
	v-4.9l8.9,13.8H136z M85,51.2c0.2-0.2,0.6-0.2,0.9,0l14.3,14.3L85.5,80.2L70.7,65.5L85,51.2z M51.4,85.7c-0.2-0.2-0.2-0.6,0-0.9
	l8.6-8.6c0.9-0.9,1.5-2.2,1.5-3.6v-5.8l18.7,18.7L65.8,100L51.4,85.7z M85.9,119.3c-0.2,0.2-0.6,0.2-0.9,0l-13.9-13.9l0.1-0.1
	L89.5,87v5.8c0,1.3,0.5,2.6,1.5,3.6l8.9,8.9L85.9,119.3z M119.5,84.8c0.2,0.2,0.2,0.6,0,0.9l-14.3,14.3L90.9,85.6l9.3-9.3
	c0.9-0.9,1.5-2.2,1.5-3.6v-5.8l4,3.9l1.2,1.2l1.6,1.6L119.5,84.8z M162,57.2c0,0.3-0.3,0.6-0.6,0.6H142c-0.4,0-0.6-0.3-0.6-0.6V37.9
	c0-0.3,0.3-0.6,0.6-0.6h19.4c0.4,0,0.6,0.3,0.6,0.6V57.2z"/>
</svg>
