<?xml version="1.0" encoding="utf-8"?>
<!-- Generator: Adobe Illustrator 17.0.0, SVG Export Plug-In . SVG Version: 6.00 Build 0)  -->
<!DOCTYPE svg PUBLIC "-//W3C//DTD SVG 1.1//EN" "http://www.w3.org/Graphics/SVG/1.1/DTD/svg11.dtd">
<svg version="1.1" id="Layer_1" xmlns="http://www.w3.org/2000/svg" xmlns:xlink="http://www.w3.org/1999/xlink" x="0px" y="0px"
	 width="425.2px" height="425.2px" viewBox="0 0 425.2 425.2" enable-background="new 0 0 425.2 425.2" xml:space="preserve">
<rect fill="#D7A861" width="427.2" height="425.2"/>
<g>
	<path fill="#FFFFFF" d="M210.339,336.552c1.135,1.757,3.48,2.262,5.237,1.127c0.451-0.291,0.835-0.675,1.127-1.127l94.697-143.939
		c0.866-1.282,0.866-2.961,0-4.242l-31.553-45.455c-0.707-1.018-1.867-1.627-3.106-1.629H150.377c-1.239,0.002-2.4,0.61-3.106,1.629
		l-31.553,45.455c-0.866,1.281-0.866,2.961,0,4.242L210.339,336.552z M213.521,317.385L176.93,194.317h73.182L213.521,317.385z
		 M222.422,314.052l35.606-119.735h43.182L222.422,314.052z M274.657,148.862l26.515,37.879h-44.318l-34.735-37.879H274.657z
		 M246.589,186.741h-66.136l33.068-36.061L246.589,186.741z M152.384,148.862h52.538l-34.735,37.879h-44.129L152.384,148.862z
		 M169.013,194.317l35.606,119.735l-78.788-119.735H169.013z"/>
	<rect x="209.733" y="86.915" fill="#FFFFFF" width="7.576" height="30.303"/>
	
		<rect x="283.027" y="114.75" transform="matrix(-0.7071 0.7071 -0.7071 -0.7071 592.8418 -8.4878)" fill="#FFFFFF" width="30.303" height="7.576"/>
	
		<rect x="128.4" y="103.415" transform="matrix(-0.7071 0.7071 -0.7071 -0.7071 309.497 108.9343)" fill="#FFFFFF" width="7.576" height="30.303"/>
</g>
</svg>
