<?xml version="1.0" encoding="utf-8"?>
<!-- Generator: Adobe Illustrator 17.0.0, SVG Export Plug-In . SVG Version: 6.00 Build 0)  -->
<!DOCTYPE svg PUBLIC "-//W3C//DTD SVG 1.1//EN" "http://www.w3.org/Graphics/SVG/1.1/DTD/svg11.dtd">
<svg version="1.1" id="Layer_1" xmlns="http://www.w3.org/2000/svg" xmlns:xlink="http://www.w3.org/1999/xlink" x="0px" y="0px"
	 width="425.2px" height="425.2px" viewBox="0 0 425.2 425.2" enable-background="new 0 0 425.2 425.2" xml:space="preserve">
<rect y="0" fill="#D7A861" width="427.2" height="425.2"/>
<g>
	<rect x="209.946" y="84.2" fill="#FFFFFF" width="8.839" height="35.356"/>
	
		<rect x="295.461" y="117.586" transform="matrix(-0.7071 0.7071 -0.7071 -0.7071 620.8323 -13.1463)" fill="#FFFFFF" width="35.356" height="8.839"/>
	
		<rect x="115.052" y="104.361" transform="matrix(-0.7071 0.7071 -0.7071 -0.7071 290.2451 123.8538)" fill="#FFFFFF" width="8.839" height="35.356"/>
	<rect x="210.132" y="303.582" fill="#FFFFFF" width="8.839" height="35.356"/>
	
		<rect x="98.101" y="296.713" transform="matrix(0.7071 -0.7071 0.7071 0.7071 -179.0219 170.0672)" fill="#FFFFFF" width="35.356" height="8.839"/>
	
		<rect x="305.026" y="283.421" transform="matrix(0.7071 -0.7071 0.7071 0.7071 -122.2747 307.0009)" fill="#FFFFFF" width="8.839" height="35.356"/>
	<g>
		<path fill="#FFFFFF" d="M212.904,271.796c-0.98,0-2.01-0.026-3.059-0.078c-40.922-1.654-100.602-34.194-118.06-54.635
			c-0.047-0.068-0.097-0.135-0.153-0.201c-0.054-0.067-0.112-0.167-0.175-0.265c0,0-0.253-0.378-0.281-0.426
			c-0.03-0.059-0.057-0.141-0.088-0.222l-0.139-0.343c-0.027-0.063-0.055-0.124-0.076-0.189c-0.007-0.029-0.108-0.568-0.108-0.568
			c-0.015-0.071-0.032-0.141-0.041-0.213c-0.004-0.06,0-0.124,0-0.187v-0.409c-0.001-0.067-0.004-0.133,0-0.2
			c0.008-0.068,0.027-0.141,0.042-0.216l0.073-0.376c0.013-0.07,0.023-0.141,0.041-0.21c0.014-0.041,0.212-0.519,0.212-0.519
			c0.03-0.076,0.055-0.153,0.092-0.226l0.269-0.408c0.064-0.099,0.122-0.2,0.197-0.293l0.112-0.137l0.034-0.053
			c17.537-20.477,77.156-52.97,118.024-54.623c1.029-0.052,2.057-0.078,3.083-0.078c0.992,0,2.021,0.026,3.059,0.077
			c40.926,1.654,100.614,34.202,118.067,54.642c0.044,0.063,0.089,0.124,0.137,0.182c0.068,0.083,0.129,0.189,0.194,0.291
			l0.185,0.282c0.031,0.046,0.064,0.091,0.092,0.139c0.027,0.052,0.056,0.14,0.089,0.224l0.141,0.352
			c0.024,0.057,0.05,0.114,0.069,0.172c0.012,0.049,0.021,0.112,0.032,0.175l0.077,0.397c0.015,0.071,0.032,0.141,0.041,0.213
			c0.003,0.059-0.002,0.13-0.004,0.201l-0.001,0.396c0.001,0.066,0.004,0.131,0,0.196c-0.008,0.064-0.026,0.135-0.04,0.206
			l-0.077,0.401c-0.012,0.062-0.02,0.125-0.036,0.188c-0.016,0.047-0.204,0.501-0.204,0.501c-0.034,0.086-0.063,0.174-0.107,0.259
			l-0.266,0.402c-0.06,0.094-0.115,0.192-0.188,0.28l-0.115,0.139l-0.038,0.061c-17.535,20.476-77.156,52.97-118.026,54.622
			C214.945,271.77,213.918,271.796,212.904,271.796z M212.907,165.11c-27.865,0-50.534,22.048-50.534,49.149
			c0,27.099,22.67,49.147,50.534,49.147c27.865,0,50.535-22.048,50.535-49.147C263.442,187.158,240.773,165.11,212.907,165.11z
			 M161.331,177.745c-16.236,6.666-32.874,15.533-45.649,24.328c-5.204,3.584-9.615,7.047-13.112,10.294l-2.038,1.891l2.038,1.891
			c3.496,3.246,7.906,6.708,13.108,10.29c12.77,8.793,29.41,17.661,45.653,24.33l8.225,3.377l-5.138-7.256
			c-1.132-1.6-2.182-3.249-3.119-4.905c-4.786-8.458-7.316-18.047-7.316-27.728c0-9.682,2.53-19.271,7.316-27.731
			c0.939-1.658,1.989-3.308,3.118-4.903l5.138-7.256L161.331,177.745z M261.395,181.624c1.136,1.605,2.185,3.255,3.118,4.903
			c4.786,8.459,7.316,18.048,7.316,27.731c0,9.685-2.53,19.273-7.316,27.728c-0.935,1.653-1.984,3.303-3.119,4.905l-5.138,7.255
			l8.225-3.376c16.244-6.668,32.884-15.537,45.655-24.33c5.202-3.582,9.612-7.044,13.108-10.29l2.038-1.892l-2.039-1.891
			c-3.506-3.253-7.918-6.715-13.111-10.29c-12.772-8.795-29.411-17.664-45.651-24.33l-8.225-3.376L261.395,181.624z"/>
		<path fill="#FFFFFF" d="M212.907,235.283c-11.835,0-21.464-9.431-21.464-21.025c0-11.595,9.629-21.027,21.464-21.027
			c11.836,0,21.465,9.432,21.465,21.027C234.372,225.852,224.743,235.283,212.907,235.283z M212.907,201.622
			c-7.21,0-13.075,5.67-13.075,12.638c0,6.968,5.865,12.637,13.075,12.637c7.21,0,13.076-5.669,13.076-12.637
			C225.983,207.292,220.117,201.622,212.907,201.622z"/>
	</g>
</g>
</svg>
