<?xml version="1.0" encoding="utf-8"?>
<!-- Generator: Adobe Illustrator 17.0.0, SVG Export Plug-In . SVG Version: 6.00 Build 0)  -->
<!DOCTYPE svg PUBLIC "-//W3C//DTD SVG 1.1//EN" "http://www.w3.org/Graphics/SVG/1.1/DTD/svg11.dtd">
<svg version="1.1" id="Layer_1" xmlns="http://www.w3.org/2000/svg" xmlns:xlink="http://www.w3.org/1999/xlink" x="0px" y="0px"
	 width="425.2px" height="425.2px" viewBox="0 0 425.2 425.2" enable-background="new 0 0 425.2 425.2" xml:space="preserve">
<rect y="0" fill="#D7A861" width="427.2" height="425.2"/>
<g>
	<path fill="#FFFFFF" d="M202.347,197.86c2.755-0.406,4.659-2.97,4.253-5.725s-2.97-4.659-5.725-4.253
		c-18.014,2.648-30.47,19.399-27.822,37.413s19.399,30.47,37.413,27.822c14.4-2.117,25.708-13.426,27.823-27.827
		c0.399-2.757-1.512-5.316-4.269-5.715c-2.748-0.398-5.301,1.5-5.712,4.246c-1.834,12.504-13.457,21.154-25.961,19.32
		c-12.504-1.834-21.154-13.457-19.32-25.961C184.494,207.179,192.347,199.326,202.347,197.86z"/>
	<path fill="#FFFFFF" d="M255.211,118.647c1.107-2.555-0.065-5.523-2.618-6.633c-59.895-25.905-129.449,1.648-155.355,61.543
		s1.648,129.449,61.543,155.355s129.449-1.648,155.355-61.543c12.938-29.914,12.946-63.843,0.021-93.763
		c-1.112-2.553-4.084-3.722-6.637-2.609c-2.548,1.11-3.718,4.072-2.616,6.623c5.873,13.529,8.888,28.126,8.856,42.874
		c-0.034,59.659-48.426,107.995-108.085,107.96c-59.659-0.034-107.995-48.426-107.96-108.085
		c0.034-59.659,48.426-107.995,108.085-107.96c14.713,0.008,29.27,3.023,42.777,8.857C251.132,122.372,254.1,121.2,255.211,118.647z
		"/>
	<path fill="#FFFFFF" d="M334.575,113.815h-22.221V91.593c0-2.785-2.257-5.043-5.042-5.043c-1.337,0-2.62,0.531-3.566,1.477
		l-37.356,37.357c-1.053,1.052-1.587,2.516-1.458,3.999l1.958,22.766l-62.222,62.223c-1.966,1.973-1.96,5.165,0.012,7.131
		c1.967,1.961,5.15,1.961,7.118,0.001l62.222-62.223l22.767,1.958c0.145,0.012,0.29,0.018,0.432,0.018
		c1.337,0,2.619-0.531,3.565-1.476l37.357-37.356c1.97-1.968,1.971-5.16,0.003-7.13
		C337.197,114.347,335.913,113.815,334.575,113.815L334.575,113.815z M295.311,150.988l-18.536-1.594l-1.595-18.538l27.088-27.088
		v15.09c0,2.785,2.257,5.042,5.041,5.042c0,0,0.001,0,0.001,0H322.4L295.311,150.988z"/>
	<path fill="#FFFFFF" d="M243.912,157.341c1.281-2.473,0.314-5.516-2.159-6.797c-38.655-19.945-86.16-4.778-106.106,33.877
		s-4.778,86.16,33.877,106.106c38.655,19.945,86.16,4.778,106.106-33.877c11.692-22.659,11.69-49.577-0.003-72.235
		c-1.286-2.471-4.331-3.432-6.803-2.147c-2.465,1.282-3.429,4.317-2.155,6.787c17.394,33.717,4.161,75.15-29.555,92.543
		c-33.717,17.394-75.15,4.161-92.543-29.555s-4.161-75.15,29.555-92.543c19.758-10.193,43.228-10.193,62.987-0.001
		c2.472,1.282,5.516,0.317,6.798-2.155C243.911,157.342,243.911,157.341,243.912,157.341z"/>
</g>
</svg>
