<?xml version="1.0" encoding="utf-8"?>
<!-- Generator: Adobe Illustrator 17.0.0, SVG Export Plug-In . SVG Version: 6.00 Build 0)  -->
<!DOCTYPE svg PUBLIC "-//W3C//DTD SVG 1.1//EN" "http://www.w3.org/Graphics/SVG/1.1/DTD/svg11.dtd">
<svg version="1.1" id="Layer_1" xmlns="http://www.w3.org/2000/svg" xmlns:xlink="http://www.w3.org/1999/xlink" x="0px" y="0px"
	 width="283.465px" height="283.465px" viewBox="0 0 283.465 283.465" enable-background="new 0 0 283.465 283.465"
	 xml:space="preserve">
<path fill="#CDA16B" d="M71.525,250.43c-11.731,0-21.276-9.545-21.276-21.276v-81.367l-1.417-0.501
	c-8.447-2.986-14.147-11.013-14.185-19.972v-22.317c0-11.732,9.545-21.276,21.276-21.276h44.347l-6.782-3.962
	C86.713,75.8,81.313,69.633,78.284,62.394c-3.472-8.714-0.985-18.681,6.199-24.766c3.354-2.962,7.623-4.578,12.053-4.578
	c1.201,0,2.408,0.121,3.588,0.358c15.716,2.932,31.688,24.849,39.813,37.653l1.795,2.829l1.795-2.829
	c8.125-12.803,24.098-34.722,39.785-37.664c1.208-0.243,2.415-0.364,3.616-0.364c4.43,0,8.698,1.615,12.02,4.548
	c7.218,6.114,9.704,16.081,6.219,24.829c-3.014,7.212-8.413,13.384-15.191,17.346l-6.776,3.961h44.342
	c11.731,0,21.276,9.544,21.276,21.276v22.326c-0.037,8.951-5.737,16.977-14.185,19.963l-1.417,0.501v81.367
	c0,11.731-9.545,21.276-21.276,21.276H71.525z M174.359,239.08h37.58c5.474,0,9.927-4.453,9.927-9.927v-80.556h-47.507V239.08z
	 M120.455,239.08h42.555v-90.482h-42.555V239.08z M61.598,229.153c0,5.474,4.453,9.927,9.927,9.927h37.58v-90.482H61.598V229.153z
	 M174.359,137.248h53.182c5.474,0,9.927-4.453,9.927-9.927v-22.326c0-5.474-4.453-9.927-9.927-9.927h-53.182V137.248z
	 M120.455,137.248h42.555v-42.18h-42.555V137.248z M55.924,95.069c-5.474,0-9.927,4.453-9.927,9.927v22.326
	c0,5.474,4.453,9.927,9.927,9.927h53.182v-42.18H55.924z M186.824,44.448c-0.468,0-0.937,0.04-1.394,0.119
	c-11.211,2.088-25.586,22.369-31.247,30.992l-2.496,3.802l4.519-0.523c23.658-2.742,35.26-12.21,38.247-20.184
	c1.892-4.261,0.739-9.306-2.814-12.323c-1.257-1.2-2.903-1.868-4.646-1.881L186.824,44.448z M89.014,58.659
	c1.492,3.968,8.579,16.744,38.246,20.178l4.521,0.523l-2.5-3.803c-5.662-8.616-20.037-28.878-31.203-30.948
	c-0.488-0.101-1.034-0.158-1.578-0.161H96.48c-1.738,0-3.393,0.65-4.666,1.832C88.24,49.313,87.094,54.384,89.014,58.659z"/>
</svg>
