<?xml version="1.0" encoding="utf-8"?>
<!-- Generator: Adobe Illustrator 17.0.0, SVG Export Plug-In . SVG Version: 6.00 Build 0)  -->
<!DOCTYPE svg PUBLIC "-//W3C//DTD SVG 1.1//EN" "http://www.w3.org/Graphics/SVG/1.1/DTD/svg11.dtd">
<svg version="1.1" id="Layer_1" xmlns="http://www.w3.org/2000/svg" xmlns:xlink="http://www.w3.org/1999/xlink" x="0px" y="0px"
	 width="283.46px" height="283.46px" viewBox="0 0 283.46 283.46" enable-background="new 0 0 283.46 283.46" xml:space="preserve">
<g>
	<path fill="#CDA16B" d="M129.683,251.728c-6.197,0-11.739-4.16-13.477-10.117l-5.09-18.256H84.698
		c-11.322,0-20.533-9.211-20.533-20.534V176.82l-8.263-2.744c-3.299-1.095-5.974-3.409-7.532-6.516
		c-1.558-3.106-1.813-6.633-0.718-9.933c0.135-0.405,0.29-0.806,0.463-1.193l13.209-29.662c1.889-4.221,2.846-8.71,2.842-13.339
		c0.032-35.636,21.963-67.481,54.939-80.349c0.568,4.104,1.096,8.289,1.576,12.503C93.801,57.419,76.513,83.739,76.44,113.264
		c0.01,6.349-1.295,12.495-3.879,18.28L58.867,162.24l10.641,3.581c4.117,1.355,6.866,5.16,6.862,9.474v27.667
		c0,4.593,3.736,8.33,8.329,8.33h35.527l8.215,28.906l86.639-24.735l-13.743-48.221l2.412-2.506
		c28.276-29.343,27.409-76.221-1.935-104.499c-3.141-3.027-6.564-5.785-10.191-8.212c-0.4-5.013-0.869-10.008-1.402-14.922
		c39.984,20.823,57.401,69.618,38.808,111.339c-3.352,7.518-7.755,14.505-13.089,20.768l-1.032,1.211l11.319,39.701
		c2.165,7.464-2.137,15.285-9.588,17.447l-82.995,23.586C132.336,251.537,131.01,251.728,129.683,251.728z"/>
	<path fill="#CDA16B" d="M119.441,167.114c-5.964-3.591-13.71-1.667-17.301,4.296c-3.591,5.964-1.667,13.71,4.296,17.301
		c5.964,3.591,13.71,1.667,17.301-4.296c0.992-1.647,1.593-3.498,1.759-5.413c10.25-6.26,18.577-15.223,24.066-25.906
		c15.495,2.858,30.373-7.387,33.231-22.882c2.044-11.083-2.628-22.332-11.924-28.705c-0.02-22.674-1.519-45.323-4.486-67.803
		c-3.997-0.879-8.052-1.463-12.134-1.749c-2.004-0.15-4.015-0.224-6.033-0.224c-4.067-0.001-8.129,0.283-12.157,0.852
		c3.252,22.343,4.923,44.888,5.002,67.466c-13.803,7.574-18.852,24.903-11.278,38.706c1.88,3.426,4.444,6.428,7.533,8.821
		C133.202,155.564,127.031,162.307,119.441,167.114z"/>
</g>
</svg>
