<?xml version="1.0" encoding="utf-8"?>
<!-- Generator: Adobe Illustrator 17.0.0, SVG Export Plug-In . SVG Version: 6.00 Build 0)  -->
<!DOCTYPE svg PUBLIC "-//W3C//DTD SVG 1.1//EN" "http://www.w3.org/Graphics/SVG/1.1/DTD/svg11.dtd">
<svg version="1.1" id="Layer_1" xmlns="http://www.w3.org/2000/svg" xmlns:xlink="http://www.w3.org/1999/xlink" x="0px" y="0px"
	 width="283.46px" height="283.46px" viewBox="0 0 283.46 283.46" enable-background="new 0 0 283.46 283.46" xml:space="preserve">
<g>
	<path fill="#CDA16B" d="M141.671,252.609c-2.016,0-4.216-0.551-6.541-1.638c-30.335-14.188-53.596-37.963-69.135-70.662
		c-13.672-28.771-20.46-62.962-19.63-98.879c0.06-2.576,1.859-4.78,4.375-5.36c21.363-4.927,34.548-20.088,34.41-39.567
		c-0.005-1.478,0.584-2.886,1.662-3.968c1.082-1.086,2.497-1.685,3.986-1.685h101.895c1.487,0,2.902,0.598,3.984,1.683
		c1.078,1.083,1.668,2.494,1.663,3.974c-0.42,19.274,14.22,36.246,34.054,39.492c2.692,0.44,4.683,2.736,4.732,5.459
		c0.62,34.304-6.706,67.897-21.185,97.146c-15.539,31.39-38.82,56.213-67.329,71.785l-0.39,0.215
		C146.692,251.452,144.603,252.609,141.671,252.609z M141.511,241.003l0.54,0.076l0.042-0.144l0.428-0.141
		c0.229-0.075,0.454-0.173,0.669-0.291c19.227-10.502,82.012-52.559,82.68-152.769l0.011-1.574l-1.513-0.435
		c-19.45-5.604-34.275-22.404-36.89-41.806l-0.243-1.8H96.257l-0.243,1.8c-2.618,19.418-17.459,36.223-36.929,41.817l-1.5,0.431
		l-0.002,1.562C57.481,142.381,78.029,210.805,136,238.945c0.505,0.301,1.03,0.534,1.538,0.759l2.417,1.073l0.059,0.009l0.066,0.021
		c0.386,0.125,0.79,0.188,1.201,0.188l0.071-0.002L141.511,241.003z"/>
	<g>
		<path fill="#CDA16B" d="M141.73,189.129c-28.398,0-51.502-23.104-51.502-51.501c0-28.398,23.104-51.502,51.502-51.502
			c28.398,0,51.501,23.104,51.501,51.502C193.232,166.026,170.128,189.129,141.73,189.129z M141.73,97.196
			c-22.294,0-40.432,18.138-40.432,40.432c0,22.293,18.138,40.431,40.432,40.431s40.431-18.138,40.431-40.431
			C182.161,115.334,164.024,97.196,141.73,97.196z"/>
		<path fill="#CDA16B" d="M134.721,157.394c-1.479,0-2.868-0.575-3.913-1.62l-14.443-14.45c-2.284-2.286-1.81-4.594-1.324-5.767
			c0.911-2.198,3.165-3.792,5.359-3.792c1.368,0,2.644,0.583,3.792,1.731l10.53,10.537l24.548-24.548
			c1.148-1.148,2.424-1.73,3.792-1.73c2.196,0,4.45,1.595,5.36,3.792c0.486,1.173,0.959,3.482-1.328,5.769l-28.458,28.459
			C137.592,156.819,136.201,157.394,134.721,157.394z"/>
	</g>
</g>
</svg>
