<?xml version="1.0" encoding="utf-8"?>
<!-- Generator: Adobe Illustrator 17.0.0, SVG Export Plug-In . SVG Version: 6.00 Build 0)  -->
<!DOCTYPE svg PUBLIC "-//W3C//DTD SVG 1.1//EN" "http://www.w3.org/Graphics/SVG/1.1/DTD/svg11.dtd">
<svg version="1.1" id="Layer_1" xmlns="http://www.w3.org/2000/svg" xmlns:xlink="http://www.w3.org/1999/xlink" x="0px" y="0px"
	 width="283.46px" height="283.46px" viewBox="0 0 283.46 283.46" enable-background="new 0 0 283.46 283.46" xml:space="preserve">
<g>
	<path fill="#CDA16B" d="M149.224,240.843H54.075c-5.466,0-9.911-4.446-9.911-9.911V52.528c0-5.466,4.446-9.911,9.911-9.911h3.872
		l6.285,16.043c0.891,2.281,3.09,3.78,5.537,3.78h47.907c2.447,0,4.646-1.499,5.537-3.78l6.28-16.043h3.872
		c5.466,0,9.911,4.446,9.911,9.911v95.146c0,7.855,11.894,7.855,11.894,0V52.528c0-12.026-9.779-21.805-21.805-21.805H54.075
		c-12.026,0-21.805,9.779-21.805,21.805v178.404c0,12.026,9.779,21.805,21.805,21.805h95.149
		C157.093,252.737,157.093,240.843,149.224,240.843z M113.62,50.546H73.827l-3.108-7.929h46.004L113.62,50.546z"/>
	<path fill="#CDA16B" d="M192.506,161.553h-91.515c-3.283,0-5.947,2.664-5.947,5.947v59.468c0,3.283,2.664,5.947,5.947,5.947h91.517
		c3.283,0,5.947-2.664,5.947-5.947v-59.468C198.453,164.217,195.792,161.553,192.506,161.553z M186.56,173.446v7.929h-79.621v-7.929
		H186.56z M106.939,221.021v-27.752h79.624v27.752H106.939z"/>
	<path fill="#CDA16B" d="M93.721,71.111c-22.952,0-41.628,18.673-41.628,41.628s18.676,41.628,41.628,41.628
		s41.628-18.673,41.628-41.628S116.67,71.111,93.721,71.111z M93.721,142.473c-16.392,0-29.734-13.337-29.734-29.734
		s13.342-29.734,29.734-29.734s29.734,13.337,29.734,29.734S110.113,142.473,93.721,142.473z"/>
	<path fill="#CDA16B" d="M209.562,71.111c-22.952,0-41.628,18.673-41.628,41.628s18.676,41.628,41.628,41.628
		s41.628-18.673,41.628-41.628S232.511,71.111,209.562,71.111z M209.562,142.473c-16.392,0-29.734-13.337-29.734-29.734
		s13.342-29.734,29.734-29.734s29.734,13.337,29.734,29.734S225.954,142.473,209.562,142.473z"/>
	<path fill="#CDA16B" d="M106.169,97.488l-17.888,17.888l-7.007-7.012c-5.566-5.566-13.974,2.844-8.41,8.41l11.212,11.217
		c2.321,2.321,6.087,2.321,8.41,0l22.09-22.09C120.146,100.332,111.736,91.925,106.169,97.488z"/>
	<circle fill="#CDA16B" cx="118.171" cy="211.107" r="5.947"/>
	<path fill="#CDA16B" d="M226.189,104.832c-0.017-4.652-3.171-8.707-7.675-9.87V92.04c0-1.413-1.145-2.558-2.558-2.558
		c-1.413,0-2.558,1.145-2.558,2.558v2.558h-5.117V92.04c0-1.413-1.145-2.558-2.558-2.558c-1.413,0-2.558,1.145-2.558,2.558v2.558
		h-7.675c-1.413,0-2.558,1.145-2.558,2.558s1.145,2.558,2.558,2.558h2.558v25.583h-2.558c-1.413,0-2.558,1.145-2.558,2.558
		c0,1.413,1.145,2.558,2.558,2.558h7.675v2.558c0,1.413,1.145,2.558,2.558,2.558c1.413,0,2.558-1.145,2.558-2.558v-2.558h5.117
		v2.558c0,1.413,1.145,2.558,2.558,2.558c1.413,0,2.558-1.145,2.558-2.558v-2.922c5.437-1.367,8.736-6.883,7.369-12.321
		c-0.511-2.033-1.64-3.858-3.23-5.224C224.89,110.582,226.18,107.782,226.189,104.832z M221.073,120.182
		c0,2.826-2.291,5.117-5.117,5.117h-12.791v-10.233h12.791C218.782,115.065,221.073,117.356,221.073,120.182z M203.165,109.948
		V99.715h12.791c2.826,0,5.117,2.291,5.117,5.117s-2.291,5.117-5.117,5.117H203.165z"/>
</g>
</svg>
