<?xml version="1.0" encoding="utf-8"?>
<!-- Generator: Adobe Illustrator 17.0.0, SVG Export Plug-In . SVG Version: 6.00 Build 0)  -->
<!DOCTYPE svg PUBLIC "-//W3C//DTD SVG 1.1//EN" "http://www.w3.org/Graphics/SVG/1.1/DTD/svg11.dtd">
<svg version="1.1" id="Layer_1" xmlns="http://www.w3.org/2000/svg" xmlns:xlink="http://www.w3.org/1999/xlink" x="0px" y="0px"
	 width="283.46px" height="283.46px" viewBox="0 0 283.46 283.46" enable-background="new 0 0 283.46 283.46" xml:space="preserve">
<g>
	<path fill="#CDA16B" d="M22.039,245.143c-2.402,0-4.356-1.954-4.356-4.356v-24.768c0-2.402,1.954-4.355,4.356-4.355h5.117
		l7.138-21.497l0.001-0.293c0.265-52.981,40.344-98.205,93.226-105.195l1.597-0.212V67.671h-10.086
		c-8.093,0-14.677-6.584-14.677-14.677s6.584-14.677,14.677-14.677h45.4c8.09,0,14.671,6.584,14.671,14.677
		s-6.581,14.677-14.671,14.677h-10.092v16.797l1.598,0.212c25.641,3.389,49.221,15.969,66.396,35.423
		c17.194,19.476,26.76,44.484,26.937,70.418l0.003,0.295l7.032,20.848h5.115c2.402,0,4.356,1.953,4.356,4.355v24.768
		c0,2.402-1.954,4.356-4.356,4.356H22.039z M26.395,236.431h230.67v-16.056H26.395V236.431z M36.352,211.663h210.762l-5.34-16.046
		H41.686L36.352,211.663z M141.733,108.944c-42.691,0-78.697,33.375-81.97,75.982l-0.152,1.979h180.828l-0.122-1.953
		c-3.232-51.883-46.536-92.524-98.584-92.524c-52.046,0-95.351,40.641-98.589,92.523l-0.122,1.953h7.795l0.112-1.718
		c1.516-23.139,11.643-44.59,28.516-60.4c16.898-15.834,39.018-24.554,62.287-24.554h0.23v8.711H141.733z M141.73,83.732
		c0.836,0,1.673,0.004,2.006,0.015l1.894,0.057V67.671h-7.799v16.133l1.894-0.057C140.057,83.737,140.893,83.732,141.73,83.732z
		 M119.033,47.029c-3.289,0-5.965,2.676-5.965,5.965c0,3.289,2.676,5.965,5.965,5.965h45.4c3.286,0,5.96-2.676,5.96-5.965
		c0-3.289-2.674-5.965-5.96-5.965H119.033z"/>
	<path fill="#CDA16B" d="M30.067,121.323v-8.711h16.965v8.711H30.067z M35.511,99.453l6.166-6.162l12,12l-6.162,6.161L35.511,99.453
		z M54.83,104.818V87.843h8.712v16.975H54.83z"/>
	<path fill="#CDA16B" d="M236.429,121.323v-8.711h16.969v8.711H236.429z M229.783,105.292l12.005-12l6.162,6.162l-12.001,11.999
		L229.783,105.292z M219.918,104.818V87.843h8.716v16.975H219.918z"/>
</g>
</svg>
