<?xml version="1.0" encoding="utf-8"?>
<!-- Generator: Adobe Illustrator 17.0.0, SVG Export Plug-In . SVG Version: 6.00 Build 0)  -->
<!DOCTYPE svg PUBLIC "-//W3C//DTD SVG 1.1//EN" "http://www.w3.org/Graphics/SVG/1.1/DTD/svg11.dtd">
<svg version="1.1" id="Layer_1" xmlns="http://www.w3.org/2000/svg" xmlns:xlink="http://www.w3.org/1999/xlink" x="0px" y="0px"
	 width="283.46px" height="283.46px" viewBox="0 0 283.46 283.46" enable-background="new 0 0 283.46 283.46" xml:space="preserve">
<path fill="#CDA16B" d="M243.675,77.005h-8.732c-4.148-15.936-3.929-17.027-5.894-18.119c-0.655-0.437-1.31-0.437-1.746-0.437
	h-41.913c-9.605-13.971-27.287-22.485-43.878-22.485s-34.273,8.514-43.878,22.266H57.249c-1.528,0-2.838,1.091-3.274,2.62
	l-4.366,16.154h-10.26c-1.965,0-3.493,1.528-3.493,3.493v18.774c0,1.965,1.528,3.493,3.493,3.493h3.493v141.238
	c0,1.965,1.528,3.493,3.493,3.493c19.428,0,171.363,0,190.791,0c1.965,0,3.493-1.528,3.493-3.493V102.546h3.493
	c1.965,0,3.493-1.528,3.493-3.493V80.279C247.167,78.533,245.639,77.005,243.675,77.005z M224.683,64.999l3.274,12.006h-35.582
	c-0.437-4.148-1.528-8.295-3.056-12.006H224.683z M59.869,64.999h33.836c-1.746,3.711-2.838,7.64-3.056,12.006H56.813L59.869,64.999
	z M59.869,233.524v6.767h-10.26V102.546H90.43v117.444h-3.493c-1.965,0-3.493,1.528-3.493,3.493v6.767h-20.52
	C61.397,230.249,59.869,231.777,59.869,233.524z M185.826,102.546v117.444h-13.753v-48.68c0-1.528-0.873-2.838-2.401-3.274
	c-8.514-2.838-18.337-4.366-28.379-4.366s-19.865,1.528-28.379,4.366c-1.31,0.437-2.401,1.746-2.401,3.274v48.68H96.979V102.546
	H185.826z M90.43,230.249v-3.493c64.398,0,32.308,0,102.163,0v3.493H90.43z M165.306,219.989h-47.589V173.71
	c7.204-2.183,15.499-3.274,23.794-3.274c8.295,0,16.591,1.091,23.794,3.274V219.989z M66.636,237.017c16.809,0,127.267,0,149.752,0
	v3.493H66.636V237.017z M233.415,240.291h-10.26v-6.767c0-1.965-1.528-3.493-3.493-3.493h-20.52v-6.767
	c0-1.965-1.528-3.493-3.493-3.493h-3.493V102.546h40.821v137.745H233.415z M240.182,95.56c-15.281,0-176.165,0-197.559,0V83.554
	h51.081c1.965,0,3.493-1.528,3.493-3.493c0-21.83,23.358-37.11,44.314-37.11s44.314,15.281,44.314,37.547
	c0,1.965,1.528,3.493,3.493,3.493H240.4v11.57H240.182z M63.143,160.394h13.534c1.965,0,3.493-1.528,3.493-3.493V116.08
	c0-1.965-1.528-3.493-3.493-3.493H63.143c-1.965,0-3.493,1.528-3.493,3.493v40.821C59.869,158.866,61.397,160.394,63.143,160.394z
	 M66.636,119.573h6.767v34.054h-6.767C66.636,153.627,66.636,119.573,66.636,119.573z M76.896,219.989
	c1.965,0,3.493-1.528,3.493-3.493v-40.822c0-1.965-1.528-3.493-3.493-3.493H63.361c-1.965,0-3.493,1.528-3.493,3.493v40.822
	c0,1.965,1.528,3.493,3.493,3.493H76.896z M66.636,179.168h6.767v34.054h-6.767C66.636,213.222,66.636,179.168,66.636,179.168z
	 M206.128,160.394h13.534c1.965,0,3.493-1.528,3.493-3.493V116.08c0-1.965-1.528-3.493-3.493-3.493h-13.534
	c-1.965,0-3.493,1.528-3.493,3.493v40.821C202.853,158.866,204.381,160.394,206.128,160.394z M209.62,119.573h6.767v34.054h-6.767
	V119.573z M206.128,219.989h13.534c1.965,0,3.493-1.528,3.493-3.493v-40.822c0-1.965-1.528-3.493-3.493-3.493h-13.534
	c-1.965,0-3.493,1.528-3.493,3.493v40.822C202.853,218.461,204.381,219.989,206.128,219.989z M209.62,179.168h6.767v34.054h-6.767
	V179.168z M105.711,153.627h12.006c1.965,0,3.493-1.528,3.493-3.493V116.08c0-1.965-1.528-3.493-3.493-3.493h-12.006
	c-1.965,0-3.493,1.528-3.493,3.493v34.054C102.437,152.099,103.965,153.627,105.711,153.627z M109.204,119.573h5.021v27.287h-5.021
	V119.573z M134.745,153.627h12.006c1.965,0,3.493-1.528,3.493-3.493V116.08c0-1.965-1.528-3.493-3.493-3.493h-12.006
	c-1.965,0-3.493,1.528-3.493,3.493v34.054C131.252,152.099,132.78,153.627,134.745,153.627z M138.019,119.573h5.021v27.287h-5.021
	V119.573z M163.56,153.627h12.006c1.965,0,3.493-1.528,3.493-3.493V116.08c0-1.965-1.528-3.493-3.493-3.493H163.56
	c-1.965,0-3.493,1.528-3.493,3.493v34.054C160.285,152.099,161.813,153.627,163.56,153.627z M167.052,119.573h5.021v27.287h-5.021
	V119.573z"/>
</svg>
