<?xml version="1.0" encoding="utf-8"?>
<!-- Generator: Adobe Illustrator 17.0.0, SVG Export Plug-In . SVG Version: 6.00 Build 0)  -->
<!DOCTYPE svg PUBLIC "-//W3C//DTD SVG 1.1//EN" "http://www.w3.org/Graphics/SVG/1.1/DTD/svg11.dtd">
<svg version="1.1" id="Layer_1" xmlns="http://www.w3.org/2000/svg" xmlns:xlink="http://www.w3.org/1999/xlink" x="0px" y="0px"
	 width="283.46px" height="283.46px" viewBox="0 0 283.46 283.46" enable-background="new 0 0 283.46 283.46" xml:space="preserve">
<g>
	<path fill="#CDA16B" d="M34.115,77.557h26.358v22.593c0,2.08,1.686,3.765,3.765,3.765h11.296c1.217,0,2.358-0.588,3.065-1.578
		l17.701-24.781h35.716c2.08,0,3.765-1.686,3.765-3.765c-0.012-12.473-10.12-22.58-22.593-22.593H59.035l-6.469-12.98
		c-0.641-1.283-1.955-2.09-3.389-2.082H34.115c-2.08,0-3.765,1.686-3.765,3.765v33.889C30.35,75.871,32.036,77.557,34.115,77.557z
		 M73.596,96.384h-5.592V77.557h19.042L73.596,96.384z M127.774,70.026H37.881V58.729h75.309
		C120.055,58.739,126.049,63.381,127.774,70.026z M37.881,43.668h8.969l3.765,7.531H37.881V43.668z"/>
	<g>
		<path fill="#CDA16B" d="M249.779,220.395l-4.961-7.441c-2.126-2.835-5.315-4.606-8.858-4.606h-19.488l-12.047-12.047
			c-6.024-6.024-14.173-9.212-22.677-9.212H80.412c-9.921,0-17.716,7.795-17.716,17.716v3.543H44.98
			c-7.795,0-14.173,6.378-14.173,14.173v10.63c0,2.126,1.417,3.543,3.543,3.543h3.898c1.417,6.024,7.086,10.63,13.819,10.63
			s12.047-4.606,13.819-10.63h149.879c1.417,6.024,7.086,10.63,13.819,10.63c6.732,0,12.047-4.606,13.819-10.63h3.543
			c2.126,0,3.543-1.417,3.543-3.543v-10.63C250.488,221.812,250.134,221.103,249.779,220.395z M52.066,240.237
			c-3.898,0-7.086-3.189-7.086-7.086c0-3.898,3.189-7.087,7.086-7.087s7.087,3.189,7.087,7.087
			C59.153,237.048,55.964,240.237,52.066,240.237z M229.229,240.237c-3.898,0-7.087-3.189-7.087-7.086
			c0-3.898,3.189-7.087,7.087-7.087s7.087,3.189,7.087,7.087C236.315,237.048,233.126,240.237,229.229,240.237z M243.402,229.607
			h-0.354c-1.417-6.024-7.087-10.63-13.819-10.63s-12.047,4.606-13.819,10.63H65.885c-1.417-6.024-7.087-10.63-13.819-10.63
			s-12.047,4.606-13.819,10.63h-0.354v-7.087c0-3.898,3.189-7.087,7.087-7.087h21.259c2.126,0,3.543-1.417,3.543-3.543v-7.087
			c0-6.024,4.606-10.63,10.63-10.63h101.691c6.732,0,12.756,2.48,17.362,7.087l13.11,13.11c0.709,0.709,1.417,1.063,2.48,1.063
			h20.905c1.063,0,2.126,0.709,2.835,1.417l4.252,6.732v6.024H243.402z"/>
		<path fill="#CDA16B" d="M196.985,203.033c-3.189-3.189-7.795-5.315-12.401-5.315h-12.047c-2.126,0-3.543,1.417-3.543,3.543v10.63
			c0,2.126,1.417,3.543,3.543,3.543h28.346c1.417,0,2.835-0.709,3.189-2.126c0.354-1.417,0.354-2.835-0.709-3.898L196.985,203.033z
			 M176.08,208.348v-3.543h8.149c2.835,0,5.669,1.063,7.441,3.189l0.354,0.354H176.08z"/>
		<path fill="#CDA16B" d="M161.907,197.718h-21.26c-2.126,0-3.543,1.417-3.543,3.543v10.63c0,2.126,1.417,3.543,3.543,3.543h21.26
			c2.126,0,3.543-1.417,3.543-3.543v-10.63C165.45,199.135,164.033,197.718,161.907,197.718z M158.364,208.348h-14.173v-3.543
			h14.173V208.348z"/>
		<path fill="#CDA16B" d="M130.018,197.718h-21.259c-2.126,0-3.543,1.417-3.543,3.543v10.63c0,2.126,1.417,3.543,3.543,3.543h21.259
			c2.126,0,3.543-1.417,3.543-3.543v-10.63C133.561,199.135,132.144,197.718,130.018,197.718z M126.474,208.348h-14.173v-3.543
			h14.173V208.348z"/>
		<path fill="#CDA16B" d="M98.128,197.718H83.955c-6.024,0-10.63,4.606-10.63,10.63v3.543c0,2.126,1.417,3.543,3.543,3.543h21.259
			c2.126,0,3.543-1.417,3.543-3.543v-10.63C101.672,199.135,100.254,197.718,98.128,197.718z M94.585,208.348H80.412
			c0-2.126,1.417-3.543,3.543-3.543h10.63V208.348z"/>
	</g>
	<g>
		<path fill="#CDA16B" d="M102.594,150.05c-0.968,0-1.872,0.484-2.408,1.289L89.658,167.13c-0.516-0.212-1.016-0.462-1.495-0.748
			l-4.342-2.605l-2.979,4.964l4.342,2.605c5.369,3.229,12.082,3.229,17.451,0c3.536-2.127,7.958-2.127,11.494,0
			c5.369,3.229,12.082,3.229,17.451,0c3.536-2.127,7.958-2.127,11.494,0c5.369,3.229,12.082,3.229,17.451,0
			c3.536-2.127,7.958-2.127,11.494,0c5.369,3.229,12.082,3.229,17.451,0c3.536-2.127,7.958-2.127,11.494,0
			c5.369,3.229,12.082,3.229,17.451,0c3.536-2.127,7.958-2.127,11.494,0c5.369,3.229,12.082,3.229,17.451,0l4.342-2.605
			l-2.979-4.964l-4.342,2.605c-3.536,2.127-7.958,2.127-11.494,0c-5.369-3.229-12.082-3.229-17.451,0
			c-0.153,0.092-0.31,0.174-0.466,0.258l37.218-34.737c1.169-1.091,1.232-2.923,0.141-4.091c-0.547-0.586-1.314-0.919-2.116-0.919
			h-46.625c3.903-3.804,6.103-9.023,6.101-14.473c0-1.599-1.296-2.895-2.895-2.895h-30.449L165.639,96.14
			c-0.549-0.687-1.381-1.086-2.26-1.086h-46.313c-0.879,0-1.711,0.4-2.26,1.086l-11.578,14.473l0.001,0.001
			c-0.412,0.512-0.636,1.15-0.636,1.807v28.946c0,1.599,1.296,2.895,2.895,2.895h2.895v5.789H102.594z M242.872,132.683
			l-15.813,14.759v-0.286h-23.156v5.789h17.26l-15.353,14.329c-0.648-0.239-1.272-0.537-1.865-0.891
			c-5.369-3.229-12.082-3.229-17.451,0c-3.536,2.127-7.958,2.127-11.494,0c-5.369-3.229-12.082-3.229-17.451,0
			c-3.536,2.127-7.958,2.127-11.494,0c-5.369-3.229-12.082-3.229-17.451,0c-3.536,2.127-7.958,2.127-11.494,0
			c-5.369-3.229-12.082-3.229-17.451,0c-1.065,0.639-2.229,1.096-3.445,1.352l7.931-11.896h30.291c1.599,0,2.895-1.296,2.895-2.895
			v-11.578c0-1.599-1.296-2.895-2.895-2.895h-26.051v-5.789H242.872z M131.539,144.261v5.789h-5.789v-5.789H131.539z
			 M189.43,126.894h-81.047v-11.578h95.229C202.227,122.049,196.305,126.885,189.43,126.894z M118.457,100.843h43.531l6.947,8.684
			h-8.45v-5.789h-5.789v5.789h-5.789v-5.789h-5.789v5.789h-5.789v-5.789h-5.789v5.789h-5.789v-5.789h-5.789v5.789h-8.45
			L118.457,100.843z M114.172,144.261h5.789v5.789h-5.789V144.261z"/>
		<path fill="#CDA16B" d="M148.906,155.839h34.735c1.599,0,2.895-1.296,2.895-2.895h11.578v-5.789h-11.578v-5.789
			c0-1.599-1.296-2.895-2.895-2.895h-34.735c-1.599,0-2.895,1.296-2.895,2.895v11.578
			C146.012,154.543,147.308,155.839,148.906,155.839z M163.379,150.05v-5.789h5.789v5.789H163.379z M180.746,150.05h-5.789v-5.789
			h5.789V150.05z M151.801,144.261h5.789v5.789h-5.789V144.261z"/>
	</g>
</g>
</svg>
