<svg xmlns="http://www.w3.org/2000/svg" viewBox="0 0 283.46 199.59"><defs><style>.cls-1{fill:#cda16b;}</style></defs><g id="Layer_2" data-name="Layer 2"><g id="Layer_1-2" data-name="Layer 1"><path class="cls-1" d="M188.14,29.55V23a45.17,45.17,0,0,1,.63-6.25l.21-1.22-1.23.21a46.2,46.2,0,0,1-7.79.66h-7.37V9.06a46.08,46.08,0,0,1,.66-7.78l.21-1.23-1.23.21a47.45,47.45,0,0,1-5.71.61H161a46.2,46.2,0,0,1-7.79-.66L152,0l.21,1.22a46.4,46.4,0,0,1,.66,7.8v3.43a46.08,46.08,0,0,1-.66,7.78L152,21.46l1.23-.21a46.2,46.2,0,0,1,7.79-.66h8.35l-6,2.41a2.78,2.78,0,0,0-.93.61l-.65.65-.47-.47-.51-.51a.71.71,0,0,0-1,0l-.82.82a12.15,12.15,0,0,1-1.7,1.43l-.29.21.29.2a12.5,12.5,0,0,1,1.53,1.28l-6,6-5.41-5.4.09,0a46.37,46.37,0,0,1-5-6l-.72-1-.72,1a46.37,46.37,0,0,1-5,6l-5.35,5.35-3-3a2.79,2.79,0,0,0-2-.82h-3.22l.71-.7,1.32-1.32a13,13,0,0,1,1.7-1.43l.28-.2-.29-.21a12.79,12.79,0,0,1-1.69-1.43l-.83-.82a.69.69,0,0,0-1,0l-1,1L118,20.59h4.46a46.28,46.28,0,0,1,7.79.66l1.22.21-.21-1.22a46.31,46.31,0,0,1-.66-7.8V9a46.4,46.4,0,0,1,.66-7.8L131.47,0l-1.22.21a46.28,46.28,0,0,1-7.79.66h-5.52a47.66,47.66,0,0,1-5.71-.61L110,.05l.21,1.22a46.28,46.28,0,0,1,.66,7.79h0v7.36H103.5a46.28,46.28,0,0,1-7.79-.66l-1.22-.21.21,1.22A47.08,47.08,0,0,1,95.33,23v6.5a46.91,46.91,0,0,1-.63,6.26L94.49,37l1.22-.21a46.28,46.28,0,0,1,7.79-.66H109a43.89,43.89,0,0,1,5.71.61L116,37l-.38-2.27a47.64,47.64,0,0,1-.49-6.32,2.66,2.66,0,0,0-.18-.89l-2.58-6.67,6.4,6.39-1,1a.71.71,0,0,0,0,1l.83.83A12.17,12.17,0,0,1,120,31.7l.2.28.21-.28a12.42,12.42,0,0,1,1.27-1.53l6,6-5.12,5.12a46.5,46.5,0,0,1-6,5l-1,.72,1,.72A44.36,44.36,0,0,1,121,51.38l6.82,6.82-4.2,4.2h0l-1.85,1.85-16,16h0l-6.1,6.1a.69.69,0,0,0,0,1l0,0a19,19,0,0,1,2.13,2.51l.3.43.3-.43a20.49,20.49,0,0,1,2.12-2.52l1.14-1.13,5.7,5.7a15.71,15.71,0,0,1,1.71,2l.25.35.24-.35a15,15,0,0,1,1.71-2v0h0a.68.68,0,0,0,0-1l-4.42-4.42h4.68l1.71-1.72V80.12l4.43,4.42a.69.69,0,0,0,1,0h0v0h0a16.47,16.47,0,0,1,2-1.7l.34-.25-.34-.24a16.55,16.55,0,0,1-2-1.71l-5.7-5.71h0l-1.48-1.47h3l9.3-9.3a2.78,2.78,0,0,0,.81-2V59l7.31,7.31a46.37,46.37,0,0,1,5,6l.72,1,.72-1a46.28,46.28,0,0,1,5-6l2.16-2.16a2.78,2.78,0,0,0,.81-2V58.93l6.43,6.42,6.24,6.24h0l3.32,3.32-5.7,5.7a16.63,16.63,0,0,1-2,1.72l-.35.24.35.24a17.39,17.39,0,0,1,2,1.71l0,0a.69.69,0,0,0,1,0l4.42-4.42v4.67l1.71,1.72h4.68l-4.42,4.42a.69.69,0,0,0,0,1l0,0a15.67,15.67,0,0,1,1.7,2l.25.35.24-.35a15.79,15.79,0,0,1,1.72-2l5.7-5.7,1.47-1.48v3A20.42,20.42,0,0,1,181,89.87l.31.43.3-.43a18.17,18.17,0,0,1,2.12-2.51l0,0a.68.68,0,0,0,0-1L159.81,62.4l-4.24-4.24,5.31-5.31h0a46.45,46.45,0,0,1,6-5.05l1-.71-1-.72a47.19,47.19,0,0,1-6-5l-5.12-5.13,3-3a2.79,2.79,0,0,0,.82-2V28l2,2a13,13,0,0,1,1.43,1.7l.2.28.21-.28a12.26,12.26,0,0,1,1.43-1.7l.82-.82a.71.71,0,0,0,0-1l-1-1,3.67-3.67V28a46.28,46.28,0,0,1-.66,7.79L167.55,37l1.22-.21a43.25,43.25,0,0,1,5.68-.61H180a46.2,46.2,0,0,1,7.79.66L189,37l-.21-1.23A45,45,0,0,1,188.14,29.55ZM168.42,16.07a.35.35,0,0,1-.35.35H157.38a.34.34,0,0,1-.34-.35V5.39a.35.35,0,0,1,.34-.35h10.69a.35.35,0,0,1,.35.35ZM110.53,32H99.84a.34.34,0,0,1-.34-.34V20.94a.35.35,0,0,1,.34-.35h10.69a.35.35,0,0,1,.35.35V31.63A.35.35,0,0,1,110.53,32Zm4.52-15.9V5.39A.35.35,0,0,1,115.4,5h10.68a.35.35,0,0,1,.35.35V16.07a.35.35,0,0,1-.35.35H115.4A.34.34,0,0,1,115.05,16.07Zm-6.12,67h-2.69l7.62-4.93h0V83Zm60.68,0V78.1h0V75.41L174.54,83h-4.93ZM141.45,28.29a.34.34,0,0,1,.49,0l7.92,7.91-8.13,8.13-8.16-8.16Zm-18.55,19a.34.34,0,0,1,0-.49l4.73-4.73a2.76,2.76,0,0,0,.81-2V36.93l10.34,10.35-8,8Zm19,18.55a.34.34,0,0,1-.49,0l-7.69-7.68,0,0h0L143.91,48v3.22a2.79,2.79,0,0,0,.82,2h0l4.94,4.94Zm18.56-19a.36.36,0,0,1,0,.49l-7.88,7.88-7.94-7.93,5.13-5.13a2.78,2.78,0,0,0,.81-2V37l2.19,2.18.65.65.87.88ZM184,31.63a.35.35,0,0,1-.35.34H172.93a.34.34,0,0,1-.34-.34V20.94a.35.35,0,0,1,.34-.35h10.69a.35.35,0,0,1,.35.35Z"/><path class="cls-1" d="M15.61,169.46l8.48-19.09h7.14v.78h-.86a5.67,5.67,0,0,0-2.25.28,1.51,1.51,0,0,0-.71,1,21.46,21.46,0,0,0-.18,3.64v11.32a28.37,28.37,0,0,0,.14,3.56,1.83,1.83,0,0,0,.69,1.25,3.83,3.83,0,0,0,2.14.41h1v.79H20.11v-.79h.82a4,4,0,0,0,2.05-.37,1.72,1.72,0,0,0,.74-1.17,24.4,24.4,0,0,0,.16-3.68V152.75l-9.21,20.7h-.81l-9.28-20.7v13.52A27.67,27.67,0,0,0,4.75,170a3,3,0,0,0,1.07,1.77,4.21,4.21,0,0,0,2.5.85v.79H0v-.79a4.18,4.18,0,0,0,2.43-.81,2.92,2.92,0,0,0,1.14-1.77,24.27,24.27,0,0,0,.2-3.92v-10a23.33,23.33,0,0,0-.16-3.56,1.57,1.57,0,0,0-.68-1.1,5.33,5.33,0,0,0-2.3-.31H0v-.78H7.09Z"/><path class="cls-1" d="M60.6,164.94H51.77l-.61,1.46a14.74,14.74,0,0,0-1.33,4.15,1.85,1.85,0,0,0,.71,1.58,2.92,2.92,0,0,0,1.83.53v.79H45.45v-.79a3.75,3.75,0,0,0,2.3-1.08A13.2,13.2,0,0,0,49.57,168c0-.17.33-.83.82-2l6.76-16h.67l7.77,18.33,1.07,2.42a3.15,3.15,0,0,0,1,1.29,3.55,3.55,0,0,0,1.82.58v.79H60.31v-.79a6.66,6.66,0,0,0,2.27-.25.93.93,0,0,0,.59-1,9.71,9.71,0,0,0-.79-2.23Zm-.29-.77-4.12-9.84-4.1,9.84Z"/><path class="cls-1" d="M105,174,88.58,152.34v16a11.09,11.09,0,0,0,.19,2.62,2.26,2.26,0,0,0,1.13,1.16,5.76,5.76,0,0,0,2.78.52v.79H84v-.79a6.39,6.39,0,0,0,2.54-.6,1.91,1.91,0,0,0,1-1.05,12.37,12.37,0,0,0,.17-2.65V156.12a16.59,16.59,0,0,0-.25-3.56,1.67,1.67,0,0,0-.79-1.15,6.68,6.68,0,0,0-2.41-.26v-.78h6.86l13.78,18v-13.8a5.09,5.09,0,0,0-.32-2.14,2.21,2.21,0,0,0-1.3-1,6.79,6.79,0,0,0-2.35-.36v-.78h8.45v.78a6.31,6.31,0,0,0-2.33.56,2.17,2.17,0,0,0-1.08,1.06,6.59,6.59,0,0,0-.23,2.11V174Z"/><path class="cls-1" d="M125.94,173.21v-7.42h.86q1.45,7.25,6.91,7.25a5,5,0,0,0,3.8-1.39,4.34,4.34,0,0,0,1.35-3.1,4,4,0,0,0-1.19-2.92,14.62,14.62,0,0,0-4.32-2.48,32.27,32.27,0,0,1-4.22-2.09,6.25,6.25,0,0,1-2.22-2.32,6.07,6.07,0,0,1-.8-3.05,5.49,5.49,0,0,1,1.72-4.11,6.11,6.11,0,0,1,4.37-1.64,8,8,0,0,1,2.78.48,7.25,7.25,0,0,1,2.68,2,3.67,3.67,0,0,0,.89-2h.76v6h-.76a8.07,8.07,0,0,0-2.31-4.15,5.5,5.5,0,0,0-3.83-1.52,3.82,3.82,0,0,0-3,1.12,3.65,3.65,0,0,0-1,2.44,3.53,3.53,0,0,0,1.22,2.71,16.93,16.93,0,0,0,4.34,2.51,46.39,46.39,0,0,1,4.37,2.14,6.09,6.09,0,0,1,2.18,2.24,6.37,6.37,0,0,1,.83,3.3,6.29,6.29,0,0,1-2,4.82,7.52,7.52,0,0,1-5.32,1.85,8.14,8.14,0,0,1-6.38-2.91,5.64,5.64,0,0,0-.84,2.25Z"/><path class="cls-1" d="M158,151.15v-.78h10.63v.78h-.49a5.64,5.64,0,0,0-2.25.28,1.48,1.48,0,0,0-.71,1,21.46,21.46,0,0,0-.18,3.64v11.32a32.29,32.29,0,0,0,.12,3.56,1.85,1.85,0,0,0,.69,1.26,3.94,3.94,0,0,0,2.14.4h.68v.78H158v-.78h.68a4.08,4.08,0,0,0,2.07-.37,1.75,1.75,0,0,0,.73-1.17,26.52,26.52,0,0,0,.15-3.68V156.12a25.37,25.37,0,0,0-.15-3.56,1.51,1.51,0,0,0-.69-1.1,5.33,5.33,0,0,0-2.3-.31Z"/><path class="cls-1" d="M185.51,161.75a10.92,10.92,0,0,1,3.61-8.57,12.94,12.94,0,0,1,9-3.24,13.29,13.29,0,0,1,9.08,3.2,11,11,0,0,1,3.65,8.73,11.44,11.44,0,0,1-3.49,8.68,14.25,14.25,0,0,1-18.29,0,11.49,11.49,0,0,1-3.55-8.8m3.93.12q0,5.56,2.24,8.36T198.4,173a7.59,7.59,0,0,0,6.21-2.79q2.28-2.79,2.28-8.32t-2.25-8.25a8.82,8.82,0,0,0-13-.07q-2.24,2.81-2.24,8.28"/><path class="cls-1" d="M247.79,174l-16.45-21.63v16a10.4,10.4,0,0,0,.2,2.62,2.23,2.23,0,0,0,1.12,1.16,5.79,5.79,0,0,0,2.78.52v.79h-8.68v-.79a6.35,6.35,0,0,0,2.54-.6,1.94,1.94,0,0,0,1-1.05,12.37,12.37,0,0,0,.17-2.65V156.12a15.94,15.94,0,0,0-.25-3.56,1.67,1.67,0,0,0-.79-1.15,6.68,6.68,0,0,0-2.41-.26v-.78h6.86l13.78,18v-13.8a4.93,4.93,0,0,0-.32-2.14,2.22,2.22,0,0,0-1.29-1,6.83,6.83,0,0,0-2.35-.36v-.78h8.44v.78a6.31,6.31,0,0,0-2.33.56,2.17,2.17,0,0,0-1.08,1.06,6.89,6.89,0,0,0-.23,2.11V174Z"/><path class="cls-1" d="M268.07,173.21v-7.42h.86q1.45,7.25,6.92,7.25a5,5,0,0,0,3.8-1.39,4.37,4.37,0,0,0,1.34-3.1,4,4,0,0,0-1.18-2.92,14.62,14.62,0,0,0-4.32-2.48,31,31,0,0,1-4.22-2.09,6.33,6.33,0,0,1-3-5.37,5.46,5.46,0,0,1,1.73-4.11,6.09,6.09,0,0,1,4.37-1.64,8,8,0,0,1,2.77.48,7.1,7.1,0,0,1,2.68,2,3.6,3.6,0,0,0,.89-2h.76v6h-.76a8.06,8.06,0,0,0-2.3-4.15,5.54,5.54,0,0,0-3.84-1.52,3.79,3.79,0,0,0-3,1.12,3.61,3.61,0,0,0-1,2.44,3.52,3.52,0,0,0,1.21,2.71,17,17,0,0,0,4.35,2.51,45.93,45.93,0,0,1,4.36,2.14,6.11,6.11,0,0,1,2.19,2.24,6.46,6.46,0,0,1,.82,3.3,6.29,6.29,0,0,1-2,4.82,7.52,7.52,0,0,1-5.32,1.85,8.15,8.15,0,0,1-6.38-2.91,5.64,5.64,0,0,0-.84,2.25Z"/><path class="cls-1" d="M70.86,196.09h.29v3.12h-.29a2.32,2.32,0,0,0-.43-.94,3.87,3.87,0,0,1-3,1.32A4.22,4.22,0,0,1,63,195.14a5.54,5.54,0,0,1,.57-2.48,3.78,3.78,0,0,1,1.59-1.73,4.52,4.52,0,0,1,2.24-.57,4,4,0,0,1,1.82.41,3.84,3.84,0,0,1,1.22.91,3.25,3.25,0,0,0,.35-1.15h.29l.08,3.37h-.29a3.77,3.77,0,0,0-1.21-2.5,3.3,3.3,0,0,0-2.07-.7,2.65,2.65,0,0,0-2.24,1.13,5.47,5.47,0,0,0-.83,3.25,4.57,4.57,0,0,0,.91,3.07,2.83,2.83,0,0,0,2.25,1.07,3.37,3.37,0,0,0,1.48-.35,2.56,2.56,0,0,0,1.19-1.18,4.22,4.22,0,0,0,.52-1.6"/><path class="cls-1" d="M98.16,199.43H95.75a10.72,10.72,0,0,1-2-2.34c-.28-.4-.58-.79-.88-1.16a3.88,3.88,0,0,0-.63-.67.94.94,0,0,0-.54-.12h-.35v2a10.35,10.35,0,0,0,.05,1.38.69.69,0,0,0,.26.48,1.57,1.57,0,0,0,.83.16h.42v.3H88.65v-.3h.29a1.52,1.52,0,0,0,.8-.15.65.65,0,0,0,.28-.45,9.78,9.78,0,0,0,.06-1.42v-4.36a9.3,9.3,0,0,0-.06-1.37.58.58,0,0,0-.27-.43,2,2,0,0,0-.88-.12h-.15v-.3l1.28-.07c.86,0,1.53-.06,2-.06a7.55,7.55,0,0,1,2.09.24,2.88,2.88,0,0,1,1.3.77,1.84,1.84,0,0,1,.49,1.29,2,2,0,0,1-.64,1.49,3.29,3.29,0,0,1-1.91.77,7.15,7.15,0,0,1,1.81,1.94,9.26,9.26,0,0,0,1.6,1.78,2.47,2.47,0,0,0,1.38.45Zm-6.78-4.6c.33,0,.67,0,1,0a3.43,3.43,0,0,0,.92-.14,1.5,1.5,0,0,0,1-.94,2.63,2.63,0,0,0,.13-.9A2.26,2.26,0,0,0,94,191.3a2.7,2.7,0,0,0-2.06-.56l-.56,0Z"/><path class="cls-1" d="M114,194.92a4.22,4.22,0,0,1,1.39-3.31,5,5,0,0,1,3.47-1.25,5.11,5.11,0,0,1,3.5,1.24,4.23,4.23,0,0,1,1.41,3.36,4.4,4.4,0,0,1-1.35,3.35,5.49,5.49,0,0,1-7,0,4.42,4.42,0,0,1-1.37-3.39m1.52,0a5.06,5.06,0,0,0,.86,3.23,3.12,3.12,0,0,0,2.59,1.07,2.93,2.93,0,0,0,2.4-1.07,6.27,6.27,0,0,0,0-6.39,3.4,3.4,0,0,0-5,0,5,5,0,0,0-.86,3.19"/><path class="cls-1" d="M145.83,196.15h-3.41l-.23.56a5.68,5.68,0,0,0-.51,1.61.72.72,0,0,0,.27.6,1.14,1.14,0,0,0,.7.21v.3H140v-.3a1.38,1.38,0,0,0,.88-.42,5.06,5.06,0,0,0,.71-1.37c0-.07.12-.32.32-.76l2.6-6.18h.26l3,7.07.41.94a1.23,1.23,0,0,0,.37.49,1.38,1.38,0,0,0,.71.23v.3h-3.53v-.3a2.51,2.51,0,0,0,.88-.1.37.37,0,0,0,.23-.38,4.36,4.36,0,0,0-.31-.86Zm-.11-.3-1.59-3.79-1.58,3.79Z"/><path class="cls-1" d="M165.07,192.67h-.3l0-2.14h8.71l0,2.14h-.29a3.47,3.47,0,0,0-.41-1.27,1.08,1.08,0,0,0-.57-.48,4.18,4.18,0,0,0-1-.09h-1.45v6.28a12.3,12.3,0,0,0,.05,1.37.77.77,0,0,0,.27.49,1.46,1.46,0,0,0,.82.16h.44v.3h-4.47v-.3h.46a1.54,1.54,0,0,0,.8-.15.66.66,0,0,0,.28-.45,8.53,8.53,0,0,0,.06-1.42v-6.28H167.2a5.71,5.71,0,0,0-1.17.08,1,1,0,0,0-.56.5,3.44,3.44,0,0,0-.4,1.26"/><path class="cls-1" d="M190.49,190.83v-.3h4.11v.3h-.2a2,2,0,0,0-.86.11.56.56,0,0,0-.28.4,9.16,9.16,0,0,0-.07,1.41v4.36a9.77,9.77,0,0,0,.06,1.38.71.71,0,0,0,.26.48,1.53,1.53,0,0,0,.82.16h.27v.3h-4.11v-.3h.27a1.54,1.54,0,0,0,.8-.15.66.66,0,0,0,.28-.45,9.88,9.88,0,0,0,.06-1.42v-4.36a9.57,9.57,0,0,0-.06-1.38.58.58,0,0,0-.27-.42,2,2,0,0,0-.88-.12Z"/><path class="cls-1" d="M217.06,196.15h-3.41l-.24.56a5.68,5.68,0,0,0-.51,1.61.7.7,0,0,0,.28.6,1.1,1.1,0,0,0,.7.21v.3h-2.67v-.3a1.41,1.41,0,0,0,.89-.42,5.12,5.12,0,0,0,.7-1.37c0-.07.13-.32.32-.76l2.61-6.18H216l3,7.07.41.94a1.16,1.16,0,0,0,1.08.72v.3h-3.53v-.3a2.43,2.43,0,0,0,.88-.1.37.37,0,0,0,.23-.38,4,4,0,0,0-.3-.86Zm-.12-.3-1.58-3.79-1.59,3.79Z"/></g></g></svg>