<?xml version="1.0" encoding="utf-8"?>
<!-- Generator: Adobe Illustrator 24.3.0, SVG Export Plug-In . SVG Version: 6.00 Build 0)  -->
<svg version="1.1" id="Layer_1" xmlns="http://www.w3.org/2000/svg" xmlns:xlink="http://www.w3.org/1999/xlink" x="0px" y="0px"
	 viewBox="0 0 2000 1000" style="enable-background:new 0 0 2000 1000;" xml:space="preserve">
<style type="text/css">
	.st0{fill:#12271C;stroke:#000000;stroke-miterlimit:10;}
	.st1{fill:#D6A75E;}
</style>
<rect x="0" class="st0" width="2000" height="1000"/>
<path class="st1" d="M578.5,627.2c8.7,0.1,15.3,0.4,30.6,0.4c0.3,2.8,1.2,5.7,2.6,8.7c6.8,15.4,20.1,44.7,23.3,51
	c0.3,0.1,0.6,0.1,0.7-0.1c3.5-6.4,18.9-39.2,24-51c1.3-3.2,2.5-6.4,2.6-8.6c13.7,0,20.1-0.4,28.4-0.4c0.6,0.3,0.4,3.2,0,3.8
	c-4.1,0.4-6.6,1-8.5,1.6c-3.6,1.2-4.2,3.3-4.2,7c-0.3,9.8,0.9,53.3,1.6,63.4c0.3,4.4,1,7.4,5.2,8.3c1.9,0.6,4.4,1,7.6,1.3
	c0.4,0.6,0.3,3.1-0.3,3.8c-4.1,0-9.5-0.4-21.9-0.4c-7.9,0-14.6,0.4-19.4,0.4c-0.4-0.6-0.4-3.4,0-3.8c3.5-0.4,5.4-0.7,7.4-1.5
	c2.6-0.9,3.2-3.3,3.2-7c0.3-10.6,0-45-0.1-57.5c-0.1-0.1-0.4-0.1-0.6,0c-5.8,12.8-25.9,56.4-30.2,69.2c-0.9,0.3-4.7,0.3-5.1,0
	c-3.3-11.9-16.9-42.5-28.1-70.1c-0.3,0-0.4,0.1-0.6,0.3c-1,10.5-2.9,45.3-2.9,55.8c0,5.7,1.2,8,5.1,9.2c2.3,0.7,4.5,1,8.7,1.6
	c0.6,0.4,0.3,3.4-0.3,3.8c-4.5,0-9.6-0.4-17.5-0.4c-6.3,0-12.5,0.4-16.9,0.4c-0.4-0.6-0.4-3.2,0-3.8c2.5-0.3,4.5-0.6,6.6-1
	c4.2-1.2,5.7-2.9,6.7-10.3c1.5-10.8,4.5-49,5.2-61.2c0-2.8-0.7-5.8-3.8-7c-2.6-1-5.8-1.5-9.9-2.2C577.8,630.2,578,627.5,578.5,627.2
	"/>
<path class="st1" d="M807.9,712.5c-10.2-1.5-11.1-2.3-15.4-13.4c-2.7-7.1-8.3-23.4-13.4-38.2c-3.8-10.9-7.2-20.9-9-26
	c-0.7-2.5-1.6-5.5-2-7.4c-1.5,0-3.2,0.1-6.1,0.1c-2.3,0-4.5-0.1-6.1-0.1c-0.3,2-1.3,5.5-2.2,8.2c-3.5,10.2-16.8,46.6-24.5,65.1
	c-3.9,9.5-5.8,10.5-15.9,11.8c-0.4,0.6-0.4,3.4,0,3.8c4.2,0,9-0.4,15.2-0.4c7.6,0,13.5,0.4,17.6,0.4c0.4-0.4,0.7-3.2,0.4-3.8
	c-2.8-0.3-4.8-0.7-6.8-1.2c-4.1-1-4.2-3.1-4.2-5.1c0-3.1,4.5-14.7,7.1-22c0.1-0.6,0.9-1.3,1.5-1.3c1.7-0.1,5.1-0.1,11.9-0.1
	c1.6,0,3.1,0,4.6,0h8.1l4.9,14.8c0,0.1,0,0.2,0.1,0.3c1.2,3.7,2.6,7.7,3.1,9.7c0.3,0.9,0.3,2.5-1.6,3.3c-1.5,0.6-4.2,1.2-7.1,1.6
	c-0.4,0.6-0.3,3.2,0,3.8c4.7-0.1,9.9-0.4,20.4-0.4c8.7,0,15.6,0.4,19.2,0.4C807.9,715.8,808.2,713,807.9,712.5 M765.8,675.2
	c0.1,0.3-0.1,0.9-0.4,0.9c-1.3,0.1-5.7,0-9.9,0c-4.8,0-8,0-9.5-0.1c-0.3,0-0.4-0.3-0.3-0.9c2.2-6.7,7-21.4,9.8-29.4
	c0.1-0.1,0.6,0,0.7,0c1.3,3.8,3.3,9.5,5.1,15.2l0,0C763,666.2,764.8,671.7,765.8,675.2"/>
<path class="st1" d="M828.8,627.2c4.5,0,12.1,0.4,19.5,0.4c3.9,0,7.1,0,8.6-0.1c0.7,1.7,2,3.6,5.2,7.7
	c12.2,15.7,37.6,47.6,46.5,58.3c0.1,0,0.1-0.1,0.4-0.1c0-18.5,0.3-43.9-0.6-52.9c-0.6-4.8-1.7-6.8-6.1-8.2c-2.6-0.6-5-1-8.9-1.5
	c-0.4-0.4-0.1-3.2,0.1-3.6c3.9,0,10.5,0.4,18.6,0.4c6.3,0,13.3-0.4,15.4-0.4c0.4,0.4,0.4,3.2,0,3.6c-2.3,0.4-4.1,0.7-5.8,1.3
	c-4.1,1.3-5.2,3.6-5.7,8.6c-0.9,12.7-1,36-1.2,56.1c0,6.6,0.1,14.9,0.3,19.8c-2.2-0.1-9.6-0.1-12.2,0.1
	c-7.3-10.6-45.5-59.9-53.2-70.1c-0.3-0.3-0.7,0-0.7,0.1c-0.3,15.6-0.1,48.7,0.3,55.4c0.3,6.1,2.3,8.2,6.3,9c2.2,0.6,4.8,0.9,8.2,1.3
	c0.4,0.4,0.4,3.2-0.1,3.8c-3.9,0-10.5-0.4-17.5-0.4c-8.3,0-14,0.4-17.5,0.4c-0.4-0.4-0.3-3.4,0-3.8c3.2-0.4,5.5-0.7,7.9-1.5
	c3.1-0.9,4.5-2.9,5.1-8.5c0.7-7.3,1.3-33.8,1.5-60.3c0-3.4-1.6-7.4-5-8.9c-2.8-1.5-5.4-2-9.6-2.5
	C828.3,630.5,828.4,627.6,828.8,627.2"/>
<path class="st1" d="M970,709.8c3.8,2.8,8.7,3.8,13.7,3.8c7.6,0,13.5-5.1,13.5-13.9c0-8.3-4.2-13-16.9-20.8
	c-13.3-8.5-22-14.7-22-28.5c0-16.3,13.4-25.5,29.6-25.5c10.3,0,16.3,1.9,22.6,2.3c-1,5.4-2,12.1-2.5,20.5c-0.6,0.6-3.4,0.6-3.8,0.1
	c-1.2-8.9-2.8-13.1-6.4-15.6c-3.4-2.3-6.8-3.1-11.2-3.1c-8.7,0-13.8,6.3-14,13.5c0,6.8,3.4,11.2,9.2,15.4c6,4.1,10.6,7.2,16.5,10.8
	c9.3,6,14.9,12.5,14.9,22.7c0,15.3-12.1,26.6-33.2,26.6c-9.2,0-18.2-2.6-21.3-4.5c-1.5-2.2-3.6-17.2-4.1-22c0.4-0.7,3.4-1.5,3.9-1
	C961.4,700.8,964.8,706.2,970,709.8"/>
<path class="st1" d="M1044.8,627.2c4.5,0,11.1,0.4,20.1,0.4c11.2,0,16.6-0.4,19.5-0.4c0.3,0.6,0.4,3.1,0,3.6c-2.9,0.4-5.4,0.9-7,1.3
	c-3.2,1.2-3.5,2.9-3.8,7.9c-0.1,4.8-0.1,17.3-0.1,29.9c0,18.1,0,28.7,0.3,33.9c0.1,3.2,0.3,6.6,4.5,7.4c1.9,0.6,4.8,1,7.6,1.3
	c0.4,0.6,0.1,3.5-0.3,3.8c-5.7-0.1-11.4-0.4-19.7-0.4c-11.4,0-15.6,0.4-21.1,0.4c-0.7-0.4-0.7-3.2,0-3.8c2.8-0.3,4.8-0.6,6.6-1
	c3.6-0.9,4.4-2.3,4.8-7.4c0.3-5.2,0.3-21,0.3-36c0-14,0-22.9-0.4-29.6c-0.1-3.2-0.9-5.4-3.6-6.3c-2-0.6-4.2-1-7.7-1.5
	C1044.2,630.3,1044.3,627.6,1044.8,627.2"/>
<path class="st1" d="M1130.6,705.2c-8.7-9.5-12.2-22.3-12.2-33.8c0-11.2,3.1-21.6,10.2-29.4c8.2-10.3,22-17,37.7-17
	c29.9,0,45.6,20.8,45.6,45.3c0,11.2-2.8,21.6-8.7,29.6c-9,12.5-23.3,18.6-38.5,18.6C1149.8,718.4,1138.3,713.3,1130.6,705.2
	 M1182.6,708c7.4-7,10.2-20.1,10.2-32.8c0-14.9-4.2-31-14.3-39.3c-4.5-3.8-9.8-5.8-16.2-5.8c-4.5,0-8.9,1.5-12.1,3.6
	c-9,6.3-12.7,19.1-12.7,33.4c0,14.1,4.4,31.6,15.6,40.5c4.4,3.5,9.8,5.5,16.3,5.5C1174.4,713.1,1179.3,711.1,1182.6,708"/>
<path class="st1" d="M1242.8,627.2c4.5,0,12.1,0.4,19.5,0.4c3.9,0,7.1,0,8.6-0.1c0.7,1.7,2,3.6,5.2,7.7
	c12.2,15.7,37.6,47.6,46.5,58.3c0.1,0,0.1-0.1,0.4-0.1c0-18.5,0.3-43.9-0.6-52.9c-0.6-4.8-1.7-6.8-6.1-8.2c-2.6-0.6-5-1-8.9-1.5
	c-0.4-0.4-0.1-3.2,0.1-3.6c3.9,0,10.5,0.4,18.6,0.4c6.3,0,13.3-0.4,15.4-0.4c0.4,0.4,0.4,3.2,0,3.6c-2.3,0.4-4.1,0.7-5.8,1.3
	c-4.1,1.3-5.2,3.6-5.7,8.6c-0.9,12.7-1,36-1.2,56.1c0,6.6,0.1,14.9,0.3,19.8c-2.2-0.1-9.6-0.1-12.2,0.1
	c-7.3-10.6-45.5-59.9-53.2-70.1c-0.3-0.3-0.7,0-0.7,0.1c-0.3,15.6-0.1,48.7,0.3,55.4c0.3,6.1,2.3,8.2,6.3,9c2.2,0.6,4.8,0.9,8.2,1.3
	c0.4,0.4,0.4,3.2-0.1,3.8c-3.9,0-10.5-0.4-17.5-0.4c-8.3,0-14,0.4-17.5,0.4c-0.4-0.4-0.3-3.4,0-3.8c3.2-0.4,5.5-0.7,7.9-1.5
	c3.1-0.9,4.5-2.9,5.1-8.5c0.7-7.3,1.3-33.8,1.5-60.3c0-3.4-1.6-7.4-5-8.9c-2.8-1.5-5.4-2-9.6-2.5
	C1242.4,630.5,1242.6,627.6,1242.8,627.2"/>
<path class="st1" d="M1384.2,709.8c3.8,2.8,8.7,3.8,13.7,3.8c7.6,0,13.5-5.1,13.5-13.9c0-8.3-4.2-13-16.9-20.8
	c-13.3-8.5-22-14.7-22-28.5c0-16.3,13.4-25.5,29.6-25.5c10.3,0,16.3,1.9,22.6,2.3c-1,5.4-2,12.1-2.5,20.5c-0.6,0.6-3.4,0.6-3.8,0.1
	c-1.2-8.9-2.8-13.1-6.4-15.6c-3.4-2.3-6.8-3.1-11.2-3.1c-8.7,0-13.8,6.3-14,13.5c0,6.8,3.3,11.2,9.2,15.4c6,4.1,10.6,7.2,16.5,10.8
	c9.3,6,14.9,12.5,14.9,22.7c0,15.3-12.1,26.6-33.2,26.6c-9.2,0-18.2-2.6-21.3-4.5c-1.5-2.2-3.6-17.2-4.1-22c0.4-0.7,3.3-1.5,3.9-1
	C1375.6,700.8,1378.9,706.2,1384.2,709.8"/>
<path class="st1" d="M1183.6,322.7V297c0.3-8.2,1.1-16.4,2.5-24.5l0.8-4.8l-4.8,0.8c-10.1,1.7-20.4,2.6-30.7,2.6l0,0h-29v-29
	c0-10.2,0.9-20.5,2.6-30.6l0.8-4.8l-4.9,0.7c-7.4,1.3-14.9,2.1-22.5,2.4h-21.7c-10.2,0-20.6-0.9-30.7-2.6l-4.8-0.8l0.8,4.8
	c1.7,10.2,2.6,20.4,2.6,30.7v13.5c0,10.2-0.9,20.5-2.6,30.7l-0.8,4.8l4.8-0.8c10.1-1.7,20.4-2.6,30.7-2.6h32.9l-23.4,9.5
	c-1.4,0.6-2.6,1.4-3.7,2.5l-2.5,2.5l-1.9-1.9l-2-2c-1.1-1.1-2.8-1.1-3.9,0l-3.2,3.2c-2.1,2.1-4.3,4-6.7,5.6l-1.2,0.8l1.2,0.8
	c2.2,1.5,4.1,3.2,6,5l-23.8,23.8l-21.3-21.3l0.4,0.1c-7.3-7.3-13.9-15.1-19.8-23.5l-2.8-4l-2.8,4c-5.9,8.4-12.6,16.2-19.8,23.5
	l-21.1,21.1l-11.8-11.8c-2-2-4.8-3.2-7.7-3.2h-12.6l2.8-2.8l5.2-5.2c2.1-2.1,4.3-4,6.7-5.6l1.2-0.8l-1.2-0.8
	c-2.4-1.7-4.6-3.5-6.7-5.6l-3.2-3.2c-1.1-1.1-2.8-1.1-3.9,0l-3.9,3.9l-14.4-14.4h17.5c10.2,0,20.6,0.9,30.7,2.6l4.8,0.8l-0.8-4.8
	c-1.7-10.2-2.6-20.4-2.6-30.7V242c0-10.3,0.9-20.6,2.6-30.7l0.8-4.8l-4.8,0.8c-10.1,1.7-20.4,2.6-30.7,2.6h-21.7
	c-7.5-0.4-15.1-1.2-22.5-2.4l-4.8-0.8l0.8,4.8c1.7,10.1,2.6,20.4,2.6,30.7l0,0V271h-29l0,0c-10.2,0-20.6-0.9-30.7-2.6l-4.8-0.8
	l0.8,4.8c1.4,8.2,2.2,16.4,2.5,24.6v25.6c-0.3,8.2-1.1,16.4-2.5,24.6l-0.8,4.8l4.8-0.8c10.1-1.7,20.4-2.6,30.7-2.6h21.7
	c7.5,0.4,15,1.2,22.5,2.4l4.8,0.8l-1.5-8.9c-1.4-8.2-1.6-16.6-1.9-24.9c-0.1-1.2-0.3-2.4-0.7-3.5l-10.3-26.2l25.2,25.2l-3.9,3.9
	c-1.1,1.1-1.1,2.8,0,3.9l3.2,3.2c2,2,3.9,4.3,5.6,6.6l0.8,1.2l0.8-1.2c1.5-2.2,3.2-4.1,5-6l23.6,23.6L925.5,369
	c-7.3,7.3-15.1,13.9-23.5,19.8l-4,2.8l4,2.8c6.1,4.3,12,9.1,17.6,14.2l26.8,26.8l-16.5,16.5l-7.3,7.3l-63,62.9l0,0l-24,24
	c-1.1,1.1-1.1,2.8,0,3.9l0.1,0.1c3,3,5.8,6.3,8.4,9.9l1.2,1.7l1.2-1.7c2.5-3.5,5.3-6.9,8.4-9.9l4.5-4.5l22.4,22.4
	c2.5,2.5,4.8,5.1,6.8,8l0.9,1.4l0.9-1.4c2-2.8,4.3-5.5,6.7-7.9l0.1-0.1l0,0c1.1-1.1,1.1-2.8,0-3.9l-17.4-17.4h18.4l6.8-6.7v-18.4
	l17.4,17.4c1.1,1.1,2.8,1.1,3.9,0l0,0l0.1-0.1c2.5-2.5,5.1-4.7,7.9-6.7l1.4-0.9l-1.4-0.9c-2.8-2-5.5-4.3-8-6.7l-22.4-22.3l0,0
	l-5.8-5.8h11.6l36.6-36.6c2-2,3.2-4.8,3.2-7.7v-12.6l28.8,28.8c7.3,7.3,13.9,15.1,19.8,23.5l2.8,4l2.8-4
	c5.9-8.4,12.6-16.2,19.8-23.5l8.5-8.5c2-2,3.2-4.8,3.2-7.7v-12.6l25.2,25.2l24.5,24.5l13.1,13.1l-22.4,22.4c-2.5,2.5-5.1,4.8-8,6.8
	l-1.4,0.9l1.4,0.9c2.8,2,5.5,4.3,7.9,6.7l0.1,0.1c1.1,1.1,2.8,1.1,3.9,0l17.4-17.4v18.4l6.7,6.7h18.4l-17.4,17.4
	c-1.1,1.1-1.1,2.8,0,3.9l0.1,0.1c2.5,2.5,4.7,5.1,6.7,7.9l0.9,1.4l0.9-1.4c2-2.9,4.3-5.6,6.8-8l22.4-22.4l5.8-5.8v11.7
	c2.5,2.7,4.9,5.5,7,8.5l1.2,1.7l1.2-1.7c2.5-3.5,5.3-6.9,8.4-9.9l0.1-0.1c1.1-1.1,1.1-2.8,0-3.9l-94-94.3l-16.7-16.7l20.9-20.9
	c7.3-7.3,15.1-13.9,23.5-19.8l4-2.8l-4-2.8c-8.4-5.9-16.2-12.6-23.5-19.8l-20.2-20.2l12-12c2-2,3.2-4.8,3.2-7.7v-12.7l7.9,7.9
	c2.1,2.1,4,4.3,5.6,6.7l0.8,1.2l0.8-1.2c1.7-2.4,3.5-4.6,5.6-6.7l3.2-3.2c1.1-1.1,1.1-2.8,0-3.9l-3.9-3.9l14.4-14.4v17.2
	c0,10.2-0.9,20.5-2.6,30.7l-0.8,4.8l4.8-0.8c7.4-1.3,14.8-2.1,22.4-2.4h21.7c10.2,0,20.6,0.9,30.7,2.6l4.8,0.8l-0.8-4.8
	C1184.8,339.2,1183.8,331,1183.6,322.7 M1106.1,269.6c0,0.7-0.6,1.4-1.4,1.4h-42.1c-0.7,0-1.4-0.6-1.4-1.4v-42
	c0-0.7,0.6-1.4,1.4-1.4h42.1c0.7,0,1.4,0.6,1.4,1.4V269.6L1106.1,269.6z M878.2,332.2h-42.1c-0.7,0-1.4-0.6-1.4-1.4v-42.1
	c0-0.7,0.6-1.4,1.4-1.4h42.1c0.7,0,1.4,0.6,1.4,1.4v42.1C879.6,331.7,878.9,332.2,878.2,332.2 M896,269.6v-42c0-0.7,0.6-1.4,1.4-1.4
	h42.1c0.7,0,1.4,0.6,1.4,1.4v42.1c0,0.7-0.6,1.4-1.4,1.4h-42.1C896.6,271,896,270.5,896,269.6 M871.9,533.2h-10.6l30-19.4v19.4
	H871.9L871.9,533.2z M1110.8,533.2v-19.4v-10.6l19.4,30H1110.8L1110.8,533.2z M999.9,317.8c0.5-0.5,1.4-0.5,1.9,0l31.2,31.2l-32,32
	l-32.1-32.1L999.9,317.8z M926.9,392.7c-0.5-0.5-0.5-1.4,0-1.9l18.6-18.6c2-2,3.2-4.8,3.2-7.7v-12.6l40.7,40.7L958,424L926.9,392.7z
	 M1001.8,465.6c-0.5,0.5-1.4,0.5-1.9,0l-30.2-30.2l0.1-0.1l0,0l39.8-39.8v12.6c0,2.9,1.2,5.7,3.2,7.7l19.4,19.4L1001.8,465.6z
	 M1074.8,390.8c0.5,0.5,0.5,1.4,0,1.9l-31,31l-31.2-31.2l20.2-20.2c2-2,3.2-4.8,3.2-7.7V352l8.6,8.6l2.6,2.6l3.5,3.5L1074.8,390.8z
	 M1167.2,330.9c0,0.7-0.6,1.4-1.4,1.4h-42.1c-0.7,0-1.4-0.6-1.4-1.4v-42.1c0-0.7,0.6-1.4,1.4-1.4h42.1c0.7,0,1.4,0.6,1.4,1.4V330.9
	L1167.2,330.9z"/>
<path class="st1" d="M809.8,757.4c-4.4,0-7.8,1.4-10.2,4.2c-2.4,2.8-3.6,6.6-3.6,11.5c0,4.8,1.3,8.7,3.8,11.6s5.9,4.4,10.2,4.4
	c5.5,0,9.7-2.7,12.4-8.2l4.4,2.2c-1.6,3.4-3.9,6-6.8,7.7c-2.9,1.8-6.3,2.7-10.2,2.7c-4,0-7.4-0.8-10.3-2.5c-2.9-1.6-5.1-4-6.6-7.1
	s-2.3-6.7-2.3-10.9c0-6.3,1.7-11.2,5.1-14.8c3.4-3.6,8.1-5.3,14.1-5.3c4.2,0,7.7,0.8,10.5,2.5c2.8,1.6,4.9,4.1,6.2,7.3l-5.1,1.7
	c-0.9-2.3-2.4-4-4.4-5.3C815,758.1,812.6,757.4,809.8,757.4"/>
<path class="st1" d="M890.2,793.2L880,776.8h-12.3v16.4h-5.3v-39.4H881c4.4,0,7.9,1,10.3,3c2.4,2,3.6,4.7,3.6,8.3
	c0,2.9-0.9,5.4-2.6,7.4s-4.1,3.3-7.1,3.8l11.2,17L890.2,793.2L890.2,793.2z M889.4,765.1c0-2.3-0.8-4-2.3-5.2
	c-1.6-1.2-3.8-1.8-6.7-1.8h-12.7v14.5h12.9c2.8,0,5-0.7,6.5-2C888.6,769.2,889.4,767.4,889.4,765.1"/>
<path class="st1" d="M969.4,773.2c0,4.1-0.8,7.7-2.4,10.8c-1.6,3.1-3.8,5.5-6.8,7.1c-2.9,1.7-6.4,2.5-10.4,2.5s-7.5-0.8-10.5-2.5
	c-2.9-1.6-5.2-4-6.7-7.1s-2.3-6.7-2.3-10.9c0-6.3,1.7-11.2,5.2-14.8c3.4-3.6,8.2-5.3,14.4-5.3c4,0,7.5,0.8,10.4,2.4
	c2.9,1.6,5.2,3.9,6.8,7C968.6,765.6,969.4,769.1,969.4,773.2 M964,773.2c0-4.9-1.2-8.8-3.7-11.5c-2.5-2.8-5.9-4.2-10.4-4.2
	s-8,1.4-10.5,4.1c-2.5,2.8-3.7,6.6-3.7,11.6c0,4.9,1.2,8.9,3.7,11.8c2.5,2.9,5.9,4.3,10.4,4.3s8-1.4,10.5-4.2
	C962.8,782.3,964,778.3,964,773.2"/>
<path class="st1" d="M1033.4,793.2l-4.5-11.5h-18l-4.5,11.5h-5.5l16.1-39.4h6.1l15.8,39.4H1033.4L1033.4,793.2z M1019.9,757.8
	l-0.2,0.8c-0.5,1.5-1.2,3.5-2.1,6l-5,12.9h14.7l-5.1-13c-0.5-1.3-1-2.7-1.6-4.4L1019.9,757.8z"/>
<polygon class="st1" points="1083.6,758.1 1083.6,793.2 1078.2,793.2 1078.2,758.1 1064.7,758.1 1064.7,753.8 1097.1,753.8 
	1097.1,758.1 "/>
<rect x="1132.2" y="753.8" class="st1" width="5.3" height="39.4"/>
<path class="st1" d="M1204.1,793.2l-4.5-11.5h-17.9l-4.5,11.5h-5.5l16.1-39.4h6.1l15.8,39.4H1204.1L1204.1,793.2z M1190.6,757.8
	l-0.3,0.8c-0.5,1.5-1.2,3.5-2.1,6l-5,12.9h14.8l-5.1-13c-0.5-1.3-1-2.7-1.6-4.4L1190.6,757.8z"/>
</svg>
