<?xml version="1.0" encoding="utf-8"?>
<!-- Generator: Adobe Illustrator 17.0.0, SVG Export Plug-In . SVG Version: 6.00 Build 0)  -->
<!DOCTYPE svg PUBLIC "-//W3C//DTD SVG 1.1//EN" "http://www.w3.org/Graphics/SVG/1.1/DTD/svg11.dtd">
<svg version="1.1" id="Layer_1" xmlns="http://www.w3.org/2000/svg" xmlns:xlink="http://www.w3.org/1999/xlink" x="0px" y="0px"
	 width="992.126px" height="992.126px" viewBox="0 0 992.126 992.126" enable-background="new 0 0 992.126 992.126"
	 xml:space="preserve">
<path fill="#D6A75E" d="M89.33,601.002c8.433,0.141,14.759,0.423,29.513,0.423c0.282,2.67,1.123,5.481,2.529,8.431
	c6.606,14.898,19.395,43.145,22.485,49.188c0.282,0.141,0.563,0.141,0.702-0.141c3.374-6.183,18.272-37.803,23.189-49.185
	c1.264-3.093,2.388-6.185,2.529-8.292c13.211,0,19.395-0.423,27.407-0.423c0.559,0.282,0.421,3.093,0,3.654
	c-3.936,0.423-6.326,0.984-8.153,1.547c-3.513,1.123-4.077,3.231-4.077,6.744c-0.28,9.415,0.845,51.435,1.547,61.133
	c0.28,4.215,0.982,7.167,5.058,8.01c1.827,0.561,4.217,0.984,7.308,1.264c0.423,0.563,0.282,2.952-0.28,3.656
	c-3.934,0-9.135-0.423-21.081-0.423c-7.592,0-14.052,0.423-18.692,0.423c-0.42-0.563-0.42-3.233,0-3.656
	c3.372-0.421,5.199-0.702,7.169-1.404c2.527-0.843,3.09-3.231,3.09-6.744c0.282-10.262,0-43.427-0.139-55.514
	c-0.143-0.139-0.425-0.139-0.563,0c-5.622,12.368-25.016,54.389-29.091,66.755c-0.843,0.282-4.497,0.282-4.92,0
	c-3.231-11.523-16.302-41.037-27.123-67.598c-0.28,0-0.423,0.141-0.563,0.282c-0.982,10.119-2.809,43.707-2.809,53.825
	c0,5.481,1.123,7.728,4.92,8.853c2.247,0.704,4.356,0.984,8.431,1.545c0.559,0.423,0.282,3.233-0.282,3.656
	c-4.356,0-9.274-0.423-16.863-0.423c-6.042,0-12.089,0.423-16.302,0.423c-0.423-0.563-0.423-3.093,0-3.656
	c2.388-0.28,4.356-0.561,6.324-0.982c4.074-1.125,5.481-2.811,6.465-9.98c1.402-10.398,4.356-47.218,5.058-59.025
	c0-2.67-0.702-5.62-3.656-6.744c-2.527-0.984-5.62-1.407-9.555-2.109C88.628,603.954,88.907,601.284,89.33,601.002"/>
<path fill="#D6A75E" d="M310.661,683.355c-9.837-1.404-10.68-2.247-14.895-12.928c-2.593-6.89-8.036-22.605-12.962-36.892
	c-3.618-10.488-6.956-20.206-8.682-25.085c-0.702-2.388-1.543-5.342-1.968-7.167c-1.402,0-3.091,0.139-5.901,0.139
	c-2.25,0-4.354-0.139-5.901-0.139c-0.282,1.966-1.266,5.34-2.109,7.869c-3.374,9.837-16.161,44.97-23.61,62.819
	c-3.795,9.135-5.622,10.119-15.318,11.382c-0.423,0.563-0.423,3.233,0,3.654c4.077,0,8.712-0.421,14.616-0.421
	c7.306,0,13.068,0.421,17.004,0.421c0.42-0.421,0.704-3.091,0.42-3.654c-2.668-0.28-4.638-0.702-6.606-1.123
	c-3.936-0.984-4.074-2.952-4.074-4.92c0-2.95,4.358-14.193,6.885-21.219c0.141-0.563,0.845-1.266,1.407-1.266
	c1.686-0.141,4.92-0.141,11.523-0.141c1.537,0,3.018,0,4.397,0.004h7.769l4.696,14.255c0.032,0.1,0.047,0.205,0.081,0.303
	c1.199,3.532,2.487,7.412,3.014,9.329c0.282,0.843,0.282,2.388-1.545,3.231c-1.406,0.563-4.074,1.125-6.887,1.545
	c-0.42,0.563-0.28,3.093,0,3.654c4.499-0.141,9.555-0.421,19.676-0.421c8.433,0,15.038,0.421,18.549,0.421
	C310.661,686.588,310.94,683.777,310.661,683.355 M270.047,647.379c0.139,0.282-0.141,0.843-0.421,0.843
	c-1.268,0.141-5.481,0-9.557,0c-4.638,0-7.731,0-9.135-0.141c-0.282,0-0.42-0.282-0.282-0.843
	c2.109-6.465,6.747-20.658,9.417-28.389c0.141-0.141,0.561,0,0.702,0c1.293,3.667,3.14,9.207,4.915,14.686l0.006,0.021
	C267.388,638.784,269.018,643.951,270.047,647.379"/>
<path fill="#D6A75E" d="M330.749,601.002c4.358,0,11.664,0.423,18.831,0.423c3.795,0,6.885,0,8.292-0.141
	c0.704,1.686,1.966,3.513,5.06,7.449c11.805,15.177,36.258,45.954,44.829,56.212c0.141,0,0.141-0.139,0.423-0.139
	c0-17.849,0.282-42.3-0.561-51.015c-0.563-4.638-1.686-6.606-5.906-7.869c-2.527-0.561-4.777-0.984-8.571-1.407
	c-0.42-0.42-0.141-3.09,0.139-3.513c3.799,0,10.121,0.423,17.99,0.423c6.044,0,12.789-0.423,14.898-0.423
	c0.42,0.423,0.42,3.093,0,3.513c-2.247,0.423-3.936,0.702-5.622,1.266c-3.934,1.264-5.058,3.513-5.479,8.292
	c-0.847,12.225-0.986,34.713-1.127,54.105c0,6.324,0.141,14.336,0.28,19.113c-2.107-0.141-9.274-0.141-11.803,0.141
	c-7.026-10.26-43.845-57.759-51.296-67.596c-0.277-0.282-0.702,0-0.702,0.139c-0.28,15.039-0.141,46.94,0.28,53.405
	c0.282,5.901,2.25,7.869,6.047,8.712c2.107,0.561,4.636,0.843,7.867,1.264c0.423,0.423,0.423,3.093-0.139,3.656
	c-3.795,0-10.119-0.423-16.865-0.423c-8.01,0-13.491,0.423-16.863,0.423c-0.421-0.423-0.282-3.233,0-3.656
	c3.093-0.421,5.34-0.702,7.59-1.404c2.952-0.843,4.356-2.811,4.917-8.151c0.702-7.026,1.266-32.604,1.406-58.182
	c0-3.231-1.545-7.167-4.779-8.574c-2.67-1.404-5.199-1.966-9.276-2.388C330.328,604.235,330.467,601.425,330.749,601.002"/>
<path fill="#D6A75E" d="M467.063,680.826c3.654,2.67,8.433,3.654,13.209,3.654c7.308,0,13.071-4.96,13.071-13.393
	c0-8.012-4.079-12.509-16.304-20.097c-12.789-8.151-21.222-14.153-21.222-27.503c0-15.741,12.932-24.594,28.532-24.594
	c9.976,0,15.741,1.827,21.781,2.25c-0.984,5.199-1.966,11.664-2.386,19.815c-0.566,0.561-3.233,0.561-3.654,0.139
	c-1.125-8.571-2.672-12.646-6.185-15.036c-3.234-2.247-6.606-2.952-10.821-2.952c-8.433,0-13.352,6.042-13.491,13.071
	c0,6.606,3.231,10.821,8.853,14.895c5.763,3.936,10.26,6.93,15.879,10.443c8.994,5.763,14.334,12.087,14.334,21.924
	c0,14.757-11.662,25.676-32.04,25.676c-8.853,0-17.568-2.529-20.517-4.356c-1.407-2.109-3.513-16.584-3.936-21.222
	c0.423-0.702,3.231-1.404,3.793-0.984C458.769,672.112,462.003,677.313,467.063,680.826"/>
<path fill="#D6A75E" d="M539.148,601.002c4.358,0,10.68,0.423,19.395,0.423c10.821,0,16.022-0.423,18.831-0.423
	c0.282,0.563,0.423,2.952,0,3.513c-2.809,0.423-5.199,0.845-6.744,1.266c-3.093,1.125-3.372,2.811-3.654,7.588
	c-0.139,4.638-0.139,16.725-0.139,28.811c0,17.427,0,27.686,0.28,32.745c0.141,3.091,0.28,6.324,4.356,7.167
	c1.825,0.561,4.638,0.984,7.306,1.264c0.423,0.563,0.143,3.374-0.28,3.656c-5.481-0.143-10.962-0.423-18.972-0.423
	c-10.962,0-15.036,0.423-20.378,0.423c-0.704-0.423-0.704-3.093,0-3.656c2.67-0.28,4.64-0.561,6.324-0.982
	c3.513-0.845,4.217-2.25,4.638-7.167c0.284-5.06,0.284-20.238,0.284-34.713c0-13.491,0-22.065-0.423-28.529
	c-0.143-3.091-0.843-5.199-3.515-6.042c-1.966-0.561-4.074-0.984-7.447-1.407C538.588,604.095,538.727,601.425,539.148,601.002"/>
<path fill="#D6A75E" d="M621.92,676.329c-8.435-9.135-11.805-21.503-11.805-32.604c0-10.823,2.95-20.799,9.835-28.389
	c7.871-9.978,21.224-16.443,36.399-16.443c28.813,0,43.988,20.097,43.988,43.707c0,10.821-2.67,20.799-8.433,28.529
	c-8.712,12.085-22.483,17.988-37.101,17.988C640.469,689.118,629.369,684.199,621.92,676.329 M672.089,678.999
	c7.169-6.747,9.839-19.395,9.839-31.62c0-14.334-4.077-29.934-13.773-37.946c-4.358-3.652-9.415-5.622-15.6-5.622
	c-4.356,0-8.571,1.406-11.666,3.513c-8.712,6.044-12.225,18.411-12.225,32.183c0,13.634,4.217,30.497,15.038,39.071
	c4.213,3.37,9.414,5.34,15.741,5.34C664.22,683.919,668.999,681.949,672.089,678.999"/>
<path fill="#D6A75E" d="M730.265,601.002c4.358,0,11.664,0.423,18.831,0.423c3.795,0,6.885,0,8.292-0.141
	c0.704,1.686,1.966,3.513,5.061,7.449c11.805,15.177,36.258,45.954,44.829,56.212c0.141,0,0.141-0.139,0.423-0.139
	c0-17.849,0.282-42.3-0.561-51.015c-0.563-4.638-1.686-6.606-5.906-7.869c-2.527-0.561-4.777-0.984-8.571-1.407
	c-0.421-0.42-0.141-3.09,0.139-3.513c3.799,0,10.121,0.423,17.99,0.423c6.044,0,12.789-0.423,14.898-0.423
	c0.42,0.423,0.42,3.093,0,3.513c-2.248,0.423-3.936,0.702-5.622,1.266c-3.933,1.264-5.058,3.513-5.479,8.292
	c-0.847,12.225-0.986,34.713-1.127,54.105c0,6.324,0.141,14.336,0.28,19.113c-2.107-0.141-9.274-0.141-11.803,0.141
	c-7.026-10.26-43.845-57.759-51.296-67.596c-0.277-0.282-0.702,0-0.702,0.139c-0.28,15.039-0.141,46.94,0.28,53.405
	c0.282,5.901,2.249,7.869,6.046,8.712c2.107,0.561,4.636,0.843,7.867,1.264c0.423,0.423,0.423,3.093-0.139,3.656
	c-3.795,0-10.119-0.423-16.865-0.423c-8.01,0-13.491,0.423-16.863,0.423c-0.42-0.423-0.282-3.233,0-3.656
	c3.093-0.421,5.34-0.702,7.59-1.404c2.952-0.843,4.356-2.811,4.918-8.151c0.702-7.026,1.266-32.604,1.406-58.182
	c0-3.231-1.545-7.167-4.779-8.574c-2.672-1.404-5.199-1.966-9.276-2.388C729.845,604.235,729.984,601.425,730.265,601.002"/>
<path fill="#D6A75E" d="M866.575,680.826c3.654,2.67,8.433,3.654,13.209,3.654c7.308,0,13.071-4.96,13.071-13.393
	c0-8.012-4.079-12.509-16.304-20.097c-12.789-8.151-21.222-14.153-21.222-27.503c0-15.741,12.932-24.594,28.532-24.594
	c9.976,0,15.741,1.827,21.781,2.25c-0.984,5.199-1.966,11.664-2.386,19.815c-0.566,0.561-3.234,0.561-3.654,0.139
	c-1.125-8.571-2.672-12.646-6.185-15.036c-3.234-2.247-6.606-2.952-10.821-2.952c-8.433,0-13.352,6.042-13.491,13.071
	c0,6.606,3.231,10.821,8.853,14.895c5.763,3.936,10.26,6.93,15.879,10.443c8.994,5.763,14.334,12.087,14.334,21.924
	c0,14.757-11.662,25.676-32.04,25.676c-8.853,0-17.568-2.529-20.519-4.356c-1.404-2.109-3.513-16.584-3.934-21.222
	c0.421-0.702,3.231-1.404,3.793-0.984C858.281,672.112,861.515,677.313,866.575,680.826"/>
<path fill="#D6A75E" d="M626.056,316.388v-19.004c0.203-6.083,0.8-12.146,1.827-18.146l0.606-3.556l-3.556,0.606
	c-7.485,1.278-15.062,1.923-22.654,1.923h0.002h-21.446v-21.405c0-7.579,0.64-15.145,1.917-22.615l0.612-3.588l-3.556,0.608
	c-5.496,0.939-11.045,1.528-16.609,1.78h-16.031c-7.592,0-15.171-0.645-22.656-1.923l-3.556-0.606l0.606,3.556
	c1.281,7.489,1.923,15.075,1.923,22.673v9.969c0,7.585-0.642,15.158-1.919,22.632l-0.61,3.577l3.556-0.608
	c7.483-1.278,15.064-1.921,22.656-1.921h24.295l-17.405,6.988c-1.012,0.408-1.931,1.014-2.704,1.787l-1.889,1.889l-1.377-1.374
	l-1.483-1.485c-0.79-0.788-2.07-0.788-2.858,0l-2.395,2.397c-1.526,1.524-3.178,2.918-4.937,4.164l-0.832,0.589l0.837,0.591
	c1.579,1.118,3.056,2.371,4.448,3.716l-17.546,17.546l-15.715-15.715l0.258,0.056c-5.368-5.368-10.272-11.18-14.661-17.378
	l-2.083-2.943l-2.094,2.954c-4.384,6.192-9.286,12.001-14.652,17.367l-15.557,15.559l-8.751-8.751
	c-1.515-1.517-3.573-2.369-5.718-2.369h-9.344l2.058-2.057l3.827-3.825c1.526-1.526,3.178-2.92,4.939-4.166l0.826-0.585
	l-0.835-0.593c-1.759-1.247-3.409-2.638-4.935-4.162l-2.393-2.395c-0.79-0.788-2.07-0.788-2.858,0l-2.86,2.86l-10.663-10.663h12.96
	c7.592,0,15.173,0.642,22.656,1.921l3.556,0.608l-0.606-3.556c-1.281-7.491-1.923-15.075-1.923-22.675v-9.948
	c0-7.598,0.642-15.184,1.923-22.673l0.606-3.556l-3.556,0.606c-7.483,1.278-15.064,1.923-22.656,1.923h-16.031
	c-5.566-0.252-11.113-0.841-16.609-1.78l-3.556-0.608l0.606,3.558c1.281,7.483,1.923,15.062,1.923,22.654v-0.002v21.399H379.96
	c-7.59,0-15.169-0.645-22.654-1.923l-3.556-0.606l0.608,3.556c1.029,6.017,1.626,12.097,1.829,18.193v18.908
	c-0.203,6.098-0.8,12.176-1.829,18.195l-0.608,3.556l3.558-0.608c7.483-1.278,15.062-1.921,22.656-1.921h16.031
	c5.566,0.25,11.113,0.839,16.609,1.778l3.556,0.608l-1.125-6.582c-1.037-6.072-1.18-12.232-1.402-18.389
	c-0.032-0.886-0.205-1.763-0.525-2.591l-7.498-19.392l18.59,18.59l-2.858,2.858c-0.792,0.79-0.792,2.068,0,2.86l2.41,2.412
	c1.518,1.518,2.905,3.161,4.145,4.915l0.591,0.835l0.593-0.835c1.116-1.582,2.369-3.056,3.714-4.45l17.448,17.448l-14.887,14.885
	c-5.374,5.374-11.192,10.283-17.395,14.678l-2.945,2.085l2.945,2.083c4.55,3.223,8.892,6.73,13.004,10.488l19.83,19.83l-12.23,12.23
	l-5.378,5.379l-46.494,46.492c0,0.002,0,0.002,0,0.002l-17.728,17.728c-0.79,0.79-0.79,2.068,0,2.858l0.098,0.098
	c2.26,2.26,4.324,4.706,6.17,7.314l0.879,1.242l0.877-1.24c1.848-2.61,3.912-5.058,6.172-7.319l3.302-3.3l16.564,16.567
	c1.829,1.829,3.5,3.808,4.996,5.918l0.709,0.999l0.706-0.999c1.486-2.1,3.146-4.068,4.964-5.886l0.047-0.045v-0.002
	c0.79-0.79,0.79-2.068,0-2.858l-12.855-12.855h13.6l4.982-4.984v-13.598l12.857,12.853c0.788,0.79,2.068,0.79,2.858,0l0.045-0.047
	c1.818-1.816,3.788-3.477,5.886-4.962l0.999-0.707l-0.999-0.709c-2.1-1.49-4.072-3.155-5.895-4.973l-16.588-16.588l-0.002-0.002
	l-4.288-4.288h8.578c13.446-13.444,27.027-27.027,27.027-27.027c1.515-1.517,2.369-3.573,2.369-5.716v-9.344l21.258,21.258
	c5.366,5.366,10.266,11.175,14.65,17.369l2.085,2.943l2.098-2.962c4.384-6.19,9.284-11.995,14.646-17.358l6.292-6.292
	c1.515-1.515,2.367-3.573,2.367-5.718v-9.342l18.675,18.675l18.148,18.148l9.654,9.654l-16.564,16.564
	c-1.829,1.829-3.81,3.5-5.921,4.996l-1.001,0.709l1.001,0.709c2.098,1.483,4.068,3.144,5.884,4.962l0.047,0.045
	c0.79,0.792,2.07,0.792,2.86,0l12.855-12.855l0.002,13.602l4.982,4.982h13.6l-12.855,12.857c-0.79,0.788-0.79,2.068,0,2.858
	l0.045,0.047c1.818,1.816,3.479,3.786,4.962,5.884l0.709,1.001l0.709-1.001c1.496-2.111,3.167-4.089,4.996-5.918l16.567-16.567
	l4.286-4.288v8.621c1.876,1.97,3.613,4.066,5.186,6.288l0.879,1.24l0.879-1.242c1.846-2.608,3.91-5.056,6.168-7.314l0.1-0.098
	c0.788-0.79,0.788-2.068,0-2.858l-69.6-69.6l-12.33-12.33l15.457-15.457c5.368-5.368,11.182-10.272,17.378-14.659l2.943-2.085
	l-2.943-2.085c-6.194-4.386-12.008-9.291-17.375-14.658l-14.906-14.904l8.851-8.853c1.517-1.515,2.369-3.573,2.369-5.718v-9.342
	l5.876,5.876c1.526,1.526,2.92,3.176,4.166,4.939l0.593,0.835l0.591-0.835c1.246-1.761,2.638-3.409,4.164-4.935l2.393-2.393
	c0.788-0.792,0.788-2.07-0.002-2.86l-2.858-2.858l10.665-10.665v12.821c0,7.583-0.643,15.156-1.919,22.632l-0.61,3.577l3.556-0.608
	c5.496-0.939,10.947-1.528,16.513-1.778h16.031c7.592,0,15.171,0.642,22.656,1.921l3.556,0.608l-0.606-3.556
	C626.856,328.533,626.259,322.469,626.056,316.388 M568.707,277.2c0,0.559-0.453,1.012-1.012,1.012h-31.069
	c-0.557,0-1.01-0.453-1.01-1.012v-31.069c0-0.559,0.453-1.01,1.01-1.01h31.069c0.559,0,1.012,0.45,1.012,1.01V277.2z
	 M400.396,323.432h-31.069c-0.559,0-1.012-0.453-1.012-1.012v-31.069c0-0.557,0.452-1.01,1.012-1.01h31.069
	c0.557,0,1.01,0.452,1.01,1.01v31.069C401.406,322.979,400.954,323.432,400.396,323.432 M413.535,277.2v-31.069
	c0-0.559,0.452-1.01,1.01-1.01h31.069c0.559,0,1.012,0.45,1.012,1.01V277.2c0,0.559-0.452,1.012-1.01,1.012h-31.071
	C413.988,278.212,413.535,277.759,413.535,277.2 M395.735,471.889h-7.824l22.161-14.336h-0.002h0.002v14.334h-14.334
	L395.735,471.889z M572.169,471.886V457.55v-7.822l14.336,22.159H572.169z M490.307,312.713c0.393-0.395,1.033-0.395,1.428,0
	l23.012,23.012l-23.625,23.625l-23.727-23.725L490.307,312.713z M436.362,368.086c-0.395-0.395-0.395-1.033,0-1.428l13.743-13.743
	c1.515-1.515,2.369-3.573,2.369-5.718v-9.344l30.07,30.073l-23.172,23.172L436.362,368.086z M491.735,422.031
	c-0.395,0.395-1.033,0.395-1.428,0l-22.359-22.357l0.102-0.1l29.417-29.417v9.344c0,2.145,0.852,4.2,2.367,5.716l14.358,14.358
	L491.735,422.031z M545.677,366.658c0.395,0.395,0.395,1.033,0.002,1.428l-22.91,22.912l-23.072-23.072l14.91-14.91
	c1.515-1.515,2.367-3.573,2.367-5.718v-9.342l6.347,6.345l1.895,1.898l2.536,2.536L545.677,366.658z M613.927,322.42
	c0,0.559-0.453,1.012-1.012,1.012h-31.067c-0.559,0-1.012-0.453-1.012-1.012v-31.069c0-0.557,0.452-1.01,1.012-1.01h31.067
	c0.559,0,1.012,0.452,1.012,1.01V322.42z"/>
<path fill="#D6A75E" d="M312.526,726.765c-4.207,0-7.481,1.353-9.818,4.06c-2.337,2.706-3.507,6.414-3.507,11.124
	c0,4.657,1.219,8.401,3.654,11.233c2.437,2.832,5.733,4.247,9.886,4.247c5.321,0,9.323-2.634,12.001-7.901l4.207,2.102
	c-1.564,3.274-3.761,5.765-6.595,7.47c-2.83,1.71-6.117,2.563-9.856,2.563c-3.831,0-7.141-0.796-9.937-2.388
	c-2.798-1.59-4.928-3.865-6.392-6.821c-1.466-2.958-2.196-6.461-2.196-10.505c0-6.059,1.635-10.806,4.907-14.24
	c3.272-3.434,7.803-5.15,13.591-5.15c4.047,0,7.425,0.792,10.14,2.373c2.717,1.581,4.713,3.927,5.989,7.037l-4.881,1.62
	c-0.881-2.211-2.299-3.902-4.249-5.071C317.518,727.35,315.202,726.765,312.526,726.765"/>
<path fill="#D6A75E" d="M390.06,761.125l-9.869-15.779h-11.839v15.779h-5.152v-37.999h17.879c4.279,0,7.583,0.956,9.912,2.873
	c2.329,1.912,3.494,4.58,3.494,7.995c0,2.824-0.822,5.197-2.469,7.12c-1.643,1.923-3.912,3.137-6.809,3.641l10.787,16.37H390.06z
	 M389.306,734.047c0-2.211-0.751-3.897-2.252-5.056c-1.503-1.161-3.665-1.74-6.488-1.74h-12.215v14.025h12.432
	c2.713,0,4.813-0.634,6.298-1.902C388.564,738.106,389.306,736.331,389.306,734.047"/>
<path fill="#D6A75E" d="M466.491,741.948c0,3.974-0.76,7.453-2.279,10.437c-1.52,2.986-3.699,5.278-6.54,6.879
	c-2.841,1.599-6.192,2.399-10.059,2.399c-3.899,0-7.267-0.79-10.1-2.373c-2.83-1.582-4.992-3.87-6.486-6.864
	c-1.492-2.992-2.239-6.484-2.239-10.477c0-6.076,1.663-10.827,4.99-14.253c3.325-3.426,7.955-5.137,13.888-5.137
	c3.865,0,7.218,0.768,10.061,2.307c2.841,1.537,5.009,3.769,6.512,6.702C465.74,734.497,466.491,737.957,466.491,741.948
	 M461.232,741.948c0-4.727-1.182-8.441-3.547-11.137c-2.365-2.698-5.703-4.047-10.019-4.047c-4.352,0-7.711,1.332-10.085,3.991
	c-2.373,2.661-3.56,6.392-3.56,11.192c0,4.766,1.2,8.546,3.598,11.342c2.401,2.796,5.733,4.194,9.993,4.194
	c4.386,0,7.754-1.353,10.102-4.059C460.061,750.718,461.232,746.893,461.232,741.948"/>
<path fill="#D6A75E" d="M528.224,761.123l-4.341-11.111h-17.316l-4.369,11.111h-5.338l15.506-37.997h5.852l15.265,37.997H528.224z
	 M515.224,727.008l-0.241,0.756c-0.45,1.492-1.114,3.409-1.998,5.744l-4.853,12.488h14.212l-4.881-12.541
	c-0.504-1.24-1.007-2.642-1.509-4.207L515.224,727.008z"/>
<polygon fill="#D6A75E" points="576.525,727.332 576.525,761.125 571.403,761.125 571.403,727.332 558.347,727.332 558.347,723.126 
	589.579,723.126 589.579,727.332 "/>
<rect x="623.559" y="723.125" fill="#D6A75E" width="5.152" height="37.999"/>
<path fill="#D6A75E" d="M692.895,761.123l-4.341-11.111H671.24l-4.369,11.111h-5.34l15.508-37.997h5.85l15.267,37.997H692.895z
	 M679.897,727.008l-0.243,0.756c-0.448,1.492-1.114,3.409-1.996,5.744l-4.854,12.488h14.213l-4.881-12.541
	c-0.504-1.24-1.007-2.642-1.511-4.207L679.897,727.008z"/>
</svg>
