<?xml version="1.0" encoding="utf-8"?>
<!-- Generator: Adobe Illustrator 17.0.0, SVG Export Plug-In . SVG Version: 6.00 Build 0)  -->
<!DOCTYPE svg PUBLIC "-//W3C//DTD SVG 1.1//EN" "http://www.w3.org/Graphics/SVG/1.1/DTD/svg11.dtd">
<svg version="1.1" id="Layer_1" xmlns="http://www.w3.org/2000/svg" xmlns:xlink="http://www.w3.org/1999/xlink" x="0px" y="0px"
	 width="992.126px" height="992.126px" viewBox="0 0 992.126 992.126" enable-background="new 0 0 992.126 992.126"
	 xml:space="preserve">
<path fill="#D6A75E" d="M74.423,694.465c8.742,0.146,15.3,0.438,30.595,0.438c0.292,2.768,1.164,5.682,2.622,8.742
	c6.848,15.441,20.105,44.724,23.309,50.99c0.292,0.144,0.584,0.144,0.728-0.148c3.498-6.41,18.942-39.189,24.039-50.988
	c1.31-3.206,2.476-6.41,2.622-8.596c13.696,0,20.105-0.438,28.411-0.438c0.58,0.292,0.436,3.206,0,3.788
	c-4.08,0.438-6.558,1.02-8.452,1.604c-3.642,1.164-4.226,3.35-4.226,6.994c-0.29,9.759,0.876,53.32,1.604,63.372
	c0.29,4.372,1.018,7.43,5.244,8.304c1.894,0.584,4.372,1.022,7.576,1.312c0.438,0.582,0.292,3.06-0.29,3.788
	c-4.078,0-9.47-0.436-21.853-0.436c-7.87,0-14.567,0.436-19.377,0.436c-0.436-0.584-0.436-3.352,0-3.788
	c3.496-0.438,5.39-0.728,7.432-1.458c2.62-0.874,3.204-3.35,3.204-6.992c0.292-10.636,0-45.016-0.144-57.546
	c-0.148-0.146-0.44-0.146-0.584,0c-5.828,12.819-25.933,56.38-30.157,69.199c-0.874,0.294-4.662,0.294-5.1,0
	c-3.35-11.946-16.899-42.538-28.117-70.073c-0.29,0-0.438,0.144-0.584,0.292c-1.018,10.487-2.912,45.306-2.912,55.796
	c0,5.682,1.164,8.014,5.1,9.18c2.33,0.728,4.516,1.02,8.74,1.602c0.58,0.436,0.292,3.352-0.292,3.788
	c-4.516,0-9.613-0.436-17.481-0.436c-6.264,0-12.532,0.436-16.899,0.436c-0.438-0.584-0.438-3.206,0-3.788
	c2.476-0.29,4.516-0.582,6.556-1.02c4.224-1.166,5.682-2.914,6.702-10.344c1.454-10.782,4.516-48.95,5.244-61.188
	c0-2.77-0.728-5.828-3.79-6.994c-2.62-1.02-5.826-1.456-9.906-2.186C73.696,697.525,73.985,694.757,74.423,694.465"/>
<path fill="#D6A75E" d="M303.866,779.837c-10.198-1.456-11.072-2.33-15.441-13.401c-2.688-7.142-8.33-23.433-13.437-38.244
	c-3.75-10.872-7.211-20.946-9.001-26.004c-0.728-2.476-1.6-5.538-2.04-7.43c-1.454,0-3.204,0.144-6.118,0.144
	c-2.332,0-4.514-0.144-6.118-0.144c-0.292,2.038-1.312,5.536-2.186,8.158c-3.498,10.198-16.753,46.618-24.475,65.122
	c-3.934,9.47-5.828,10.49-15.879,11.799c-0.438,0.584-0.438,3.352,0,3.788c4.226,0,9.032-0.436,15.151-0.436
	c7.574,0,13.547,0.436,17.627,0.436c0.436-0.436,0.73-3.204,0.436-3.788c-2.766-0.29-4.808-0.728-6.848-1.164
	c-4.08-1.02-4.224-3.06-4.224-5.1c0-3.058,4.518-14.714,7.138-21.997c0.146-0.584,0.876-1.312,1.458-1.312
	c1.748-0.146,5.1-0.146,11.945-0.146c1.593,0,3.129,0,4.558,0.004h8.054l4.868,14.778c0.033,0.104,0.049,0.212,0.084,0.314
	c1.243,3.662,2.578,7.684,3.124,9.671c0.292,0.874,0.292,2.476-1.602,3.35c-1.458,0.584-4.224,1.166-7.14,1.602
	c-0.436,0.584-0.29,3.206,0,3.788c4.664-0.146,9.906-0.436,20.397-0.436c8.742,0,15.59,0.436,19.229,0.436
	C303.866,783.189,304.156,780.275,303.866,779.837 M261.764,742.542c0.144,0.292-0.146,0.874-0.436,0.874
	c-1.314,0.146-5.682,0-9.908,0c-4.808,0-8.014,0-9.47-0.146c-0.292,0-0.436-0.292-0.292-0.874
	c2.186-6.702,6.994-21.415,9.762-29.429c0.146-0.146,0.582,0,0.728,0c1.341,3.801,3.255,9.545,5.095,15.224l0.007,0.022
	C259.007,733.632,260.697,738.989,261.764,742.542"/>
<path fill="#D6A75E" d="M324.69,694.465c4.518,0,12.092,0.438,19.521,0.438c3.934,0,7.138,0,8.596-0.146
	c0.73,1.748,2.038,3.642,5.246,7.722c12.238,15.733,37.587,47.638,46.472,58.274c0.146,0,0.146-0.144,0.438-0.144
	c0-18.503,0.292-43.853-0.582-52.884c-0.584-4.81-1.748-6.85-6.122-8.16c-2.62-0.582-4.952-1.02-8.886-1.458
	c-0.436-0.436-0.146-3.204,0.144-3.642c3.938,0,10.492,0.438,18.649,0.438c6.266,0,13.258-0.438,15.444-0.438
	c0.436,0.438,0.436,3.206,0,3.642c-2.33,0.438-4.08,0.73-5.828,1.312c-4.078,1.312-5.244,3.642-5.68,8.596
	c-0.878,12.676-1.022,35.985-1.168,56.09c0,6.556,0.146,14.859,0.29,19.813c-2.184-0.146-9.613-0.146-12.235,0.144
	c-7.284-10.636-45.452-59.876-53.176-70.073c-0.288-0.292-0.728,0-0.728,0.146c-0.29,15.587-0.146,48.658,0.29,55.36
	c0.292,6.118,2.332,8.158,6.268,9.032c2.184,0.584,4.806,0.874,8.155,1.312c0.438,0.436,0.438,3.204-0.144,3.788
	c-3.934,0-10.49-0.436-17.484-0.436c-8.304,0-13.985,0.436-17.481,0.436c-0.436-0.436-0.292-3.352,0-3.788
	c3.206-0.438,5.536-0.728,7.868-1.458c3.06-0.874,4.516-2.912,5.098-8.45c0.728-7.284,1.312-33.799,1.458-60.312
	c0-3.352-1.602-7.432-4.954-8.888c-2.768-1.458-5.39-2.04-9.616-2.478C324.254,697.817,324.398,694.903,324.69,694.465"/>
<path fill="#D6A75E" d="M466,777.215c3.788,2.768,8.742,3.788,13.693,3.788c7.576,0,13.55-5.142,13.55-13.884
	c0-8.304-4.228-12.968-16.902-20.833c-13.258-8.45-21.999-14.669-21.999-28.511c0-16.315,13.406-25.495,29.577-25.495
	c10.341,0,16.317,1.894,22.579,2.332c-1.02,5.392-2.038,12.092-2.474,20.541c-0.586,0.582-3.352,0.582-3.788,0.146
	c-1.166-8.886-2.77-13.112-6.412-15.587c-3.352-2.332-6.848-3.062-11.218-3.062c-8.742,0-13.842,6.266-13.985,13.55
	c0,6.848,3.35,11.22,9.178,15.443c5.974,4.08,10.636,7.184,16.461,10.824c9.324,5.974,14.859,12.53,14.859,22.727
	c0,15.3-12.089,26.617-33.215,26.617c-9.178,0-18.211-2.622-21.269-4.516c-1.458-2.186-3.642-17.191-4.08-21.999
	c0.438-0.728,3.35-1.456,3.932-1.02C457.402,768.183,460.754,773.573,466,777.215"/>
<path fill="#D6A75E" d="M540.727,694.465c4.518,0,11.072,0.438,20.105,0.438c11.218,0,16.61-0.438,19.521-0.438
	c0.292,0.584,0.438,3.06,0,3.642c-2.912,0.438-5.39,0.876-6.992,1.312c-3.206,1.166-3.496,2.914-3.788,7.868
	c-0.144,4.808-0.144,17.335-0.144,29.865c0,18.065,0,28.701,0.29,33.945c0.146,3.206,0.29,6.556,4.516,7.43
	c1.892,0.584,4.808,1.022,7.574,1.312c0.438,0.582,0.148,3.498-0.29,3.788c-5.682-0.146-11.364-0.436-19.667-0.436
	c-11.364,0-15.587,0.436-21.125,0.436c-0.73-0.436-0.73-3.206,0-3.788c2.768-0.29,4.81-0.582,6.556-1.02
	c3.642-0.874,4.372-2.33,4.808-7.43c0.294-5.246,0.294-20.979,0.294-35.985c0-13.986,0-22.873-0.438-29.575
	c-0.148-3.204-0.874-5.39-3.644-6.264c-2.038-0.582-4.224-1.02-7.719-1.458C540.147,697.671,540.291,694.903,540.727,694.465"/>
<path fill="#D6A75E" d="M626.532,772.553c-8.744-9.47-12.238-22.289-12.238-33.799c0-11.218,3.058-21.561,10.195-29.429
	c8.16-10.344,22.001-17.045,37.733-17.045c29.869,0,45.6,20.833,45.6,45.308c0,11.22-2.768,21.561-8.742,29.575
	c-9.032,12.53-23.307,18.647-38.461,18.647C645.762,785.811,634.254,780.713,626.532,772.553 M678.54,775.321
	c7.432-6.992,10.2-20.103,10.2-32.779c0-14.859-4.226-31.031-14.278-39.335c-4.518-3.788-9.76-5.828-16.172-5.828
	c-4.516,0-8.886,1.456-12.094,3.642c-9.032,6.264-12.673,19.085-12.673,33.363c0,14.131,4.372,31.613,15.589,40.501
	c4.368,3.496,9.76,5.536,16.318,5.536C670.383,780.421,675.337,778.381,678.54,775.321"/>
<path fill="#D6A75E" d="M738.849,694.465c4.518,0,12.091,0.438,19.521,0.438c3.934,0,7.138,0,8.596-0.146
	c0.73,1.748,2.038,3.642,5.246,7.722c12.238,15.733,37.587,47.638,46.472,58.274c0.146,0,0.146-0.144,0.438-0.144
	c0-18.503,0.292-43.853-0.582-52.884c-0.584-4.81-1.748-6.85-6.122-8.16c-2.62-0.582-4.952-1.02-8.886-1.458
	c-0.436-0.436-0.146-3.204,0.144-3.642c3.938,0,10.492,0.438,18.649,0.438c6.266,0,13.258-0.438,15.444-0.438
	c0.436,0.438,0.436,3.206,0,3.642c-2.33,0.438-4.08,0.73-5.828,1.312c-4.078,1.312-5.244,3.642-5.68,8.596
	c-0.878,12.676-1.022,35.985-1.168,56.09c0,6.556,0.146,14.859,0.29,19.813c-2.184-0.146-9.613-0.146-12.235,0.144
	c-7.284-10.636-45.452-59.876-53.176-70.073c-0.288-0.292-0.728,0-0.728,0.146c-0.29,15.587-0.146,48.658,0.29,55.36
	c0.292,6.118,2.332,8.158,6.268,9.032c2.184,0.584,4.806,0.874,8.156,1.312c0.438,0.436,0.438,3.204-0.144,3.788
	c-3.934,0-10.49-0.436-17.484-0.436c-8.304,0-13.985,0.436-17.481,0.436c-0.436-0.436-0.292-3.352,0-3.788
	c3.206-0.438,5.536-0.728,7.868-1.458c3.06-0.874,4.516-2.912,5.098-8.45c0.728-7.284,1.312-33.799,1.458-60.312
	c0-3.352-1.602-7.432-4.954-8.888c-2.77-1.458-5.39-2.04-9.616-2.478C738.413,697.817,738.556,694.903,738.849,694.465"/>
<path fill="#D6A75E" d="M880.154,777.215c3.788,2.768,8.742,3.788,13.693,3.788c7.576,0,13.55-5.142,13.55-13.884
	c0-8.304-4.228-12.968-16.902-20.833c-13.258-8.45-21.999-14.669-21.999-28.511c0-16.315,13.406-25.495,29.577-25.495
	c10.341,0,16.318,1.894,22.579,2.332c-1.02,5.392-2.038,12.092-2.474,20.541c-0.586,0.582-3.352,0.582-3.788,0.146
	c-1.166-8.886-2.77-13.112-6.412-15.587c-3.352-2.332-6.848-3.062-11.218-3.062c-8.742,0-13.842,6.266-13.985,13.55
	c0,6.848,3.35,11.22,9.178,15.443c5.974,4.08,10.636,7.184,16.461,10.824c9.324,5.974,14.859,12.53,14.859,22.727
	c0,15.3-12.089,26.617-33.215,26.617c-9.178,0-18.211-2.622-21.271-4.516c-1.456-2.186-3.642-17.191-4.078-21.999
	c0.436-0.728,3.35-1.456,3.932-1.02C871.556,768.183,874.908,773.573,880.154,777.215"/>
<path fill="#D6A75E" d="M700.255,238.801l0.002-29.482c0.316-9.434,1.241-18.838,2.834-28.148l0.94-5.516l-5.516,0.943
	c-11.609,1.985-23.364,2.98-35.142,2.98l0.002,0.002h-33.266v-33.204c0-11.758,0.993-23.495,2.974-35.084l0.949-5.562l-5.516,0.943
	c-8.525,1.456-17.134,2.372-25.765,2.759h-24.867c-11.78,0-23.537-0.996-35.146-2.98l-5.518-0.942l0.943,5.516
	c1.985,11.618,2.982,23.384,2.982,35.173v15.463c0,11.766-0.996,23.513-2.976,35.111l-0.949,5.547l5.518-0.943
	c11.609-1.985,23.367-2.98,35.146-2.98h37.686l-27,10.842c-1.571,0.631-2.998,1.573-4.195,2.77l-2.931,2.932l-2.133-2.135
	l-2.301-2.301c-1.226-1.223-3.21-1.223-4.436,0l-3.715,3.715c-2.365,2.365-4.927,4.527-7.658,6.461l-1.29,0.912l1.297,0.918
	c2.451,1.735,4.741,3.679,6.901,5.766l-27.219,27.219l-24.378-24.378l0.4,0.086c-8.328-8.326-15.935-17.344-22.74-26.958
	l-3.235-4.567l-3.244,4.582c-6.804,9.605-14.408,18.618-22.732,26.942l-24.134,24.134l-13.574-13.574
	c-2.352-2.354-5.542-3.675-8.87-3.675h-14.492l3.193-3.193l5.934-5.932c2.365-2.367,4.93-4.529,7.66-6.463l1.285-0.909l-1.299-0.918
	c-2.728-1.932-5.288-4.091-7.653-6.456l-3.71-3.713c-1.226-1.223-3.21-1.223-4.436,0l-4.434,4.436l-16.543-16.543h20.103
	c11.78,0,23.537,0.996,35.146,2.98l5.516,0.943l-0.94-5.516c-1.985-11.618-2.982-23.384-2.982-35.173v-15.432
	c0-11.788,0.998-23.555,2.982-35.173l0.94-5.516l-5.516,0.942c-11.609,1.985-23.367,2.98-35.146,2.98h-24.867
	c-8.636-0.387-17.24-1.303-25.765-2.759l-5.516-0.943l0.943,5.518c1.985,11.607,2.98,23.362,2.98,35.14l0.002-0.002v33.195h-33.27
	l0.002-0.002c-11.775,0-23.53-0.996-35.142-2.98l-5.516-0.943l0.943,5.516c1.597,9.335,2.522,18.767,2.836,28.225v29.327
	c-0.314,9.461-1.241,18.891-2.836,28.225l-0.943,5.516l5.518-0.942c11.609-1.983,23.367-2.98,35.144-2.98h24.869
	c8.631,0.387,17.238,1.301,25.765,2.759l5.516,0.943l-1.743-10.209c-1.608-9.421-1.832-18.977-2.177-28.528
	c-0.049-1.374-0.319-2.733-0.814-4.018l-11.631-30.084l28.838,28.838l-4.434,4.434c-1.226,1.223-1.226,3.21,0,4.434l3.739,3.744
	c2.354,2.354,4.505,4.905,6.43,7.624l0.916,1.294l0.918-1.294c1.737-2.451,3.677-4.744,5.766-6.901l27.062,27.062l-23.09,23.09
	c-8.337,8.337-17.364,15.955-26.986,22.769l-4.564,3.235l4.567,3.235c7.058,4.998,13.791,10.439,20.172,16.269L428.385,368
	l-18.97,18.97l-8.341,8.341l-72.124,72.122c0,0.002-0.002,0.002-0.002,0.004l-27.5,27.497c-1.224,1.224-1.224,3.21,0,4.436
	l0.153,0.15c3.507,3.505,6.706,7.301,9.571,11.346l1.365,1.927l1.361-1.925c2.867-4.047,6.071-7.843,9.576-11.35l5.12-5.12
	l25.697,25.697c2.836,2.836,5.43,5.91,7.751,9.182l1.1,1.551l1.097-1.551c2.303-3.257,4.879-6.31,7.7-9.129l0.071-0.073h0.002
	c1.224-1.226,1.224-3.21,0-4.436l-19.942-19.942h21.094l7.731-7.728v-21.097l19.942,19.942c1.226,1.224,3.21,1.224,4.436,0v-0.002
	l0.071-0.071c2.819-2.819,5.874-5.394,9.129-7.697l1.553-1.097l-1.553-1.1c-3.259-2.31-6.317-4.892-9.142-7.715l-25.732-25.732
	h-0.004l-6.653-6.653h13.306l41.928-41.925c2.352-2.352,3.673-5.542,3.673-8.868v-14.494l32.976,32.976
	c8.324,8.324,15.926,17.337,22.729,26.944l3.233,4.567l3.257-4.598c6.799-9.6,14.397-18.605,22.716-26.924l9.76-9.76
	c2.352-2.352,3.675-5.545,3.675-8.87l-0.002-14.492l28.971,28.969l28.152,28.152l14.974,14.975l-25.699,25.696
	c-2.836,2.836-5.907,5.43-9.182,7.75l-1.551,1.1l1.551,1.097c3.257,2.303,6.31,4.879,9.129,7.697l0.073,0.073
	c1.226,1.223,3.21,1.223,4.436,0l19.942-19.944l0.002,21.099l7.728,7.728h21.097l-19.944,19.944c-1.224,1.224-1.224,3.21,0,4.434
	l0.073,0.073c2.819,2.819,5.396,5.872,7.7,9.129l1.098,1.551l1.1-1.551c2.321-3.272,4.912-6.346,7.748-9.182l25.699-25.699
	l6.651-6.651v13.373c2.907,3.055,5.604,6.308,8.045,9.753l1.363,1.923l1.363-1.925c2.865-4.047,6.067-7.841,9.572-11.346
	l0.153-0.153c1.224-1.226,1.224-3.21,0-4.434L572.466,386.968l-19.128-19.125l23.977-23.977
	c8.328-8.328,17.344-15.937,26.958-22.741l4.567-3.235l-4.567-3.235c-9.611-6.804-18.627-14.41-26.955-22.738l-23.121-23.121
	l13.731-13.731c2.352-2.352,3.673-5.542,3.673-8.87v-14.492l9.116,9.113c2.365,2.365,4.529,4.93,6.463,7.662l0.918,1.294l0.92-1.294
	c1.932-2.728,4.091-5.29,6.456-7.653l3.713-3.715c1.223-1.223,1.223-3.208-0.002-4.434l-4.434-4.434l16.545-16.543v19.886
	c0,11.766-0.996,23.511-2.976,35.109l-0.949,5.549l5.518-0.943c8.525-1.458,16.979-2.372,25.615-2.759h24.867
	c11.78,0,23.537,0.998,35.146,2.98l5.516,0.942l-0.94-5.516C701.497,257.641,700.572,248.235,700.255,238.801 M611.296,178.011
	c-0.002,0.867-0.704,1.569-1.569,1.569h-48.198c-0.863,0-1.566-0.701-1.566-1.569v-48.196c0-0.867,0.704-1.569,1.569-1.569h48.196
	c0.867,0,1.569,0.701,1.569,1.569V178.011z M350.202,249.727h-48.196c-0.867,0-1.569-0.701-1.566-1.569l-0.002-48.196
	c0.002-0.865,0.701-1.566,1.569-1.566h48.196c0.867,0,1.569,0.701,1.569,1.566v48.196
	C351.771,249.025,351.07,249.727,350.202,249.727 M370.587,178.011v-48.196c-0.002-0.867,0.701-1.569,1.566-1.569h48.196
	c0.867,0,1.569,0.701,1.569,1.569v48.196c0,0.867-0.701,1.569-1.569,1.569h-48.196C371.286,179.58,370.584,178.879,370.587,178.011
	 M342.972,480.019h-12.134l34.372-22.236l0.002,22.234h-22.236L342.972,480.019z M616.665,480.017v-22.238v-12.136l22.238,34.374
	H616.665z M489.677,233.102c0.611-0.613,1.604-0.613,2.217,0l35.695,35.695l-36.649,36.649l-36.806-36.806L489.677,233.102z
	 M405.994,318.999c-0.613-0.613-0.613-1.606,0-2.217l21.318-21.32c2.352-2.352,3.675-5.542,3.675-8.868V272.1l46.649,46.649
	l-35.945,35.945L405.994,318.999z M491.894,402.68c-0.613,0.613-1.606,0.613-2.217,0L454.995,368l0.157-0.159h-0.002l45.634-45.634
	v14.494c0,3.328,1.321,6.518,3.675,8.87l22.271,22.272L491.894,402.68z M575.572,316.782c0.613,0.611,0.613,1.604,0.002,2.217
	l-35.54,35.54l-35.788-35.79l23.128-23.13c2.352-2.352,3.673-5.542,3.673-8.87v-14.492l9.846,9.844l2.941,2.943l3.934,3.934
	L575.572,316.782z M681.442,248.158c0,0.867-0.704,1.569-1.569,1.569h-48.196c-0.867,0-1.566-0.701-1.566-1.569l-0.002-48.196
	c0.002-0.865,0.701-1.566,1.569-1.566h48.196c0.865,0,1.569,0.701,1.569,1.566V248.158z"/>
<path fill="#D6A75E" d="M305.799,824.838c-4.361,0-7.755,1.403-10.178,4.208c-2.423,2.803-3.635,6.649-3.635,11.532
	c0,4.826,1.263,8.709,3.788,11.642c2.527,2.938,5.943,4.405,10.248,4.405c5.516,0,9.664-2.73,12.441-8.191l4.361,2.179
	c-1.622,3.394-3.898,5.974-6.837,7.744c-2.934,1.772-6.341,2.657-10.217,2.657c-3.972,0-7.403-0.825-10.302-2.476
	c-2.901-1.648-5.109-4.007-6.627-7.071c-1.52-3.067-2.277-6.697-2.277-10.89c0-6.281,1.695-11.202,5.087-14.762
	c3.392-3.56,8.089-5.339,14.089-5.339c4.195,0,7.697,0.819,10.512,2.46c2.817,1.639,4.885,4.071,6.208,7.295l-5.06,1.679
	c-0.914-2.292-2.383-4.044-4.405-5.257C310.975,825.445,308.574,824.838,305.799,824.838"/>
<path fill="#D6A75E" d="M386.175,860.457L375.944,844.1h-12.273v16.357h-5.341v-39.394h18.534c4.436,0,7.861,0.993,10.275,2.98
	c2.414,1.982,3.622,4.748,3.622,8.288c0,2.925-0.852,5.388-2.56,7.381c-1.704,1.994-4.056,3.252-7.058,3.775l11.182,16.97H386.175z
	 M385.394,832.387c0-2.292-0.779-4.04-2.334-5.241c-1.558-1.204-3.799-1.803-6.726-1.803h-12.662v14.539h12.888
	c2.812,0,4.989-0.659,6.529-1.971C384.624,836.595,385.394,834.754,385.394,832.387"/>
<path fill="#D6A75E" d="M465.408,840.578c0,4.12-0.788,7.726-2.363,10.819c-1.575,3.095-3.834,5.472-6.779,7.131
	c-2.945,1.657-6.419,2.487-10.428,2.487c-4.042,0-7.534-0.821-10.47-2.46c-2.934-1.639-5.175-4.011-6.724-7.115
	c-1.547-3.102-2.321-6.724-2.321-10.861c0-6.299,1.724-11.224,5.173-14.775c3.447-3.551,8.246-5.326,14.397-5.326
	c4.007,0,7.483,0.797,10.43,2.39c2.945,1.593,5.193,3.91,6.751,6.95C464.629,832.852,465.408,836.441,465.408,840.578
	 M459.956,840.578c0-4.901-1.226-8.751-3.677-11.547c-2.452-2.794-5.912-4.193-10.386-4.193c-4.511,0-7.994,1.381-10.454,4.137
	c-2.46,2.759-3.691,6.627-3.691,11.603c0,4.938,1.243,8.859,3.73,11.755c2.489,2.901,5.943,4.35,10.359,4.35
	c4.547,0,8.038-1.403,10.472-4.208C458.741,849.669,459.956,845.704,459.956,840.578"/>
<path fill="#D6A75E" d="M529.403,860.455l-4.5-11.518h-17.95l-4.529,11.518h-5.534l16.074-39.392h6.067l15.824,39.392H529.403z
	 M515.926,825.09l-0.25,0.783c-0.467,1.547-1.155,3.531-2.071,5.954l-5.031,12.946h14.733l-5.06-13.001
	c-0.522-1.288-1.044-2.741-1.564-4.361L515.926,825.09z"/>
<polygon fill="#D6A75E" points="579.474,825.425 579.474,860.456 574.164,860.456 574.164,825.425 560.63,825.425 560.63,821.064 
	593.006,821.064 593.006,825.425 "/>
<rect x="628.232" y="821.064" fill="#D6A75E" width="5.341" height="39.392"/>
<path fill="#D6A75E" d="M700.109,860.455l-4.5-11.518H677.66l-4.529,11.518h-5.536l16.076-39.392h6.065l15.826,39.392H700.109z
	 M686.634,825.09l-0.252,0.783c-0.465,1.547-1.155,3.531-2.069,5.954l-5.031,12.946h14.733l-5.06-13.001
	c-0.522-1.288-1.044-2.741-1.567-4.361L686.634,825.09z"/>
</svg>
