<?xml version="1.0" encoding="utf-8"?>
<!-- Generator: Adobe Illustrator 24.3.0, SVG Export Plug-In . SVG Version: 6.00 Build 0)  -->
<svg version="1.1" id="Layer_1" xmlns="http://www.w3.org/2000/svg" xmlns:xlink="http://www.w3.org/1999/xlink" x="0px" y="0px"
	 viewBox="0 0 992.1 992.1" style="enable-background:new 0 0 992.1 992.1;" xml:space="preserve">
<style type="text/css">
	.st0{fill:#D6A75E;}
</style>
<path class="st0" d="M74.4,694.5c8.7,0.1,15.3,0.4,30.6,0.4c0.3,2.8,1.2,5.7,2.6,8.7c6.8,15.4,20.1,44.7,23.3,51
	c0.3,0.1,0.6,0.1,0.7-0.1c3.5-6.4,18.9-39.2,24-51c1.3-3.2,2.5-6.4,2.6-8.6c13.7,0,20.1-0.4,28.4-0.4c0.6,0.3,0.4,3.2,0,3.8
	c-4.1,0.4-6.6,1-8.5,1.6c-3.6,1.2-4.2,3.3-4.2,7c-0.3,9.8,0.9,53.3,1.6,63.4c0.3,4.4,1,7.4,5.2,8.3c1.9,0.6,4.4,1,7.6,1.3
	c0.4,0.6,0.3,3.1-0.3,3.8c-4.1,0-9.5-0.4-21.9-0.4c-7.9,0-14.6,0.4-19.4,0.4c-0.4-0.6-0.4-3.4,0-3.8c3.5-0.4,5.4-0.7,7.4-1.5
	c2.6-0.9,3.2-3.3,3.2-7c0.3-10.6,0-45-0.1-57.5c-0.1-0.1-0.4-0.1-0.6,0c-5.8,12.8-25.9,56.4-30.2,69.2c-0.9,0.3-4.7,0.3-5.1,0
	c-3.3-11.9-16.9-42.5-28.1-70.1c-0.3,0-0.4,0.1-0.6,0.3c-1,10.5-2.9,45.3-2.9,55.8c0,5.7,1.2,8,5.1,9.2c2.3,0.7,4.5,1,8.7,1.6
	c0.6,0.4,0.3,3.4-0.3,3.8c-4.5,0-9.6-0.4-17.5-0.4c-6.3,0-12.5,0.4-16.9,0.4c-0.4-0.6-0.4-3.2,0-3.8c2.5-0.3,4.5-0.6,6.6-1
	c4.2-1.2,5.7-2.9,6.7-10.3c1.5-10.8,4.5-49,5.2-61.2c0-2.8-0.7-5.8-3.8-7c-2.6-1-5.8-1.5-9.9-2.2C73.7,697.5,74,694.8,74.4,694.5"/>
<path class="st0" d="M303.9,779.8c-10.2-1.5-11.1-2.3-15.4-13.4c-2.7-7.1-8.3-23.4-13.4-38.2c-3.8-10.9-7.2-20.9-9-26
	c-0.7-2.5-1.6-5.5-2-7.4c-1.5,0-3.2,0.1-6.1,0.1c-2.3,0-4.5-0.1-6.1-0.1c-0.3,2-1.3,5.5-2.2,8.2c-3.5,10.2-16.8,46.6-24.5,65.1
	c-3.9,9.5-5.8,10.5-15.9,11.8c-0.4,0.6-0.4,3.4,0,3.8c4.2,0,9-0.4,15.2-0.4c7.6,0,13.5,0.4,17.6,0.4c0.4-0.4,0.7-3.2,0.4-3.8
	c-2.8-0.3-4.8-0.7-6.8-1.2c-4.1-1-4.2-3.1-4.2-5.1c0-3.1,4.5-14.7,7.1-22c0.1-0.6,0.9-1.3,1.5-1.3c1.7-0.1,5.1-0.1,11.9-0.1
	c1.6,0,3.1,0,4.6,0h8.1l4.9,14.8c0,0.1,0,0.2,0.1,0.3c1.2,3.7,2.6,7.7,3.1,9.7c0.3,0.9,0.3,2.5-1.6,3.3c-1.5,0.6-4.2,1.2-7.1,1.6
	c-0.4,0.6-0.3,3.2,0,3.8c4.7-0.1,9.9-0.4,20.4-0.4c8.7,0,15.6,0.4,19.2,0.4C303.9,783.2,304.2,780.3,303.9,779.8 M261.8,742.5
	c0.1,0.3-0.1,0.9-0.4,0.9c-1.3,0.1-5.7,0-9.9,0c-4.8,0-8,0-9.5-0.1c-0.3,0-0.4-0.3-0.3-0.9c2.2-6.7,7-21.4,9.8-29.4
	c0.1-0.1,0.6,0,0.7,0c1.3,3.8,3.3,9.5,5.1,15.2l0,0C259,733.6,260.7,739,261.8,742.5"/>
<path class="st0" d="M324.7,694.5c4.5,0,12.1,0.4,19.5,0.4c3.9,0,7.1,0,8.6-0.1c0.7,1.7,2,3.6,5.2,7.7
	c12.2,15.7,37.6,47.6,46.5,58.3c0.1,0,0.1-0.1,0.4-0.1c0-18.5,0.3-43.9-0.6-52.9c-0.6-4.8-1.7-6.8-6.1-8.2c-2.6-0.6-5-1-8.9-1.5
	c-0.4-0.4-0.1-3.2,0.1-3.6c3.9,0,10.5,0.4,18.6,0.4c6.3,0,13.3-0.4,15.4-0.4c0.4,0.4,0.4,3.2,0,3.6c-2.3,0.4-4.1,0.7-5.8,1.3
	c-4.1,1.3-5.2,3.6-5.7,8.6c-0.9,12.7-1,36-1.2,56.1c0,6.6,0.1,14.9,0.3,19.8c-2.2-0.1-9.6-0.1-12.2,0.1
	c-7.3-10.6-45.5-59.9-53.2-70.1c-0.3-0.3-0.7,0-0.7,0.1c-0.3,15.6-0.1,48.7,0.3,55.4c0.3,6.1,2.3,8.2,6.3,9c2.2,0.6,4.8,0.9,8.2,1.3
	c0.4,0.4,0.4,3.2-0.1,3.8c-3.9,0-10.5-0.4-17.5-0.4c-8.3,0-14,0.4-17.5,0.4c-0.4-0.4-0.3-3.4,0-3.8c3.2-0.4,5.5-0.7,7.9-1.5
	c3.1-0.9,4.5-2.9,5.1-8.5c0.7-7.3,1.3-33.8,1.5-60.3c0-3.4-1.6-7.4-5-8.9c-2.8-1.5-5.4-2-9.6-2.5
	C324.3,697.8,324.4,694.9,324.7,694.5"/>
<path class="st0" d="M466,777.2c3.8,2.8,8.7,3.8,13.7,3.8c7.6,0,13.5-5.1,13.5-13.9c0-8.3-4.2-13-16.9-20.8
	c-13.3-8.5-22-14.7-22-28.5c0-16.3,13.4-25.5,29.6-25.5c10.3,0,16.3,1.9,22.6,2.3c-1,5.4-2,12.1-2.5,20.5c-0.6,0.6-3.4,0.6-3.8,0.1
	c-1.2-8.9-2.8-13.1-6.4-15.6c-3.4-2.3-6.8-3.1-11.2-3.1c-8.7,0-13.8,6.3-14,13.5c0,6.8,3.4,11.2,9.2,15.4c6,4.1,10.6,7.2,16.5,10.8
	c9.3,6,14.9,12.5,14.9,22.7c0,15.3-12.1,26.6-33.2,26.6c-9.2,0-18.2-2.6-21.3-4.5c-1.5-2.2-3.6-17.2-4.1-22c0.4-0.7,3.4-1.5,3.9-1
	C457.4,768.2,460.8,773.6,466,777.2"/>
<path class="st0" d="M540.7,694.5c4.5,0,11.1,0.4,20.1,0.4c11.2,0,16.6-0.4,19.5-0.4c0.3,0.6,0.4,3.1,0,3.6c-2.9,0.4-5.4,0.9-7,1.3
	c-3.2,1.2-3.5,2.9-3.8,7.9c-0.1,4.8-0.1,17.3-0.1,29.9c0,18.1,0,28.7,0.3,33.9c0.1,3.2,0.3,6.6,4.5,7.4c1.9,0.6,4.8,1,7.6,1.3
	c0.4,0.6,0.1,3.5-0.3,3.8c-5.7-0.1-11.4-0.4-19.7-0.4c-11.4,0-15.6,0.4-21.1,0.4c-0.7-0.4-0.7-3.2,0-3.8c2.8-0.3,4.8-0.6,6.6-1
	c3.6-0.9,4.4-2.3,4.8-7.4c0.3-5.2,0.3-21,0.3-36c0-14,0-22.9-0.4-29.6c-0.1-3.2-0.9-5.4-3.6-6.3c-2-0.6-4.2-1-7.7-1.5
	C540.1,697.7,540.3,694.9,540.7,694.5"/>
<path class="st0" d="M626.5,772.6c-8.7-9.5-12.2-22.3-12.2-33.8c0-11.2,3.1-21.6,10.2-29.4c8.2-10.3,22-17,37.7-17
	c29.9,0,45.6,20.8,45.6,45.3c0,11.2-2.8,21.6-8.7,29.6c-9,12.5-23.3,18.6-38.5,18.6C645.8,785.8,634.3,780.7,626.5,772.6
	 M678.5,775.3c7.4-7,10.2-20.1,10.2-32.8c0-14.9-4.2-31-14.3-39.3c-4.5-3.8-9.8-5.8-16.2-5.8c-4.5,0-8.9,1.5-12.1,3.6
	c-9,6.3-12.7,19.1-12.7,33.4c0,14.1,4.4,31.6,15.6,40.5c4.4,3.5,9.8,5.5,16.3,5.5C670.4,780.4,675.3,778.4,678.5,775.3"/>
<path class="st0" d="M738.8,694.5c4.5,0,12.1,0.4,19.5,0.4c3.9,0,7.1,0,8.6-0.1c0.7,1.7,2,3.6,5.2,7.7
	c12.2,15.7,37.6,47.6,46.5,58.3c0.1,0,0.1-0.1,0.4-0.1c0-18.5,0.3-43.9-0.6-52.9c-0.6-4.8-1.7-6.8-6.1-8.2c-2.6-0.6-5-1-8.9-1.5
	c-0.4-0.4-0.1-3.2,0.1-3.6c3.9,0,10.5,0.4,18.6,0.4c6.3,0,13.3-0.4,15.4-0.4c0.4,0.4,0.4,3.2,0,3.6c-2.3,0.4-4.1,0.7-5.8,1.3
	c-4.1,1.3-5.2,3.6-5.7,8.6c-0.9,12.7-1,36-1.2,56.1c0,6.6,0.1,14.9,0.3,19.8c-2.2-0.1-9.6-0.1-12.2,0.1
	c-7.3-10.6-45.5-59.9-53.2-70.1c-0.3-0.3-0.7,0-0.7,0.1c-0.3,15.6-0.1,48.7,0.3,55.4c0.3,6.1,2.3,8.2,6.3,9c2.2,0.6,4.8,0.9,8.2,1.3
	c0.4,0.4,0.4,3.2-0.1,3.8c-3.9,0-10.5-0.4-17.5-0.4c-8.3,0-14,0.4-17.5,0.4c-0.4-0.4-0.3-3.4,0-3.8c3.2-0.4,5.5-0.7,7.9-1.5
	c3.1-0.9,4.5-2.9,5.1-8.5c0.7-7.3,1.3-33.8,1.5-60.3c0-3.4-1.6-7.4-5-8.9c-2.8-1.5-5.4-2-9.6-2.5
	C738.4,697.8,738.6,694.9,738.8,694.5"/>
<path class="st0" d="M880.2,777.2c3.8,2.8,8.7,3.8,13.7,3.8c7.6,0,13.5-5.1,13.5-13.9c0-8.3-4.2-13-16.9-20.8
	c-13.3-8.5-22-14.7-22-28.5c0-16.3,13.4-25.5,29.6-25.5c10.3,0,16.3,1.9,22.6,2.3c-1,5.4-2,12.1-2.5,20.5c-0.6,0.6-3.4,0.6-3.8,0.1
	c-1.2-8.9-2.8-13.1-6.4-15.6c-3.4-2.3-6.8-3.1-11.2-3.1c-8.7,0-13.8,6.3-14,13.5c0,6.8,3.3,11.2,9.2,15.4c6,4.1,10.6,7.2,16.5,10.8
	c9.3,6,14.9,12.5,14.9,22.7c0,15.3-12.1,26.6-33.2,26.6c-9.2,0-18.2-2.6-21.3-4.5c-1.5-2.2-3.6-17.2-4.1-22c0.4-0.7,3.3-1.5,3.9-1
	C871.6,768.2,874.9,773.6,880.2,777.2"/>
<path class="st0" d="M750.1,271.6l0-35.7c0.4-11.4,1.5-22.8,3.4-34l1.1-6.7l-6.7,1.1c-14,2.4-28.3,3.6-42.5,3.6l0,0h-40.2v-40.2
	c0-14.2,1.2-28.4,3.6-42.4l1.1-6.7l-6.7,1.1c-10.3,1.8-20.7,2.9-31.2,3.3h-30.1c-14.2,0-28.5-1.2-42.5-3.6l-6.7-1.1l1.1,6.7
	c2.4,14.1,3.6,28.3,3.6,42.5v18.7c0,14.2-1.2,28.4-3.6,42.5l-1.1,6.7l6.7-1.1c14-2.4,28.3-3.6,42.5-3.6h45.6L615,235.9
	c-1.9,0.8-3.6,1.9-5.1,3.4l-3.5,3.5l-2.6-2.6l-2.8-2.8c-1.5-1.5-3.9-1.5-5.4,0l-4.5,4.5c-2.9,2.9-6,5.5-9.3,7.8l-1.6,1.1l1.6,1.1
	c3,2.1,5.7,4.4,8.3,7l-32.9,32.9l-29.5-29.5l0.5,0.1c-10.1-10.1-19.3-21-27.5-32.6l-3.9-5.5l-3.9,5.5c-8.2,11.6-17.4,22.5-27.5,32.6
	l-29.2,29.2l-16.4-16.4c-2.8-2.8-6.7-4.4-10.7-4.4h-17.5l3.9-3.9l7.2-7.2c2.9-2.9,6-5.5,9.3-7.8l1.6-1.1l-1.6-1.1
	c-3.3-2.3-6.4-4.9-9.3-7.8l-4.5-4.5c-1.5-1.5-3.9-1.5-5.4,0l-5.4,5.4l-20-20h24.3c14.2,0,28.5,1.2,42.5,3.6l6.7,1.1l-1.1-6.7
	c-2.4-14.1-3.6-28.3-3.6-42.5v-18.7c0-14.3,1.2-28.5,3.6-42.5l1.1-6.7l-6.7,1.1c-14,2.4-28.3,3.6-42.5,3.6h-30.1
	c-10.4-0.5-20.9-1.6-31.2-3.3l-6.7-1.1l1.1,6.7c2.4,14,3.6,28.3,3.6,42.5l0,0V200h-40.2l0,0c-14.2,0-28.5-1.2-42.5-3.6l-6.7-1.1
	l1.1,6.7c1.9,11.3,3.1,22.7,3.4,34.1v35.5c-0.4,11.4-1.5,22.8-3.4,34.1l-1.1,6.7l6.7-1.1c14-2.4,28.3-3.6,42.5-3.6h30.1
	c10.4,0.5,20.8,1.6,31.2,3.3l6.7,1.1l-2.1-12.3c-1.9-11.4-2.2-23-2.6-34.5c-0.1-1.7-0.4-3.3-1-4.9L336.5,224l34.9,34.9l-5.4,5.4
	c-1.5,1.5-1.5,3.9,0,5.4l4.5,4.5c2.8,2.8,5.4,5.9,7.8,9.2l1.1,1.6l1.1-1.6c2.1-3,4.4-5.7,7-8.3l32.7,32.7l-27.9,27.9
	c-10.1,10.1-21,19.3-32.6,27.5l-5.5,3.9l5.5,3.9c8.5,6,16.7,12.6,24.4,19.7l37.2,37.2l-22.9,22.9l-10.1,10.1L301,548.1c0,0,0,0,0,0
	l-33.3,33.3c-1.5,1.5-1.5,3.9,0,5.4l0.2,0.2c4.2,4.2,8.1,8.8,11.6,13.7l1.7,2.3l1.6-2.3c3.5-4.9,7.3-9.5,11.6-13.7l6.2-6.2
	l31.1,31.1c3.4,3.4,6.6,7.1,9.4,11.1l1.3,1.9l1.3-1.9c2.8-3.9,5.9-7.6,9.3-11l0.1-0.1h0c1.5-1.5,1.5-3.9,0-5.4l-24.1-24.1h25.5
	l9.4-9.3v-25.5l24.1,24.1c1.5,1.5,3.9,1.5,5.4,0v0l0.1-0.1c3.4-3.4,7.1-6.5,11-9.3l1.9-1.3l-1.9-1.3c-3.9-2.8-7.6-5.9-11.1-9.3
	l-31.1-31.1h0l-8-8h16.1l50.7-50.7c2.8-2.8,4.4-6.7,4.4-10.7v-17.5l39.9,39.9c10.1,10.1,19.3,21,27.5,32.6l3.9,5.5l3.9-5.6
	c8.2-11.6,17.4-22.5,27.5-32.6l11.8-11.8c2.8-2.8,4.4-6.7,4.4-10.7l0-17.5l35,35l34,34l18.1,18.1l-31.1,31.1
	c-3.4,3.4-7.1,6.6-11.1,9.4l-1.9,1.3l1.9,1.3c3.9,2.8,7.6,5.9,11,9.3l0.1,0.1c1.5,1.5,3.9,1.5,5.4,0l24.1-24.1l0,25.5l9.3,9.3h25.5
	l-24.1,24.1c-1.5,1.5-1.5,3.9,0,5.4l0.1,0.1c3.4,3.4,6.5,7.1,9.3,11l1.3,1.9l1.3-1.9c2.8-4,5.9-7.7,9.4-11.1l31.1-31.1l8-8v16.2
	c3.5,3.7,6.8,7.6,9.7,11.8l1.6,2.3l1.6-2.3c3.5-4.9,7.3-9.5,11.6-13.7l0.2-0.2c1.5-1.5,1.5-3.9,0-5.4L595.5,450.8l-23.1-23.1l29-29
	c10.1-10.1,21-19.3,32.6-27.5l5.5-3.9l-5.5-3.9c-11.6-8.2-22.5-17.4-32.6-27.5l-28-28l16.6-16.6c2.8-2.8,4.4-6.7,4.4-10.7V263l11,11
	c2.9,2.9,5.5,6,7.8,9.3l1.1,1.6l1.1-1.6c2.3-3.3,4.9-6.4,7.8-9.3l4.5-4.5c1.5-1.5,1.5-3.9,0-5.4l-5.4-5.4l20-20v24.1
	c0,14.2-1.2,28.4-3.6,42.5l-1.1,6.7l6.7-1.1c10.3-1.8,20.5-2.9,31-3.3h30.1c14.2,0,28.5,1.2,42.5,3.6l6.7,1.1l-1.1-6.7
	C751.6,294.4,750.4,283,750.1,271.6 M642.5,198.1c0,1-0.9,1.9-1.9,1.9h-58.3c-1,0-1.9-0.8-1.9-1.9v-58.3c0-1,0.9-1.9,1.9-1.9h58.3
	c1,0,1.9,0.8,1.9,1.9L642.5,198.1L642.5,198.1z M326.7,284.8h-58.3c-1,0-1.9-0.8-1.9-1.9l0-58.3c0-1,0.8-1.9,1.9-1.9h58.3
	c1,0,1.9,0.8,1.9,1.9v58.3C328.6,284,327.7,284.8,326.7,284.8 M351.3,198.1v-58.3c0-1,0.8-1.9,1.9-1.9h58.3c1,0,1.9,0.8,1.9,1.9
	v58.3c0,1-0.8,1.9-1.9,1.9h-58.3C352.2,200,351.3,199.1,351.3,198.1 M317.9,563.4h-14.7l41.6-26.9l0,26.9L317.9,563.4L317.9,563.4z
	 M649,563.4v-26.9v-14.7l26.9,41.6H649z M495.4,264.7c0.7-0.7,1.9-0.7,2.7,0l43.2,43.2l-44.3,44.3l-44.5-44.5L495.4,264.7z
	 M394.2,368.6c-0.7-0.7-0.7-1.9,0-2.7l25.8-25.8c2.8-2.8,4.4-6.7,4.4-10.7v-17.5l56.4,56.4l-43.5,43.5L394.2,368.6z M498,469.8
	c-0.7,0.7-1.9,0.7-2.7,0l-41.9-41.9l0.2-0.2h0l55.2-55.2V390c0,4,1.6,7.9,4.4,10.7l26.9,26.9L498,469.8z M599.3,365.9
	c0.7,0.7,0.7,1.9,0,2.7l-43,43L513,368.3l28-28c2.8-2.8,4.4-6.7,4.4-10.7v-17.5l11.9,11.9l3.6,3.6l4.8,4.8L599.3,365.9z
	 M727.3,282.9c0,1-0.9,1.9-1.9,1.9h-58.3c-1,0-1.9-0.8-1.9-1.9l0-58.3c0-1,0.8-1.9,1.9-1.9h58.3c1,0,1.9,0.8,1.9,1.9L727.3,282.9
	L727.3,282.9z"/>
<path class="st0" d="M305.8,824.8c-4.4,0-7.8,1.4-10.2,4.2c-2.4,2.8-3.6,6.6-3.6,11.5c0,4.8,1.3,8.7,3.8,11.6
	c2.5,2.9,5.9,4.4,10.2,4.4c5.5,0,9.7-2.7,12.4-8.2l4.4,2.2c-1.6,3.4-3.9,6-6.8,7.7c-2.9,1.8-6.3,2.7-10.2,2.7c-4,0-7.4-0.8-10.3-2.5
	c-2.9-1.6-5.1-4-6.6-7.1c-1.5-3.1-2.3-6.7-2.3-10.9c0-6.3,1.7-11.2,5.1-14.8s8.1-5.3,14.1-5.3c4.2,0,7.7,0.8,10.5,2.5
	c2.8,1.6,4.9,4.1,6.2,7.3l-5.1,1.7c-0.9-2.3-2.4-4-4.4-5.3C311,825.4,308.6,824.8,305.8,824.8"/>
<path class="st0" d="M386.2,860.5l-10.2-16.4h-12.3v16.4h-5.3v-39.4h18.5c4.4,0,7.9,1,10.3,3c2.4,2,3.6,4.7,3.6,8.3
	c0,2.9-0.9,5.4-2.6,7.4c-1.7,2-4.1,3.3-7.1,3.8l11.2,17H386.2z M385.4,832.4c0-2.3-0.8-4-2.3-5.2c-1.6-1.2-3.8-1.8-6.7-1.8h-12.7
	v14.5h12.9c2.8,0,5-0.7,6.5-2C384.6,836.6,385.4,834.8,385.4,832.4"/>
<path class="st0" d="M465.4,840.6c0,4.1-0.8,7.7-2.4,10.8c-1.6,3.1-3.8,5.5-6.8,7.1c-2.9,1.7-6.4,2.5-10.4,2.5
	c-4,0-7.5-0.8-10.5-2.5c-2.9-1.6-5.2-4-6.7-7.1c-1.5-3.1-2.3-6.7-2.3-10.9c0-6.3,1.7-11.2,5.2-14.8c3.4-3.6,8.2-5.3,14.4-5.3
	c4,0,7.5,0.8,10.4,2.4c2.9,1.6,5.2,3.9,6.8,7C464.6,832.9,465.4,836.4,465.4,840.6 M460,840.6c0-4.9-1.2-8.8-3.7-11.5
	c-2.5-2.8-5.9-4.2-10.4-4.2c-4.5,0-8,1.4-10.5,4.1c-2.5,2.8-3.7,6.6-3.7,11.6c0,4.9,1.2,8.9,3.7,11.8c2.5,2.9,5.9,4.3,10.4,4.3
	c4.5,0,8-1.4,10.5-4.2C458.7,849.7,460,845.7,460,840.6"/>
<path class="st0" d="M529.4,860.5l-4.5-11.5h-18l-4.5,11.5h-5.5l16.1-39.4h6.1l15.8,39.4L529.4,860.5L529.4,860.5z M515.9,825.1
	l-0.2,0.8c-0.5,1.5-1.2,3.5-2.1,6l-5,12.9h14.7l-5.1-13c-0.5-1.3-1-2.7-1.6-4.4L515.9,825.1z"/>
<polygon class="st0" points="579.5,825.4 579.5,860.5 574.2,860.5 574.2,825.4 560.6,825.4 560.6,821.1 593,821.1 593,825.4 "/>
<rect x="628.2" y="821.1" class="st0" width="5.3" height="39.4"/>
<path class="st0" d="M700.1,860.5l-4.5-11.5h-17.9l-4.5,11.5h-5.5l16.1-39.4h6.1l15.8,39.4L700.1,860.5L700.1,860.5z M686.6,825.1
	l-0.3,0.8c-0.5,1.5-1.2,3.5-2.1,6l-5,12.9H694l-5.1-13c-0.5-1.3-1-2.7-1.6-4.4L686.6,825.1z"/>
</svg>
