<?xml version="1.0" encoding="utf-8"?>
<!-- Generator: Adobe Illustrator 24.3.0, SVG Export Plug-In . SVG Version: 6.00 Build 0)  -->
<svg version="1.1" id="Layer_1" xmlns="http://www.w3.org/2000/svg" xmlns:xlink="http://www.w3.org/1999/xlink" x="0px" y="0px"
	 viewBox="0 0 854.4 750.6" style="enable-background:new 0 0 854.4 750.6;" xml:space="preserve">
<style type="text/css">
	.st0{fill:#D6A75E;}
</style>
<path class="st0" d="M5.6,584.1c8.7,0.1,15.3,0.4,30.6,0.4c0.3,2.8,1.2,5.7,2.6,8.7c6.8,15.4,20.1,44.7,23.3,51
	c0.3,0.1,0.6,0.1,0.7-0.1c3.5-6.4,18.9-39.2,24-51c1.3-3.2,2.5-6.4,2.6-8.6c13.7,0,20.1-0.4,28.4-0.4c0.6,0.3,0.4,3.2,0,3.8
	c-4.1,0.4-6.6,1-8.5,1.6c-3.6,1.2-4.2,3.3-4.2,7c-0.3,9.8,0.9,53.3,1.6,63.4c0.3,4.4,1,7.4,5.2,8.3c1.9,0.6,4.4,1,7.6,1.3
	c0.4,0.6,0.3,3.1-0.3,3.8c-4.1,0-9.5-0.4-21.9-0.4c-7.9,0-14.6,0.4-19.4,0.4c-0.4-0.6-0.4-3.4,0-3.8c3.5-0.4,5.4-0.7,7.4-1.5
	c2.6-0.9,3.2-3.3,3.2-7c0.3-10.6,0-45-0.1-57.5c-0.1-0.1-0.4-0.1-0.6,0c-5.8,12.8-25.9,56.4-30.2,69.2c-0.9,0.3-4.7,0.3-5.1,0
	c-3.3-11.9-16.9-42.5-28.1-70.1c-0.3,0-0.4,0.1-0.6,0.3c-1,10.5-2.9,45.3-2.9,55.8c0,5.7,1.2,8,5.1,9.2c2.3,0.7,4.5,1,8.7,1.6
	c0.6,0.4,0.3,3.4-0.3,3.8c-4.5,0-9.6-0.4-17.5-0.4c-6.3,0-12.5,0.4-16.9,0.4c-0.4-0.6-0.4-3.2,0-3.8c2.5-0.3,4.5-0.6,6.6-1
	c4.2-1.2,5.7-2.9,6.7-10.3c1.5-10.8,4.5-49,5.2-61.2c0-2.8-0.7-5.8-3.8-7c-2.6-1-5.8-1.5-9.9-2.2C4.8,587.1,5.1,584.4,5.6,584.1"/>
<path class="st0" d="M235,669.4c-10.2-1.5-11.1-2.3-15.4-13.4c-2.7-7.1-8.3-23.4-13.4-38.2c-3.8-10.9-7.2-20.9-9-26
	c-0.7-2.5-1.6-5.5-2-7.4c-1.5,0-3.2,0.1-6.1,0.1c-2.3,0-4.5-0.1-6.1-0.1c-0.3,2-1.3,5.5-2.2,8.2c-3.5,10.2-16.8,46.6-24.5,65.1
	c-3.9,9.5-5.8,10.5-15.9,11.8c-0.4,0.6-0.4,3.4,0,3.8c4.2,0,9-0.4,15.2-0.4c7.6,0,13.5,0.4,17.6,0.4c0.4-0.4,0.7-3.2,0.4-3.8
	c-2.8-0.3-4.8-0.7-6.8-1.2c-4.1-1-4.2-3.1-4.2-5.1c0-3.1,4.5-14.7,7.1-22c0.1-0.6,0.9-1.3,1.5-1.3c1.7-0.1,5.1-0.1,11.9-0.1
	c1.6,0,3.1,0,4.6,0h8.1l4.9,14.8c0,0.1,0,0.2,0.1,0.3c1.2,3.7,2.6,7.7,3.1,9.7c0.3,0.9,0.3,2.5-1.6,3.3c-1.5,0.6-4.2,1.2-7.1,1.6
	c-0.4,0.6-0.3,3.2,0,3.8c4.7-0.1,9.9-0.4,20.4-0.4c8.7,0,15.6,0.4,19.2,0.4C235,672.8,235.3,669.9,235,669.4 M192.9,632.1
	c0.1,0.3-0.1,0.9-0.4,0.9c-1.3,0.1-5.7,0-9.9,0c-4.8,0-8,0-9.5-0.1c-0.3,0-0.4-0.3-0.3-0.9c2.2-6.7,7-21.4,9.8-29.4
	c0.1-0.1,0.6,0,0.7,0c1.3,3.8,3.3,9.5,5.1,15.2l0,0C190.2,623.2,191.8,628.6,192.9,632.1"/>
<path class="st0" d="M255.8,584.1c4.5,0,12.1,0.4,19.5,0.4c3.9,0,7.1,0,8.6-0.1c0.7,1.7,2,3.6,5.2,7.7
	c12.2,15.7,37.6,47.6,46.5,58.3c0.1,0,0.1-0.1,0.4-0.1c0-18.5,0.3-43.9-0.6-52.9c-0.6-4.8-1.7-6.8-6.1-8.2c-2.6-0.6-5-1-8.9-1.5
	c-0.4-0.4-0.1-3.2,0.1-3.6c3.9,0,10.5,0.4,18.6,0.4c6.3,0,13.3-0.4,15.4-0.4c0.4,0.4,0.4,3.2,0,3.6c-2.3,0.4-4.1,0.7-5.8,1.3
	c-4.1,1.3-5.2,3.6-5.7,8.6c-0.9,12.7-1,36-1.2,56.1c0,6.6,0.1,14.9,0.3,19.8c-2.2-0.1-9.6-0.1-12.2,0.1
	c-7.3-10.6-45.5-59.9-53.2-70.1c-0.3-0.3-0.7,0-0.7,0.1c-0.3,15.6-0.1,48.7,0.3,55.4c0.3,6.1,2.3,8.2,6.3,9c2.2,0.6,4.8,0.9,8.2,1.3
	c0.4,0.4,0.4,3.2-0.1,3.8c-3.9,0-10.5-0.4-17.5-0.4c-8.3,0-14,0.4-17.5,0.4c-0.4-0.4-0.3-3.4,0-3.8c3.2-0.4,5.5-0.7,7.9-1.5
	c3.1-0.9,4.5-2.9,5.1-8.5c0.7-7.3,1.3-33.8,1.5-60.3c0-3.4-1.6-7.4-5-8.9c-2.8-1.5-5.4-2-9.6-2.5
	C255.4,587.4,255.5,584.5,255.8,584.1"/>
<path class="st0" d="M397.1,666.8c3.8,2.8,8.7,3.8,13.7,3.8c7.6,0,13.5-5.1,13.5-13.9c0-8.3-4.2-13-16.9-20.8
	c-13.3-8.5-22-14.7-22-28.5c0-16.3,13.4-25.5,29.6-25.5c10.3,0,16.3,1.9,22.6,2.3c-1,5.4-2,12.1-2.5,20.5c-0.6,0.6-3.4,0.6-3.8,0.1
	c-1.2-8.9-2.8-13.1-6.4-15.6c-3.4-2.3-6.8-3.1-11.2-3.1c-8.7,0-13.8,6.3-14,13.5c0,6.8,3.4,11.2,9.2,15.4c6,4.1,10.6,7.2,16.5,10.8
	c9.3,6,14.9,12.5,14.9,22.7c0,15.3-12.1,26.6-33.2,26.6c-9.2,0-18.2-2.6-21.3-4.5c-1.5-2.2-3.6-17.2-4.1-22c0.4-0.7,3.4-1.5,3.9-1
	C388.5,657.8,391.9,663.2,397.1,666.8"/>
<path class="st0" d="M471.9,584.1c4.5,0,11.1,0.4,20.1,0.4c11.2,0,16.6-0.4,19.5-0.4c0.3,0.6,0.4,3.1,0,3.6c-2.9,0.4-5.4,0.9-7,1.3
	c-3.2,1.2-3.5,2.9-3.8,7.9c-0.1,4.8-0.1,17.3-0.1,29.9c0,18.1,0,28.7,0.3,33.9c0.1,3.2,0.3,6.6,4.5,7.4c1.9,0.6,4.8,1,7.6,1.3
	c0.4,0.6,0.1,3.5-0.3,3.8c-5.7-0.1-11.4-0.4-19.7-0.4c-11.4,0-15.6,0.4-21.1,0.4c-0.7-0.4-0.7-3.2,0-3.8c2.8-0.3,4.8-0.6,6.6-1
	c3.6-0.9,4.4-2.3,4.8-7.4c0.3-5.2,0.3-21,0.3-36c0-14,0-22.9-0.4-29.6c-0.1-3.2-0.9-5.4-3.6-6.3c-2-0.6-4.2-1-7.7-1.5
	C471.3,587.3,471.4,584.5,471.9,584.1"/>
<path class="st0" d="M557.7,662.2c-8.7-9.5-12.2-22.3-12.2-33.8c0-11.2,3.1-21.6,10.2-29.4c8.2-10.3,22-17,37.7-17
	c29.9,0,45.6,20.8,45.6,45.3c0,11.2-2.8,21.6-8.7,29.6c-9,12.5-23.3,18.6-38.5,18.6C576.9,675.4,565.4,670.3,557.7,662.2
	 M609.7,664.9c7.4-7,10.2-20.1,10.2-32.8c0-14.9-4.2-31-14.3-39.3c-4.5-3.8-9.8-5.8-16.2-5.8c-4.5,0-8.9,1.5-12.1,3.6
	c-9,6.3-12.7,19.1-12.7,33.4c0,14.1,4.4,31.6,15.6,40.5c4.4,3.5,9.8,5.5,16.3,5.5C601.5,670,606.5,668,609.7,664.9"/>
<path class="st0" d="M670,584.1c4.5,0,12.1,0.4,19.5,0.4c3.9,0,7.1,0,8.6-0.1c0.7,1.7,2,3.6,5.2,7.7c12.2,15.7,37.6,47.6,46.5,58.3
	c0.1,0,0.1-0.1,0.4-0.1c0-18.5,0.3-43.9-0.6-52.9c-0.6-4.8-1.7-6.8-6.1-8.2c-2.6-0.6-5-1-8.9-1.5c-0.4-0.4-0.1-3.2,0.1-3.6
	c3.9,0,10.5,0.4,18.6,0.4c6.3,0,13.3-0.4,15.4-0.4c0.4,0.4,0.4,3.2,0,3.6c-2.3,0.4-4.1,0.7-5.8,1.3c-4.1,1.3-5.2,3.6-5.7,8.6
	c-0.9,12.7-1,36-1.2,56.1c0,6.6,0.1,14.9,0.3,19.8c-2.2-0.1-9.6-0.1-12.2,0.1c-7.3-10.6-45.5-59.9-53.2-70.1c-0.3-0.3-0.7,0-0.7,0.1
	c-0.3,15.6-0.1,48.7,0.3,55.4c0.3,6.1,2.3,8.2,6.3,9c2.2,0.6,4.8,0.9,8.2,1.3c0.4,0.4,0.4,3.2-0.1,3.8c-3.9,0-10.5-0.4-17.5-0.4
	c-8.3,0-14,0.4-17.5,0.4c-0.4-0.4-0.3-3.4,0-3.8c3.2-0.4,5.5-0.7,7.9-1.5c3.1-0.9,4.5-2.9,5.1-8.5c0.7-7.3,1.3-33.8,1.5-60.3
	c0-3.4-1.6-7.4-5-8.9c-2.8-1.5-5.4-2-9.6-2.5C669.6,587.4,669.7,584.5,670,584.1"/>
<path class="st0" d="M811.3,666.8c3.8,2.8,8.7,3.8,13.7,3.8c7.6,0,13.5-5.1,13.5-13.9c0-8.3-4.2-13-16.9-20.8
	c-13.3-8.5-22-14.7-22-28.5c0-16.3,13.4-25.5,29.6-25.5c10.3,0,16.3,1.9,22.6,2.3c-1,5.4-2,12.1-2.5,20.5c-0.6,0.6-3.4,0.6-3.8,0.1
	c-1.2-8.9-2.8-13.1-6.4-15.6c-3.4-2.3-6.8-3.1-11.2-3.1c-8.7,0-13.8,6.3-14,13.5c0,6.8,3.3,11.2,9.2,15.4c6,4.1,10.6,7.2,16.5,10.8
	c9.3,6,14.9,12.5,14.9,22.7c0,15.3-12.1,26.6-33.2,26.6c-9.2,0-18.2-2.6-21.3-4.5c-1.5-2.2-3.6-17.2-4.1-22c0.4-0.7,3.3-1.5,3.9-1
	C802.7,657.8,806.1,663.2,811.3,666.8"/>
<path class="st0" d="M690.3,167v-37c0.4-11.8,1.6-23.6,3.5-35.2l1.1-6.9L688,89c-14.5,2.5-29.3,3.7-44,3.7l0,0h-41.6V51.2
	c0-14.7,1.2-29.4,3.7-43.9l1.1-6.9l-6.9,1.1c-10.7,1.9-21.4,3-32.3,3.4h-31.2c-14.7,0-29.5-1.2-44-3.7L486,0l1.1,6.9
	c2.5,14.6,3.7,29.3,3.7,44v19.4c0,14.7-1.2,29.4-3.7,44l-1.1,6.9l6.9-1.1c14.5-2.5,29.3-3.7,44-3.7h47.2L550.3,130
	c-2,0.8-3.7,2-5.3,3.5l-3.6,3.6l-2.7-2.7l-2.9-2.9c-1.6-1.6-4-1.6-5.6,0l-4.7,4.7c-3,3-6.2,5.7-9.6,8.1l-1.7,1.1l1.7,1.1
	c3.1,2.2,5.9,4.6,8.6,7.3l-34.1,34.1l-30.4-30.6l0.5,0.1c-10.5-10.5-20-21.8-28.5-33.8l-4-5.7l-4,5.7c-8.5,12-18,23.3-28.5,33.8
	l-30.2,30.2l-17.1-17c-2.9-2.9-6.9-4.6-11.1-4.6H319l4-4l7.5-7.5c3-3,6.2-5.7,9.6-8.1l1.7-1.1l-1.7-1.1c-3.4-2.4-6.6-5.1-9.6-8.1
	l-4.7-4.7c-1.6-1.6-4-1.6-5.6,0l-5.6,5.6l-20.7-20.7h25.2c14.7,0,29.5,1.2,44,3.7l6.9,1.1l-1.1-6.9c-2.5-14.6-3.7-29.3-3.7-44V51
	c0-14.8,1.2-29.5,3.7-44l1.1-6.9l-6.9,1.1c-14.5,2.5-29.3,3.7-44,3.7h-31.2c-10.8-0.5-21.7-1.7-32.3-3.4l-6.8-1.1l1.1,6.9
	c2.5,14.5,3.7,29.3,3.7,44l0,0v41.5H212l0,0c-14.7,0-29.5-1.2-44-3.7L161,88l1.1,6.9c2,11.7,3.2,23.5,3.5,35.3V167
	c-0.4,11.8-1.6,23.6-3.5,35.3l-1.1,6.9l6.9-1.1c14.5-2.5,29.3-3.7,44-3.7h31.2c10.8,0.5,21.5,1.7,32.3,3.4l6.9,1.1l-2.2-12.7
	c-2-11.8-2.3-23.8-2.7-35.7c-0.1-1.8-0.4-3.4-1-5.1l-14.6-37.7l36.2,36.2l-5.6,5.6c-1.6,1.6-1.6,4,0,5.6l4.7,4.7
	c2.9,2.9,5.6,6.1,8.1,9.5l1.1,1.7l1.1-1.7c2.2-3.1,4.6-5.9,7.3-8.6l33.9,33.9l-28.9,28.9c-10.5,10.5-21.8,20-33.8,28.5l-5.7,4l5.7,4
	c8.8,6.2,17.3,13.1,25.3,20.4l38.5,38.5l-23.7,23.7l-10.5,10.5l-90.3,90.3l0,0l-34.6,34.5c-1.6,1.6-1.6,4,0,5.6l0.2,0.2
	c4.4,4.4,8.4,9.1,12,14.2l1.8,2.4l1.7-2.4c3.6-5.1,7.6-9.8,12-14.2l6.4-6.4l32.2,32.2c3.5,3.5,6.8,7.4,9.7,11.5l1.3,2l1.3-2
	c2.9-4,6.1-7.9,9.6-11.4l0.1-0.1l0,0c1.6-1.6,1.6-4,0-5.6l-25-25h26.4l9.7-9.6v-26.4l25,25c1.6,1.6,4,1.6,5.6,0l0,0l0.1-0.1
	c3.5-3.5,7.4-6.7,11.4-9.6l2-1.3l-2-1.3c-4-2.9-7.9-6.1-11.5-9.6l-32.2-32.2l0,0l-8.3-8.3h16.7l52.5-52.5c2.9-2.9,4.6-6.9,4.6-11.1
	v-18.1l41.3,41.3c10.5,10.5,20,21.8,28.5,33.8l4,5.7l4-5.8c8.5-12,18-23.3,28.5-33.8l12.2-12.2c2.9-2.9,4.6-6.9,4.6-11.1v-18.1
	l36.3,36.3l35.2,35.2l18.8,18.8l-32.2,32.2c-3.5,3.5-7.4,6.8-11.5,9.7l-2,1.3l2,1.3c4,2.9,7.9,6.1,11.4,9.6l0.1,0.1
	c1.6,1.6,4,1.6,5.6,0l25-25v26.4l9.6,9.6H602l-25,24.8c-1.6,1.6-1.6,4,0,5.6l0.1,0.1c3.5,3.5,6.7,7.4,9.6,11.4l1.3,2l1.3-2
	c2.9-4.1,6.1-8,9.7-11.5l32.2-32.2l8.3-8.3v16.8c3.6,3.8,7,7.9,10,12.2l1.7,2.4l1.7-2.4c3.6-5.1,7.6-9.8,12-14.2l0.2-0.2
	c1.6-1.6,1.6-4,0-5.6L530.1,352.6l-23.9-23.9l30-30c10.5-10.5,21.8-20,33.8-28.5l5.7-4l-5.7-4c-12-8.5-23.3-18-33.8-28.5l-29-29
	l17.2-17.2c2.9-2.9,4.6-6.9,4.6-11.1v-18.1l11.4,11.4c3,3,5.7,6.2,8.1,9.6l1.1,1.7l1.1-1.7c2.4-3.4,5.1-6.6,8.1-9.6l4.7-4.7
	c1.6-1.6,1.6-4,0-5.6l-5.6-5.6l20.7-20.7v25c0,14.7-1.2,29.4-3.7,44l-1.1,6.9l6.9-1.1c10.7-1.9,21.2-3,32.1-3.4H644
	c14.7,0,29.5,1.2,44,3.7l6.9,1.1l-1.1-6.9C691.9,190.6,690.7,178.8,690.3,167 M578.8,90.9c0,1-0.9,2-2,2h-60.4c-1,0-2-0.8-2-2V30.5
	c0-1,0.9-2,2-2h60.4c1,0,2,0.8,2,2V90.9L578.8,90.9z M251.7,180.7h-60.4c-1,0-2-0.8-2-2v-60.4c0-1,0.8-2,2-2h60.4c1,0,2,0.8,2,2
	v60.4C253.6,179.8,252.8,180.7,251.7,180.7 M277.3,90.9V30.5c0-1,0.8-2,2-2h60.4c1,0,2,0.8,2,2v60.4c0,1-0.8,2-2,2h-60.4
	C278.1,92.8,277.3,91.9,277.3,90.9 M242.7,469.3h-15.2l43.1-27.9v27.9H242.7L242.7,469.3z M585.6,469.3v-27.9v-15.2l27.9,43.1H585.6
	z M426.4,159.8c0.7-0.7,2-0.7,2.8,0l44.8,44.8l-46,45.9l-46.1-46.1L426.4,159.8z M321.6,267.5c-0.7-0.7-0.7-2,0-2.8l26.7-26.7
	c2.9-2.9,4.6-6.9,4.6-11.1v-18.1l58.4,58.4l-45.1,45.1L321.6,267.5z M429.2,372.3c-0.7,0.7-2,0.7-2.8,0L383,328.9l0.2-0.2l0,0
	l57.2-57.2v18.1c0,4.1,1.7,8.2,4.6,11.1l27.9,27.9L429.2,372.3z M534.1,264.7c0.7,0.7,0.7,2,0,2.8L489.5,312l-44.9-44.9l29-29
	c2.9-2.9,4.6-6.9,4.6-11.1V209l12.3,12.3l3.7,3.7l5,5L534.1,264.7z M666.7,178.7c0,1-0.9,2-2,2h-60.4c-1,0-2-0.8-2-2v-60.4
	c0-1,0.8-2,2-2h60.4c1,0,2,0.8,2,2V178.7L666.7,178.7z"/>
<path class="st0" d="M236.9,714.4c-4.4,0-7.8,1.4-10.2,4.2s-3.6,6.6-3.6,11.5c0,4.8,1.3,8.7,3.8,11.6c2.5,2.9,5.9,4.4,10.2,4.4
	c5.5,0,9.7-2.7,12.4-8.2l4.4,2.2c-1.6,3.4-3.9,6-6.8,7.7c-2.9,1.8-6.3,2.7-10.2,2.7c-4,0-7.4-0.8-10.3-2.5c-2.9-1.6-5.1-4-6.6-7.1
	s-2.3-6.7-2.3-10.9c0-6.3,1.7-11.2,5.1-14.8s8.1-5.3,14.1-5.3c4.2,0,7.7,0.8,10.5,2.5c2.8,1.6,4.9,4.1,6.2,7.3l-5.1,1.7
	c-0.9-2.3-2.4-4-4.4-5.3C242.1,715.1,239.7,714.4,236.9,714.4"/>
<path class="st0" d="M317.3,750.1l-10.2-16.4h-12.3v16.4h-5.3v-39.4H308c4.4,0,7.9,1,10.3,3s3.6,4.7,3.6,8.3c0,2.9-0.9,5.4-2.6,7.4
	s-4.1,3.3-7.1,3.8l11.2,17L317.3,750.1L317.3,750.1z M316.5,722c0-2.3-0.8-4-2.3-5.2c-1.6-1.2-3.8-1.8-6.7-1.8h-12.7v14.5h12.9
	c2.8,0,5-0.7,6.5-2C315.8,726.2,316.5,724.4,316.5,722"/>
<path class="st0" d="M396.6,730.2c0,4.1-0.8,7.7-2.4,10.8s-3.8,5.5-6.8,7.1c-2.9,1.7-6.4,2.5-10.4,2.5s-7.5-0.8-10.5-2.5
	c-2.9-1.6-5.2-4-6.7-7.1s-2.3-6.7-2.3-10.9c0-6.3,1.7-11.2,5.2-14.8c3.4-3.6,8.2-5.3,14.4-5.3c4,0,7.5,0.8,10.4,2.4
	c2.9,1.6,5.2,3.9,6.8,7C395.8,722.5,396.6,726,396.6,730.2 M391.1,730.2c0-4.9-1.2-8.8-3.7-11.5c-2.5-2.8-5.9-4.2-10.4-4.2
	s-8,1.4-10.5,4.1c-2.5,2.8-3.7,6.6-3.7,11.6c0,4.9,1.2,8.9,3.7,11.8c2.5,2.9,5.9,4.3,10.4,4.3s8-1.4,10.5-4.2
	C389.9,739.3,391.1,735.3,391.1,730.2"/>
<path class="st0" d="M460.6,750.1l-4.5-11.5h-18l-4.5,11.5H428l16.1-39.4h6.1l15.8,39.4H460.6L460.6,750.1z M447.1,714.7l-0.2,0.8
	c-0.5,1.5-1.2,3.5-2.1,6l-5,12.9h14.7l-5.1-13c-0.5-1.3-1-2.7-1.6-4.4L447.1,714.7z"/>
<polygon class="st0" points="510.6,715 510.6,750.1 505.3,750.1 505.3,715 491.8,715 491.8,710.7 524.2,710.7 524.2,715 "/>
<rect x="559.4" y="710.7" class="st0" width="5.3" height="39.4"/>
<path class="st0" d="M631.3,750.1l-4.5-11.5h-17.9l-4.5,11.5h-5.5l16.1-39.4h6.1l15.8,39.4H631.3L631.3,750.1z M617.8,714.7
	l-0.3,0.8c-0.5,1.5-1.2,3.5-2.1,6l-5,12.9h14.7l-5.1-13c-0.5-1.3-1-2.7-1.6-4.4L617.8,714.7z"/>
</svg>
