<?xml version="1.0" encoding="utf-8"?>
<!-- Generator: Adobe Illustrator 17.0.0, SVG Export Plug-In . SVG Version: 6.00 Build 0)  -->
<!DOCTYPE svg PUBLIC "-//W3C//DTD SVG 1.1//EN" "http://www.w3.org/Graphics/SVG/1.1/DTD/svg11.dtd">
<svg version="1.1" id="Layer_1" xmlns="http://www.w3.org/2000/svg" xmlns:xlink="http://www.w3.org/1999/xlink" x="0px" y="0px"
	 width="425.2px" height="425.2px" viewBox="0 0 425.2 425.2" enable-background="new 0 0 425.2 425.2" xml:space="preserve">
<path fill="#FFFFFF" d="M21.495,262.23c3.951,0.066,6.915,0.198,13.828,0.198c0.132,1.251,0.526,2.568,1.185,3.95
	c3.095,6.98,9.087,20.215,10.535,23.046c0.132,0.066,0.264,0.066,0.329-0.066c1.581-2.897,8.561-17.712,10.865-23.045
	c0.592-1.449,1.119-2.898,1.185-3.885c6.19,0,9.087-0.198,12.841-0.198c0.262,0.132,0.197,1.449,0,1.712
	c-1.844,0.198-2.964,0.461-3.82,0.725c-1.646,0.526-1.91,1.514-1.91,3.16c-0.131,4.411,0.396,24.099,0.725,28.643
	c0.131,1.975,0.46,3.358,2.37,3.753c0.856,0.263,1.976,0.461,3.424,0.592c0.198,0.264,0.132,1.383-0.131,1.713
	c-1.843,0-4.28-0.198-9.877-0.198c-3.557,0-6.584,0.198-8.758,0.198c-0.197-0.264-0.197-1.515,0-1.713
	c1.58-0.197,2.436-0.329,3.359-0.658c1.184-0.395,1.448-1.514,1.448-3.16c0.132-4.808,0-20.347-0.065-26.01
	c-0.067-0.065-0.199-0.065-0.264,0c-2.634,5.795-11.721,25.483-13.63,31.277c-0.395,0.132-2.107,0.132-2.305,0
	c-1.514-5.399-7.638-19.227-12.708-31.672c-0.131,0-0.198,0.066-0.264,0.132c-0.46,4.741-1.316,20.478-1.316,25.219
	c0,2.568,0.526,3.621,2.305,4.148c1.053,0.33,2.041,0.461,3.95,0.724c0.262,0.198,0.132,1.515-0.132,1.713
	c-2.041,0-4.345-0.198-7.901-0.198c-2.831,0-5.664,0.198-7.638,0.198c-0.198-0.264-0.198-1.449,0-1.713
	c1.119-0.131,2.041-0.263,2.963-0.46c1.909-0.527,2.568-1.317,3.029-4.676c0.657-4.872,2.041-22.123,2.37-27.655
	c0-1.251-0.329-2.633-1.713-3.16c-1.184-0.461-2.633-0.659-4.477-0.988C21.166,263.613,21.297,262.362,21.495,262.23"/>
<path fill="#FFFFFF" d="M125.196,300.815c-4.609-0.658-5.004-1.053-6.979-6.057c-1.215-3.228-3.765-10.591-6.073-17.285
	c-1.695-4.914-3.259-9.467-4.068-11.753c-0.329-1.119-0.723-2.503-0.922-3.358c-0.657,0-1.448,0.065-2.765,0.065
	c-1.054,0-2.04-0.065-2.765-0.065c-0.132,0.921-0.593,2.502-0.988,3.687c-1.581,4.609-7.572,21.07-11.062,29.433
	c-1.778,4.28-2.634,4.741-7.177,5.333c-0.198,0.264-0.198,1.515,0,1.712c1.91,0,4.082-0.197,6.848-0.197
	c3.423,0,6.123,0.197,7.967,0.197c0.197-0.197,0.33-1.448,0.197-1.712c-1.25-0.131-2.173-0.329-3.095-0.526
	c-1.844-0.461-1.909-1.383-1.909-2.305c0-1.382,2.042-6.65,3.226-9.942c0.066-0.264,0.396-0.593,0.659-0.593
	c0.79-0.066,2.305-0.066,5.399-0.066c0.72,0,1.414,0,2.06,0.002h3.64l2.2,6.679c0.015,0.047,0.022,0.096,0.038,0.142
	c0.562,1.655,1.165,3.473,1.412,4.371c0.132,0.395,0.132,1.119-0.724,1.514c-0.659,0.264-1.909,0.527-3.227,0.724
	c-0.197,0.264-0.131,1.449,0,1.712c2.108-0.066,4.477-0.197,9.219-0.197c3.951,0,7.046,0.197,8.691,0.197
	C125.196,302.33,125.327,301.013,125.196,300.815 M106.167,283.959c0.065,0.132-0.066,0.395-0.197,0.395
	c-0.594,0.066-2.568,0-4.478,0c-2.173,0-3.622,0-4.28-0.066c-0.132,0-0.197-0.132-0.132-0.395c0.988-3.029,3.161-9.679,4.412-13.301
	c0.066-0.066,0.263,0,0.329,0c0.606,1.718,1.471,4.314,2.303,6.881l0.003,0.01C104.921,279.932,105.685,282.353,106.167,283.959"/>
<path fill="#FFFFFF" d="M134.608,262.23c2.042,0,5.465,0.198,8.823,0.198c1.778,0,3.226,0,3.885-0.066
	c0.33,0.79,0.921,1.646,2.371,3.49c5.531,7.111,16.988,21.531,21.004,26.337c0.066,0,0.066-0.065,0.198-0.065
	c0-8.363,0.132-19.819-0.263-23.902c-0.264-2.173-0.79-3.095-2.767-3.687c-1.184-0.263-2.238-0.461-4.016-0.659
	c-0.197-0.197-0.066-1.448,0.065-1.646c1.78,0,4.742,0.198,8.429,0.198c2.832,0,5.992-0.198,6.98-0.198
	c0.197,0.198,0.197,1.449,0,1.646c-1.053,0.198-1.844,0.329-2.634,0.593c-1.843,0.592-2.37,1.646-2.567,3.885
	c-0.397,5.728-0.462,16.264-0.528,25.35c0,2.963,0.066,6.717,0.131,8.955c-0.987-0.066-4.345-0.066-5.53,0.066
	c-3.292-4.807-20.543-27.062-24.034-31.671c-0.13-0.132-0.329,0-0.329,0.065c-0.131,7.046-0.066,21.993,0.131,25.022
	c0.132,2.765,1.054,3.687,2.833,4.082c0.987,0.263,2.172,0.395,3.686,0.592c0.198,0.198,0.198,1.449-0.065,1.713
	c-1.778,0-4.741-0.198-7.902-0.198c-3.753,0-6.321,0.198-7.901,0.198c-0.197-0.198-0.132-1.515,0-1.713
	c1.449-0.197,2.502-0.329,3.556-0.658c1.383-0.395,2.041-1.317,2.304-3.819c0.329-3.292,0.593-15.276,0.659-27.26
	c0-1.514-0.724-3.358-2.239-4.017c-1.251-0.658-2.436-0.921-4.346-1.119C134.411,263.745,134.476,262.428,134.608,262.23"/>
<path fill="#FFFFFF" d="M198.475,299.631c1.712,1.251,3.951,1.712,6.189,1.712c3.424,0,6.124-2.324,6.124-6.275
	c0-3.754-1.911-5.861-7.639-9.416c-5.992-3.819-9.943-6.631-9.943-12.886c0-7.375,6.059-11.523,13.368-11.523
	c4.674,0,7.375,0.856,10.205,1.054c-0.461,2.436-0.921,5.465-1.118,9.284c-0.265,0.263-1.515,0.263-1.712,0.065
	c-0.527-4.016-1.252-5.925-2.898-7.045c-1.515-1.053-3.095-1.383-5.07-1.383c-3.951,0-6.256,2.831-6.321,6.124
	c0,3.095,1.514,5.07,4.148,6.979c2.7,1.844,4.807,3.247,7.44,4.893c4.214,2.7,6.716,5.663,6.716,10.272
	c0,6.914-5.464,12.03-15.012,12.03c-4.148,0-8.231-1.185-9.613-2.041c-0.659-0.988-1.646-7.77-1.844-9.943
	c0.198-0.329,1.514-0.658,1.777-0.461C194.589,295.548,196.104,297.985,198.475,299.631"/>
<path fill="#FFFFFF" d="M232.249,262.23c2.042,0,5.004,0.198,9.087,0.198c5.07,0,7.507-0.198,8.823-0.198
	c0.132,0.264,0.198,1.383,0,1.646c-1.316,0.198-2.436,0.396-3.16,0.593c-1.449,0.527-1.58,1.317-1.712,3.555
	c-0.065,2.173-0.065,7.836-0.065,13.499c0,8.165,0,12.972,0.131,15.342c0.066,1.448,0.131,2.963,2.041,3.358
	c0.855,0.263,2.173,0.461,3.423,0.592c0.198,0.264,0.067,1.581-0.131,1.713c-2.568-0.067-5.136-0.198-8.889-0.198
	c-5.136,0-7.045,0.198-9.548,0.198c-0.33-0.198-0.33-1.449,0-1.713c1.251-0.131,2.174-0.263,2.963-0.46
	c1.646-0.396,1.976-1.054,2.173-3.358c0.133-2.371,0.133-9.482,0.133-16.264c0-6.321,0-10.338-0.198-13.367
	c-0.067-1.448-0.395-2.436-1.647-2.831c-0.921-0.263-1.909-0.461-3.489-0.659C231.987,263.679,232.052,262.428,232.249,262.23"/>
<path fill="#FFFFFF" d="M271.031,297.524c-3.952-4.28-5.531-10.075-5.531-15.276c0-5.071,1.382-9.745,4.608-13.301
	c3.688-4.675,9.944-7.704,17.054-7.704c13.5,0,20.61,9.416,20.61,20.478c0,5.07-1.251,9.745-3.951,13.367
	c-4.082,5.662-10.534,8.428-17.383,8.428C279.722,303.516,274.521,301.211,271.031,297.524 M294.537,298.775
	c3.359-3.161,4.61-9.087,4.61-14.815c0-6.716-1.91-14.025-6.453-17.779c-2.042-1.711-4.411-2.634-7.309-2.634
	c-2.041,0-4.016,0.659-5.466,1.646c-4.082,2.832-5.728,8.626-5.728,15.079c0,6.388,1.976,14.289,7.046,18.306
	c1.974,1.579,4.411,2.502,7.375,2.502C290.85,301.08,293.089,300.157,294.537,298.775"/>
<path fill="#FFFFFF" d="M321.794,262.23c2.042,0,5.465,0.198,8.823,0.198c1.778,0,3.226,0,3.885-0.066
	c0.33,0.79,0.921,1.646,2.371,3.49c5.531,7.111,16.988,21.531,21.004,26.337c0.066,0,0.066-0.065,0.198-0.065
	c0-8.363,0.132-19.819-0.263-23.902c-0.264-2.173-0.79-3.095-2.767-3.687c-1.184-0.263-2.238-0.461-4.016-0.659
	c-0.197-0.197-0.066-1.448,0.065-1.646c1.78,0,4.742,0.198,8.429,0.198c2.832,0,5.992-0.198,6.98-0.198
	c0.197,0.198,0.197,1.449,0,1.646c-1.053,0.198-1.844,0.329-2.634,0.593c-1.843,0.592-2.37,1.646-2.567,3.885
	c-0.397,5.728-0.462,16.264-0.528,25.35c0,2.963,0.066,6.717,0.131,8.955c-0.987-0.066-4.345-0.066-5.53,0.066
	c-3.292-4.807-20.543-27.062-24.034-31.671c-0.13-0.132-0.329,0-0.329,0.065c-0.131,7.046-0.066,21.993,0.131,25.022
	c0.132,2.765,1.054,3.687,2.833,4.082c0.987,0.263,2.172,0.395,3.686,0.592c0.198,0.198,0.198,1.449-0.065,1.713
	c-1.778,0-4.741-0.198-7.902-0.198c-3.753,0-6.321,0.198-7.901,0.198c-0.197-0.198-0.132-1.515,0-1.713
	c1.449-0.197,2.502-0.329,3.556-0.658c1.383-0.395,2.041-1.317,2.304-3.819c0.329-3.292,0.593-15.276,0.659-27.26
	c0-1.514-0.724-3.358-2.239-4.017c-1.252-0.658-2.436-0.921-4.346-1.119C321.597,263.745,321.662,262.428,321.794,262.23"/>
<path fill="#FFFFFF" d="M385.66,299.631c1.712,1.251,3.951,1.712,6.189,1.712c3.424,0,6.124-2.324,6.124-6.275
	c0-3.754-1.911-5.861-7.639-9.416c-5.992-3.819-9.943-6.631-9.943-12.886c0-7.375,6.059-11.523,13.368-11.523
	c4.674,0,7.375,0.856,10.205,1.054c-0.461,2.436-0.921,5.465-1.118,9.284c-0.265,0.263-1.515,0.263-1.712,0.065
	c-0.527-4.016-1.252-5.925-2.898-7.045c-1.515-1.053-3.095-1.383-5.07-1.383c-3.951,0-6.256,2.831-6.321,6.124
	c0,3.095,1.514,5.07,4.148,6.979c2.7,1.844,4.807,3.247,7.44,4.893c4.214,2.7,6.716,5.663,6.716,10.272
	c0,6.914-5.464,12.03-15.012,12.03c-4.148,0-8.231-1.185-9.614-2.041c-0.658-0.988-1.646-7.77-1.843-9.943
	c0.197-0.329,1.514-0.658,1.777-0.461C381.774,295.548,383.289,297.985,385.66,299.631"/>
<path fill="#FFFFFF" d="M272.969,128.88v-8.904c0.095-2.85,0.375-5.691,0.856-8.502l0.284-1.666l-1.666,0.284
	c-3.507,0.599-7.057,0.901-10.614,0.901h0.001h-10.048v-10.029c0-3.551,0.3-7.096,0.898-10.596l0.287-1.681l-1.666,0.285
	c-2.575,0.44-5.175,0.716-7.782,0.834h-7.511c-3.557,0-7.108-0.302-10.615-0.901l-1.666-0.284l0.284,1.666
	c0.6,3.509,0.901,7.063,0.901,10.623v4.671c0,3.554-0.301,7.102-0.899,10.604l-0.286,1.676l1.666-0.285
	c3.506-0.599,7.058-0.9,10.615-0.9h11.383l-8.155,3.274c-0.474,0.191-0.905,0.475-1.267,0.837l-0.885,0.885l-0.645-0.644
	l-0.695-0.696c-0.37-0.369-0.97-0.369-1.339,0l-1.122,1.123c-0.715,0.714-1.489,1.367-2.313,1.951l-0.39,0.276l0.392,0.277
	c0.74,0.524,1.432,1.111,2.084,1.741l-8.221,8.221l-7.363-7.363l0.121,0.026c-2.515-2.515-4.813-5.238-6.869-8.142l-0.976-1.379
	l-0.981,1.384c-2.054,2.901-4.351,5.623-6.865,8.137l-7.289,7.29l-4.1-4.1c-0.71-0.711-1.674-1.11-2.679-1.11h-4.378l0.964-0.964
	l1.793-1.792c0.715-0.715,1.489-1.368,2.314-1.952l0.387-0.274l-0.391-0.278c-0.824-0.584-1.597-1.236-2.312-1.95l-1.121-1.122
	c-0.37-0.369-0.97-0.369-1.339,0l-1.34,1.34l-4.996-4.996h6.072c3.557,0,7.109,0.301,10.615,0.9l1.666,0.285l-0.284-1.666
	c-0.6-3.51-0.901-7.063-0.901-10.624v-4.661c0-3.56,0.301-7.114,0.901-10.623l0.284-1.666l-1.666,0.284
	c-3.506,0.599-7.058,0.901-10.615,0.901h-7.511c-2.608-0.118-5.207-0.394-7.782-0.834l-1.666-0.285l0.284,1.667
	c0.6,3.506,0.901,7.057,0.901,10.614v-0.001v10.026h-10.048c-3.556,0-7.107-0.302-10.614-0.901l-1.666-0.284l0.285,1.666
	c0.482,2.819,0.762,5.668,0.857,8.524v8.859c-0.095,2.857-0.375,5.705-0.857,8.525l-0.285,1.666l1.667-0.285
	c3.506-0.599,7.057-0.9,10.615-0.9h7.511c2.608,0.117,5.207,0.393,7.782,0.833l1.666,0.285l-0.527-3.084
	c-0.486-2.845-0.553-5.731-0.657-8.616c-0.015-0.415-0.096-0.826-0.246-1.214l-3.513-9.086l8.71,8.71l-1.339,1.339
	c-0.371,0.37-0.371,0.969,0,1.34l1.129,1.13c0.711,0.711,1.361,1.481,1.942,2.303l0.277,0.391l0.278-0.391
	c0.523-0.741,1.11-1.432,1.74-2.085l8.175,8.175l-6.975,6.974c-2.518,2.518-5.244,4.818-8.15,6.877l-1.38,0.977l1.38,0.976
	c2.132,1.51,4.166,3.153,6.093,4.914l9.291,9.291l-5.73,5.73l-2.52,2.52l-21.784,21.783c0,0.001,0,0.001,0,0.001l-8.306,8.306
	c-0.37,0.37-0.37,0.969,0,1.339l0.046,0.046c1.059,1.059,2.026,2.205,2.891,3.427l0.412,0.582l0.411-0.581
	c0.866-1.223,1.833-2.37,2.892-3.429l1.547-1.546l7.761,7.762c0.857,0.857,1.64,1.784,2.341,2.773l0.332,0.468l0.331-0.468
	c0.696-0.984,1.474-1.906,2.326-2.758l0.022-0.021v-0.001c0.37-0.37,0.37-0.969,0-1.339l-6.023-6.023h6.372l2.334-2.335v-6.371
	l6.024,6.022c0.369,0.37,0.969,0.37,1.339,0l0.021-0.022c0.852-0.851,1.775-1.629,2.758-2.325l0.468-0.331l-0.468-0.332
	c-0.984-0.698-1.908-1.478-2.762-2.33l-7.772-7.772l-0.001-0.001l-2.009-2.009h4.019c6.3-6.299,12.663-12.663,12.663-12.663
	c0.71-0.711,1.11-1.674,1.11-2.678v-4.378l9.96,9.96c2.514,2.514,4.81,5.236,6.864,8.138l0.977,1.379l0.983-1.388
	c2.054-2.9,4.35-5.62,6.862-8.133l2.948-2.948c0.71-0.71,1.109-1.674,1.109-2.679V168.9l8.75,8.75l8.503,8.503l4.523,4.523
	l-7.761,7.761c-0.857,0.857-1.785,1.64-2.774,2.341l-0.469,0.332l0.469,0.332c0.983,0.695,1.906,1.473,2.757,2.325l0.022,0.021
	c0.37,0.371,0.97,0.371,1.34,0l6.023-6.023l0.001,6.373l2.334,2.334h6.372l-6.023,6.024c-0.37,0.369-0.37,0.969,0,1.339l0.021,0.022
	c0.852,0.851,1.63,1.774,2.325,2.757l0.332,0.469l0.332-0.469c0.701-0.989,1.484-1.916,2.341-2.773l7.762-7.762l2.008-2.009v4.039
	c0.879,0.923,1.693,1.905,2.43,2.946l0.412,0.581l0.412-0.582c0.865-1.222,1.832-2.369,2.89-3.427l0.047-0.046
	c0.369-0.37,0.369-0.969,0-1.339l-32.61-32.61l-5.777-5.777l7.242-7.242c2.515-2.515,5.239-4.813,8.142-6.868l1.379-0.977
	l-1.379-0.977c-2.902-2.055-5.626-4.353-8.141-6.868l-6.984-6.983l4.147-4.148c0.711-0.71,1.11-1.674,1.11-2.679v-4.377l2.753,2.753
	c0.715,0.715,1.368,1.488,1.952,2.314l0.278,0.391l0.277-0.391c0.584-0.825,1.236-1.597,1.951-2.312l1.121-1.121
	c0.369-0.371,0.369-0.97-0.001-1.34l-1.339-1.339l4.997-4.997v6.007c0,3.553-0.301,7.101-0.899,10.604l-0.286,1.676l1.666-0.285
	c2.575-0.44,5.129-0.716,7.737-0.833h7.511c3.557,0,7.108,0.301,10.615,0.9l1.666,0.285l-0.284-1.666
	C273.344,134.57,273.064,131.729,272.969,128.88 M246.099,110.519c0,0.262-0.212,0.474-0.474,0.474h-14.557
	c-0.261,0-0.473-0.212-0.473-0.474V95.962c0-0.262,0.212-0.473,0.473-0.473h14.557c0.262,0,0.474,0.211,0.474,0.473V110.519z
	 M167.24,132.18h-14.557c-0.262,0-0.474-0.212-0.474-0.474v-14.557c0-0.261,0.212-0.473,0.474-0.473h14.557
	c0.261,0,0.473,0.212,0.473,0.473v14.557C167.713,131.968,167.501,132.18,167.24,132.18 M173.396,110.519V95.962
	c0-0.262,0.212-0.473,0.473-0.473h14.557c0.262,0,0.474,0.211,0.474,0.473v14.557c0,0.262-0.212,0.474-0.473,0.474h-14.558
	C173.608,110.993,173.396,110.781,173.396,110.519 M165.056,201.737h-3.666l10.383-6.717h-0.001h0.001v6.716h-6.716L165.056,201.737
	z M247.721,201.736v-6.717v-3.665l6.717,10.382H247.721z M209.366,127.158c0.184-0.185,0.484-0.185,0.669,0l10.782,10.782
	l-11.069,11.069l-11.117-11.116L209.366,127.158z M184.091,153.102c-0.185-0.185-0.185-0.484,0-0.669l6.439-6.439
	c0.71-0.71,1.11-1.674,1.11-2.679v-4.378l14.089,14.09l-10.857,10.857L184.091,153.102z M210.035,178.377
	c-0.185,0.185-0.484,0.185-0.669,0l-10.476-10.475l0.048-0.047l13.783-13.783v4.378c0,1.005,0.399,1.968,1.109,2.678l6.727,6.727
	L210.035,178.377z M235.309,152.433c0.185,0.185,0.185,0.484,0.001,0.669l-10.734,10.735l-10.81-10.81l6.986-6.986
	c0.71-0.71,1.109-1.674,1.109-2.679v-4.377l2.974,2.973l0.888,0.889l1.188,1.188L235.309,152.433z M267.286,131.706
	c0,0.262-0.212,0.474-0.474,0.474h-14.556c-0.262,0-0.474-0.212-0.474-0.474v-14.557c0-0.261,0.212-0.473,0.474-0.473h14.556
	c0.262,0,0.474,0.212,0.474,0.473V131.706z"/>
<path fill="#FFFFFF" d="M126.07,321.155c-1.971,0-3.505,0.634-4.6,1.902s-1.643,3.005-1.643,5.212c0,2.182,0.571,3.936,1.712,5.263
	c1.142,1.327,2.686,1.99,4.632,1.99c2.493,0,4.368-1.234,5.623-3.702l1.971,0.985c-0.733,1.534-1.762,2.701-3.09,3.5
	c-1.326,0.801-2.866,1.201-4.618,1.201c-1.795,0-3.346-0.373-4.656-1.119c-1.311-0.745-2.309-1.811-2.995-3.196
	c-0.687-1.386-1.029-3.027-1.029-4.922c0-2.839,0.766-5.063,2.299-6.672s3.656-2.413,6.368-2.413c1.896,0,3.479,0.371,4.751,1.112
	c1.273,0.741,2.208,1.84,2.806,3.297l-2.287,0.759c-0.413-1.036-1.077-1.828-1.991-2.376
	C128.409,321.429,127.324,321.155,126.07,321.155"/>
<path fill="#FFFFFF" d="M162.397,337.253l-4.624-7.393h-5.547v7.393h-2.414v-17.804h8.377c2.005,0,3.553,0.448,4.644,1.346
	c1.091,0.896,1.637,2.146,1.637,3.746c0,1.323-0.385,2.435-1.157,3.336c-0.77,0.901-1.833,1.47-3.19,1.706l5.054,7.67H162.397z
	 M162.044,324.566c0-1.036-0.352-1.826-1.055-2.369c-0.704-0.544-1.717-0.815-3.04-0.815h-5.723v6.571h5.825
	c1.271,0,2.255-0.297,2.951-0.891C161.696,326.468,162.044,325.636,162.044,324.566"/>
<path fill="#FFFFFF" d="M198.207,328.268c0,1.862-0.356,3.492-1.068,4.89c-0.712,1.399-1.733,2.473-3.064,3.223
	c-1.331,0.749-2.901,1.124-4.713,1.124c-1.827,0-3.405-0.37-4.732-1.112c-1.326-0.741-2.339-1.813-3.039-3.216
	c-0.699-1.402-1.049-3.038-1.049-4.909c0-2.847,0.779-5.073,2.338-6.678c1.558-1.605,3.727-2.407,6.507-2.407
	c1.811,0,3.382,0.36,4.714,1.081c1.331,0.72,2.347,1.766,3.051,3.14C197.855,324.777,198.207,326.398,198.207,328.268
	 M195.743,328.268c0-2.215-0.554-3.955-1.662-5.218c-1.108-1.264-2.672-1.896-4.694-1.896c-2.039,0-3.613,0.624-4.725,1.87
	c-1.112,1.247-1.668,2.995-1.668,5.244c0,2.233,0.562,4.004,1.686,5.314c1.125,1.31,2.686,1.965,4.682,1.965
	c2.055,0,3.633-0.634,4.733-1.902C195.194,332.377,195.743,330.585,195.743,328.268"/>
<path fill="#FFFFFF" d="M227.131,337.252l-2.034-5.206h-8.113l-2.047,5.206h-2.501l7.265-17.803h2.742l7.152,17.803H227.131z
	 M221.04,321.268l-0.113,0.354c-0.211,0.699-0.522,1.597-0.936,2.691l-2.274,5.851h6.659l-2.287-5.876
	c-0.236-0.581-0.472-1.238-0.707-1.971L221.04,321.268z"/>
<polygon fill="#FFFFFF" points="249.762,321.42 249.762,337.253 247.362,337.253 247.362,321.42 241.245,321.42 241.245,319.449 
	255.878,319.449 255.878,321.42 "/>
<rect x="271.799" y="319.449" fill="#FFFFFF" width="2.414" height="17.804"/>
<path fill="#FFFFFF" d="M304.285,337.252l-2.034-5.206h-8.112l-2.047,5.206h-2.502l7.266-17.803h2.741l7.153,17.803H304.285z
	 M298.195,321.268l-0.114,0.354c-0.21,0.699-0.522,1.597-0.935,2.691l-2.274,5.851h6.659l-2.287-5.876
	c-0.236-0.581-0.472-1.238-0.708-1.971L298.195,321.268z"/>
</svg>
