<?xml version="1.0" encoding="utf-8"?>
<!-- Generator: Adobe Illustrator 17.0.0, SVG Export Plug-In . SVG Version: 6.00 Build 0)  -->
<!DOCTYPE svg PUBLIC "-//W3C//DTD SVG 1.1//EN" "http://www.w3.org/Graphics/SVG/1.1/DTD/svg11.dtd">
<svg version="1.1" id="Layer_1" xmlns="http://www.w3.org/2000/svg" xmlns:xlink="http://www.w3.org/1999/xlink" x="0px" y="0px"
	 width="425.2px" height="425.2px" viewBox="0 0 425.2 425.2" enable-background="new 0 0 425.2 425.2" xml:space="preserve">
<path fill="#FFFFFF" d="M416.991,135.1v-28.786c0.307-9.214,1.212-18.398,2.767-27.486l0.918-5.386l-5.386,0.918
	c-11.338,1.937-22.815,2.913-34.314,2.913h0.003h-32.484V44.85c0-11.48,0.97-22.941,2.903-34.256l0.928-5.435l-5.386,0.921
	c-8.325,1.422-16.73,2.315-25.159,2.696H297.5c-11.5,0-22.98-0.976-34.317-2.913l-5.386-0.918l0.918,5.386
	c1.94,11.344,2.913,22.834,2.913,34.343v15.101c0,11.49-0.973,22.96-2.906,34.282l-0.925,5.418l5.386-0.921
	c11.335-1.937,22.818-2.91,34.317-2.91h36.8l-26.365,10.585c-1.532,0.618-2.926,1.536-4.096,2.706l-2.861,2.861l-2.085-2.082
	l-2.247-2.25c-1.196-1.193-3.136-1.193-4.329,0l-3.627,3.631c-2.311,2.308-4.814,4.419-7.478,6.307l-1.261,0.892l1.267,0.896
	c2.392,1.694,4.63,3.592,6.737,5.628l-26.578,26.578l-23.804-23.804l0.391,0.084c-8.131-8.131-15.56-16.934-22.207-26.323
	l-3.155-4.458l-3.171,4.474c-6.64,9.379-14.066,18.179-22.194,26.306l-23.565,23.568l-13.255-13.255
	c-2.295-2.299-5.412-3.589-8.661-3.589h-14.154l3.117-3.117l5.797-5.793c2.312-2.311,4.814-4.423,7.481-6.311l1.251-0.886
	l-1.264-0.899c-2.664-1.888-5.163-3.996-7.475-6.304l-3.624-3.627c-1.196-1.193-3.136-1.193-4.329,0l-4.332,4.332l-16.152-16.152
	h19.63c11.5,0,22.983,0.973,34.317,2.91l5.386,0.921l-0.918-5.386c-1.94-11.348-2.913-22.834-2.913-34.346V44.676
	c0-11.509,0.973-22.999,2.913-34.343l0.918-5.386l-5.386,0.918c-11.335,1.937-22.818,2.913-34.317,2.913h-24.282
	C94.99,8.396,86.587,7.504,78.263,6.081L72.876,5.16l0.918,5.389c1.94,11.335,2.913,22.815,2.913,34.314V44.86v32.413H44.223
	c-11.496,0-22.976-0.976-34.314-2.913l-5.386-0.918l0.921,5.386c1.558,9.114,2.463,18.324,2.771,27.558v28.64
	c-0.307,9.237-1.212,18.444-2.771,27.561l-0.921,5.386l5.389-0.921c11.335-1.937,22.815-2.91,34.317-2.91h24.283
	c8.431,0.378,16.834,1.271,25.159,2.693l5.386,0.921l-1.704-9.97c-1.571-9.198-1.788-18.528-2.124-27.855
	c-0.048-1.342-0.31-2.67-0.795-3.925L83.076,96.632l28.159,28.159l-4.329,4.329c-1.199,1.196-1.199,3.133,0,4.332l3.65,3.653
	c2.299,2.299,4.4,4.788,6.278,7.446l0.896,1.264l0.899-1.264c1.691-2.396,3.589-4.63,5.625-6.741l26.429,26.429l-22.55,22.546
	c-8.141,8.141-16.953,15.576-26.348,22.233l-4.461,3.159l4.461,3.155c6.893,4.882,13.468,10.193,19.698,15.887l30.037,30.037
	l-18.525,18.525l-8.147,8.147L54.423,358.35c0,0.003,0,0.003,0,0.003L27.57,385.205c-1.196,1.196-1.196,3.133,0,4.329l0.149,0.149
	c3.424,3.424,6.55,7.129,9.346,11.079l1.332,1.882l1.329-1.878c2.8-3.954,5.926-7.662,9.35-11.086l5.001-4.998l25.091,25.094
	c2.771,2.771,5.302,5.768,7.568,8.965l1.073,1.513l1.07-1.513c2.25-3.181,4.765-6.162,7.52-8.916l0.071-0.068v-0.003
	c1.196-1.196,1.196-3.133,0-4.329l-19.472-19.472h20.6l7.546-7.549v-20.597l19.475,19.469c1.193,1.196,3.133,1.196,4.329,0
	l0.068-0.071c2.754-2.751,5.738-5.266,8.916-7.516l1.513-1.07l-1.513-1.073c-3.181-2.257-6.168-4.778-8.929-7.533l-25.126-25.126
	l-0.003-0.003l-6.495-6.495h12.993c20.367-20.364,40.938-40.938,40.938-40.938c2.295-2.299,3.588-5.412,3.588-8.658v-14.154
	l32.2,32.2c8.127,8.127,15.55,16.928,22.191,26.309l3.159,4.458l3.178-4.487c6.64-9.376,14.063-18.169,22.184-26.293l9.531-9.531
	c2.295-2.295,3.585-5.412,3.585-8.661v-14.151l28.288,28.288l27.489,27.489l14.623,14.622l-25.091,25.091
	c-2.771,2.771-5.771,5.302-8.968,7.568l-1.516,1.073l1.516,1.073c3.178,2.247,6.162,4.762,8.913,7.516l0.071,0.068
	c1.196,1.199,3.136,1.199,4.332,0l19.472-19.472l0.003,20.603l7.546,7.546h20.6l-19.472,19.475c-1.196,1.193-1.196,3.133,0,4.329
	l0.068,0.071c2.754,2.751,5.27,5.735,7.516,8.913l1.073,1.516l1.073-1.516c2.266-3.197,4.798-6.194,7.568-8.965l25.094-25.094
	l6.492-6.495v13.058c2.842,2.984,5.473,6.159,7.856,9.524l1.332,1.878l1.332-1.882c2.796-3.951,5.923-7.659,9.343-11.079
	l0.152-0.149c1.193-1.196,1.193-3.133,0-4.329L292.207,279.78l-18.676-18.676l23.413-23.413c8.131-8.131,16.937-15.56,26.322-22.204
	l4.458-3.159l-4.458-3.159c-9.382-6.644-18.188-14.073-26.319-22.204l-22.579-22.576l13.407-13.41
	c2.299-2.295,3.588-5.412,3.588-8.661v-14.151l8.9,8.9c2.312,2.312,4.423,4.811,6.311,7.481l0.899,1.264l0.896-1.264
	c1.888-2.667,3.996-5.163,6.307-7.475l3.624-3.624c1.193-1.199,1.193-3.136-0.003-4.332l-4.329-4.329l16.155-16.155v19.42
	c0,11.486-0.973,22.957-2.907,34.282l-0.924,5.418l5.386-0.921c8.325-1.423,16.582-2.315,25.013-2.693h24.283
	c11.5,0,22.979,0.973,34.317,2.91l5.386,0.921l-0.918-5.386C418.204,153.496,417.299,144.311,416.991,135.1 M330.123,75.741
	c0,0.847-0.685,1.532-1.532,1.532h-47.062c-0.844,0-1.529-0.686-1.529-1.532V28.679c0-0.847,0.685-1.529,1.529-1.529h47.062
	c0.847,0,1.532,0.682,1.532,1.529V75.741z M75.178,145.769H28.117c-0.847,0-1.532-0.685-1.532-1.533V97.175
	c0-0.844,0.685-1.529,1.532-1.529h47.062c0.844,0,1.529,0.685,1.529,1.529v47.061C76.708,145.084,76.022,145.769,75.178,145.769
	 M95.08,75.741V28.679c0-0.847,0.685-1.529,1.529-1.529h47.062c0.847,0,1.532,0.682,1.532,1.529v47.062
	c0,0.847-0.685,1.532-1.529,1.532H96.609C95.766,77.273,95.08,76.588,95.08,75.741 M68.118,370.641H56.266l33.567-21.715H89.83
	h0.003v21.712H68.121L68.118,370.641z M335.367,370.638v-21.715v-11.849l21.715,33.564H335.367z M211.368,129.533
	c0.595-0.598,1.565-0.598,2.163,0l34.857,34.857l-35.785,35.785l-35.94-35.937L211.368,129.533z M129.656,213.408
	c-0.598-0.598-0.598-1.565,0-2.163l20.817-20.817c2.295-2.295,3.589-5.412,3.589-8.661v-14.154l45.549,45.552l-35.1,35.1
	L129.656,213.408z M213.531,295.12c-0.598,0.598-1.565,0.598-2.163,0L177.5,261.255l0.155-0.152l44.559-44.559v14.154
	c0,3.249,1.29,6.362,3.585,8.658l21.748,21.748L213.531,295.12z M295.24,211.245c0.598,0.598,0.598,1.565,0.003,2.163
	l-34.702,34.705l-34.948-34.948l22.585-22.585c2.295-2.295,3.585-5.412,3.585-8.661v-14.15l9.615,9.611l2.871,2.874l3.841,3.841
	L295.24,211.245z M398.619,144.237c0,0.847-0.685,1.533-1.533,1.533h-47.058c-0.847,0-1.532-0.685-1.532-1.533V97.175
	c0-0.844,0.685-1.529,1.532-1.529h47.058c0.847,0,1.533,0.685,1.533,1.529V144.237z"/>
</svg>
